<svg width="104" height="65" viewBox="0 0 104 65" fill="none" xmlns="http://www.w3.org/2000/svg">
<path d="M34.5063 28.2758H68.9749V36.0237H34.5063V28.2758Z" fill="#ED6B1D"/>
<path d="M86.1713 0.0812073H63.3813L68.8993 7.90466L85.5666 12.9691C88.6658 13.914 90.6311 16.8241 90.5555 19.8477V44.792C90.5555 47.8912 88.5902 50.7258 85.5666 51.6706L68.9749 56.7351L63.3813 64.5585H86.1713C95.7333 64.5585 103.368 56.8107 103.368 47.362V17.2777C103.443 7.82907 95.6955 0.0812073 86.1713 0.0812073Z" fill="#ED6B1D"/>
<path d="M17.1965 0.0812073H39.9865L34.4685 7.90466L17.8768 12.9691C14.7776 13.914 12.8123 16.8241 12.8879 19.8477V44.792C12.8879 47.8912 14.8532 50.7258 17.8768 51.6706L34.4685 56.7351L39.9865 64.5585H17.1965C7.74786 64.5585 0 56.8107 0 47.362V17.2777C0 7.82907 7.74786 0.0812073 17.1965 0.0812073Z" fill="#ED6B1D"/>
</svg>
