<svg width="124" height="40" viewBox="0 0 124 40" fill="none" xmlns="http://www.w3.org/2000/svg">
<path d="M88.717 32.293C85.987 32.118 84.4 30.565 83.98 27.66C83.868 26.887 83.868 26.867 83.856 21.85L83.845 16.994H86.261L86.27 21.691C86.279 25.924 86.284 26.421 86.325 26.718C86.489 27.927 86.816 28.74 87.374 29.323C87.82 29.79 88.342 30.063 89.065 30.208C89.405 30.277 90.376 30.277 90.687 30.208C91.3849 30.0659 92.0248 29.7191 92.525 29.212C93.116 28.622 93.553 27.785 93.765 26.839L93.835 26.52L93.843 21.784L93.851 17.046H96.318V31.94H93.877V30.758C93.877 29.956 93.868 29.58 93.849 29.586C93.7935 29.6506 93.7468 29.7222 93.71 29.799C93.265 30.5896 92.6116 31.243 91.821 31.688C90.901 32.193 89.978 32.373 88.717 32.293ZM116.417 32.281C115.423 32.1983 114.462 31.8846 113.61 31.365C111.862 30.285 110.828 28.505 110.526 26.057C110.421 25.209 110.408 24.071 110.496 23.351C110.691 21.741 111.324 20.161 112.226 19.034C112.456 18.744 112.981 18.221 113.27 17.99C114.05 17.3677 114.962 16.9329 115.936 16.719C116.502 16.596 117.498 16.538 118.099 16.593C119.609 16.733 120.991 17.443 121.931 18.56C122.887 19.695 123.411 21.281 123.479 23.234C123.49 23.6316 123.491 24.0294 123.484 24.427L123.471 25.063L118.185 25.069L112.899 25.076V25.312C112.899 26.029 113.073 26.846 113.375 27.542C113.635 28.141 114.084 28.795 114.45 29.112C115.202 29.7615 116.14 30.1576 117.13 30.244C117.504 30.279 118.456 30.242 118.881 30.177C120.096 29.99 121.251 29.514 122.182 28.817C122.292 28.734 122.397 28.657 122.416 28.646C122.443 28.629 122.45 28.843 122.449 29.746V30.866L122.198 31.021C121.12 31.6805 119.911 32.0988 118.656 32.247C118.274 32.294 116.874 32.315 116.417 32.281ZM121.017 22.826C121.017 21.625 120.51 20.29 119.793 19.603C119.281 19.1126 118.628 18.7963 117.926 18.699C117.578 18.645 116.845 18.666 116.478 18.739C115.728 18.8818 115.039 19.2478 114.501 19.789C113.909 20.3755 113.46 21.0917 113.192 21.881C113.092 22.171 112.976 22.646 112.939 22.91L112.922 23.036H121.017V22.826ZM49.312 31.906L53.301 21.439L57.279 11.005H59.835L59.941 11.275C60.265 12.106 67.904 31.917 67.904 31.927C67.904 31.934 67.292 31.939 66.544 31.939H65.184L64.084 29.011L62.982 26.083H54.116L54.078 26.183C54.057 26.237 53.586 27.555 53.032 29.11L52.026 31.939H50.663C49.585 31.939 49.303 31.933 49.312 31.906ZM62.173 23.849C62.173 23.844 61.433 21.838 60.527 19.389C58.833 14.811 58.738 14.535 58.604 13.8C58.541 13.456 58.509 13.446 58.472 13.76C58.4192 14.1007 58.3423 14.4372 58.242 14.767C58.197 14.906 57.434 16.997 56.546 19.415C56.0029 20.8866 55.4646 22.3599 54.931 23.835C54.931 23.847 56.561 23.857 58.552 23.857C60.544 23.857 62.173 23.853 62.173 23.849ZM68.726 31.559V31.177L73.143 25.112L77.56 19.047L73.56 19.034L69.562 19.021L69.555 18.007L69.548 16.994H81.116V17.678L76.699 23.776C74.269 27.13 72.281 29.88 72.281 29.886C72.281 29.893 74.245 29.899 76.645 29.899H81.01V31.939H68.726V31.559ZM101.137 31.922C101.127 31.912 101.12 28.549 101.12 24.449V16.993H103.534V18.53C103.534 19.376 103.544 20.067 103.556 20.067C103.569 20.067 103.628 19.929 103.687 19.76C103.967 18.9717 104.429 18.2608 105.036 17.685C105.558 17.1789 106.224 16.8479 106.943 16.738C107.15 16.705 107.325 16.698 107.739 16.709C108.259 16.723 108.53 16.761 108.846 16.864L108.946 16.896V19.4L108.661 19.258C108.167 19.0077 107.614 18.8971 107.062 18.938C106.673 18.958 106.418 19.008 106.107 19.124C105.476 19.3568 104.941 19.7936 104.586 20.365C104.045 21.2479 103.7 22.237 103.576 23.265C103.556 23.442 103.545 24.887 103.54 27.734L103.533 31.941H102.344C101.69 31.941 101.147 31.932 101.137 31.922Z" fill="#0089D6"/>
<path d="M14.2555 0.576604H26.4553L13.791 38.0996C13.661 38.4853 13.4132 38.8205 13.0826 39.0579C12.7519 39.2953 12.3551 39.4229 11.9481 39.4229H2.45394C2.1456 39.4228 1.84169 39.3494 1.56734 39.2086C1.29298 39.0679 1.05603 38.8639 0.876079 38.6135C0.696175 38.3631 0.578513 38.0734 0.532834 37.7685C0.487155 37.4636 0.514773 37.1521 0.613401 36.86L12.4126 1.89959C12.5427 1.5139 12.7905 1.17875 13.1211 0.941308C13.4517 0.703867 13.8485 0.576103 14.2555 0.576004V0.576604Z" fill="url(#paint0_linear_35_455)"/>
<path d="M31.983 25.745H12.638C12.4581 25.7446 12.2822 25.7984 12.1334 25.8994C11.9845 26.0004 11.8695 26.144 11.8034 26.3113C11.7374 26.4786 11.7233 26.662 11.763 26.8375C11.8027 27.013 11.8943 27.1724 12.026 27.295L24.457 38.898C24.8191 39.2356 25.2959 39.4232 25.791 39.423H36.745L31.983 25.745Z" fill="#0078D4"/>
<path d="M14.2556 0.576597C13.8441 0.575052 13.4429 0.705103 13.1106 0.947758C12.7783 1.19041 12.5322 1.53296 12.4084 1.92537L0.628117 36.8282C0.52295 37.1214 0.489943 37.4356 0.531888 37.7443C0.573833 38.0529 0.689495 38.347 0.869094 38.6015C1.04869 38.856 1.28694 39.0635 1.5637 39.2065C1.84045 39.3495 2.14756 39.4237 2.45906 39.4229H12.1985C12.5612 39.3581 12.9003 39.1982 13.181 38.9595C13.4617 38.7208 13.674 38.4118 13.7962 38.0642L16.1453 31.1407L24.5369 38.9674C24.8884 39.2583 25.3295 39.4191 25.7858 39.4229H36.6995L31.9128 25.7444L17.9594 25.7477L26.4994 0.576597H14.2556Z" fill="url(#paint1_linear_35_455)"/>
<path d="M29.8378 1.89778C29.7079 1.51264 29.4604 1.17798 29.1302 0.940953C28.8 0.703927 28.4037 0.57649 27.9973 0.576599H14.401C14.8074 0.576643 15.2035 0.704144 15.5337 0.941153C15.8638 1.17816 16.1113 1.51274 16.2412 1.89778L28.0407 36.8597C28.1395 37.1519 28.1673 37.4634 28.1217 37.7685C28.0761 38.0735 27.9586 38.3633 27.7787 38.6139C27.5988 38.8645 27.3619 39.0686 27.0874 39.2094C26.813 39.3502 26.5089 39.4236 26.2005 39.4235H39.7973C40.1057 39.4232 40.4095 39.3497 40.6838 39.2088C40.9581 39.0679 41.1949 38.8638 41.3746 38.6133C41.5544 38.3628 41.672 38.0731 41.7177 37.7682C41.7633 37.4633 41.7358 37.1518 41.6373 36.8597L29.8378 1.89778Z" fill="url(#paint2_linear_35_455)"/>
<defs>
<linearGradient id="paint0_linear_35_455" x1="18.7022" y1="3.45526" x2="6.03247" y2="40.8841" gradientUnits="userSpaceOnUse">
<stop stop-color="#114A8B"/>
<stop offset="1" stop-color="#0669BC"/>
</linearGradient>
<linearGradient id="paint1_linear_35_455" x1="22.6597" y1="20.8981" x2="19.7292" y2="21.8891" gradientUnits="userSpaceOnUse">
<stop stop-opacity="0.3"/>
<stop offset="0.071" stop-opacity="0.2"/>
<stop offset="0.321" stop-opacity="0.1"/>
<stop offset="0.623" stop-opacity="0.05"/>
<stop offset="1" stop-opacity="0"/>
</linearGradient>
<linearGradient id="paint2_linear_35_455" x1="21.048" y1="2.36346" x2="34.9555" y2="39.4154" gradientUnits="userSpaceOnUse">
<stop stop-color="#3CCBF4"/>
<stop offset="1" stop-color="#2892DF"/>
</linearGradient>
</defs>
</svg>
