<svg width="2222" height="2501" viewBox="0 0 2222 2501" fill="none" xmlns="http://www.w3.org/2000/svg">
<path d="M2221.89 735.324C2221.87 693.288 2212.89 656.143 2194.73 624.263C2176.89 592.914 2150.17 566.639 2114.33 545.865C1818.53 375.118 1522.43 204.893 1226.72 33.9725C1146.99 -12.1019 1069.7 -10.4222 990.564 36.3136C872.822 105.826 283.334 443.916 107.674 545.769C35.3319 587.692 0.130408 651.852 0.11302 735.245C0 1078.63 0.11302 1422 0 1765.39C0.0173878 1806.51 8.61564 1842.93 25.9773 1874.33C43.8259 1906.63 70.916 1933.62 107.578 1954.87C283.247 2056.72 872.814 2394.79 990.529 2464.32C1069.7 2511.08 1146.99 2512.75 1226.74 2466.66C1522.46 2295.73 1818.58 2125.51 2114.43 1954.76C2151.09 1933.53 2178.18 1906.51 2196.03 1874.24C2213.37 1842.84 2221.98 1806.42 2222 1765.3C2222 1765.3 2222 1078.71 2221.89 735.324Z" fill="#D26383"/>
<path d="M1114.4 1246.97L25.9773 1874.33C43.8258 1906.63 70.916 1933.62 107.578 1954.87C283.247 2056.72 872.814 2394.79 990.529 2464.32C1069.7 2511.08 1146.99 2512.75 1226.74 2466.66C1522.46 2295.73 1818.58 2125.51 2114.43 1954.76C2151.09 1933.53 2178.18 1906.51 2196.03 1874.24L1114.4 1246.97Z" fill="#9C033A"/>
<path d="M792.021 1432.8C855.356 1543.49 974.419 1618.14 1111 1618.14C1248.42 1618.14 1368.17 1542.54 1431.18 1430.67L1114.4 1246.97L792.021 1432.8Z" fill="#9C033A"/>
<path d="M2221.89 735.324C2221.87 693.288 2212.89 656.143 2194.73 624.263L1114.4 1246.97L2196.03 1874.24C2213.37 1842.84 2221.98 1806.42 2222 1765.3C2222 1765.3 2222 1078.71 2221.89 735.324Z" fill="#CA205D"/>
<path d="M2162.41 1291.81H2077.89V1376.44H1993.35V1291.81H1908.84V1207.21H1993.35V1122.6H2077.89V1207.21H2162.41V1291.81ZM1854 1291.81H1769.48V1376.44H1684.96V1291.81H1600.44V1207.21H1684.96V1122.6H1769.48V1207.21H1854V1291.81Z" fill="white"/>
<path d="M1431.18 1430.67C1368.17 1542.54 1248.42 1618.14 1111 1618.14C974.419 1618.14 855.356 1543.49 792.021 1432.8C760.205 1377.26 743.496 1314.34 743.562 1250.31C743.562 1047.17 908.076 882.494 1111 882.494C1246.7 882.494 1365.14 956.218 1428.79 1065.77L1749.95 880.64C1622.3 660.05 1383.97 511.645 1111 511.645C703.466 511.645 373.107 842.364 373.107 1250.31C373.107 1384.15 408.673 1509.66 470.835 1617.92C598.165 1839.67 837.169 1988.99 1111 1988.99C1385.34 1988.99 1624.71 1839.07 1751.86 1616.66L1431.18 1430.67Z" fill="white"/>
</svg>
