<svg width="2222" height="2500" viewBox="0 0 2222 2500" fill="none" xmlns="http://www.w3.org/2000/svg">
<path d="M2221.89 735.001C2221.87 692.965 2212.89 655.82 2194.73 623.94C2176.89 592.591 2150.17 566.317 2114.33 545.542C1818.53 374.795 1522.43 204.571 1226.72 33.6496C1146.99 -12.4248 1069.7 -10.7451 990.564 35.9908C872.822 105.503 283.334 443.594 107.674 545.446C35.3319 587.369 0.130408 651.529 0.11302 734.923C0 1078.3 0.11302 1421.68 0 1765.07C0.0173878 1806.18 8.61564 1842.61 25.9773 1874.01C43.8259 1906.3 70.916 1933.3 107.578 1954.55C283.247 2056.4 872.814 2394.46 990.529 2463.99C1069.7 2510.75 1146.99 2512.43 1226.74 2466.33C1522.46 2295.4 1818.58 2125.19 2114.43 1954.44C2151.09 1933.21 2178.18 1906.19 2196.03 1873.92C2213.37 1842.52 2221.98 1806.1 2222 1764.97C2222 1764.97 2222 1078.39 2221.89 735.001Z" fill="#659AD2"/>
<path d="M1114.4 1246.65L25.9773 1874.01C43.8258 1906.3 70.916 1933.3 107.578 1954.55C283.247 2056.4 872.814 2394.46 990.529 2463.99C1069.7 2510.75 1146.99 2512.43 1226.74 2466.33C1522.46 2295.4 1818.58 2125.19 2114.43 1954.44C2151.09 1933.21 2178.18 1906.19 2196.03 1873.92L1114.4 1246.65Z" fill="#004482"/>
<path d="M792.021 1432.48C855.356 1543.17 974.419 1617.82 1111 1617.82C1248.42 1617.82 1368.17 1542.22 1431.18 1430.35L1114.4 1246.65L792.021 1432.48Z" fill="#004482"/>
<path d="M2221.89 735.001C2221.87 692.965 2212.89 655.82 2194.73 623.94L1114.4 1246.65L2196.03 1873.92C2213.37 1842.52 2221.98 1806.1 2222 1764.97C2222 1764.97 2222 1078.39 2221.89 735.001Z" fill="#00599C"/>
<path d="M1431.18 1430.35C1368.17 1542.22 1248.42 1617.82 1111 1617.82C974.419 1617.82 855.356 1543.17 792.021 1432.48C760.205 1376.94 743.496 1314.02 743.562 1249.99C743.562 1046.85 908.076 882.171 1111 882.171C1246.7 882.171 1365.14 955.895 1428.79 1065.45L1749.95 880.317C1622.3 659.727 1383.97 511.322 1111 511.322C703.466 511.322 373.107 842.041 373.107 1249.99C373.107 1383.83 408.673 1509.34 470.835 1617.6C598.165 1839.35 837.169 1988.67 1111 1988.67C1385.34 1988.67 1624.71 1838.75 1751.86 1616.34L1431.18 1430.35Z" fill="white"/>
</svg>
