<svg width="2492" height="1320" viewBox="0 0 2492 1320" fill="none" xmlns="http://www.w3.org/2000/svg">
<path d="M1998.36 443.231C2016.91 657.047 1680.08 861.101 1245.61 898.201C811.142 935.302 445.018 791.781 426.467 577.964C407.917 364.148 744.751 160.095 1179.22 122.994C1612.71 85.8935 1979.81 228.438 1998.36 443.231Z" fill="#BBE6FB"/>
<path d="M1190.93 147.402C1024.96 144.473 831.645 210.864 687.148 272.373C672.503 315.331 663.716 361.219 663.716 409.059C663.716 662.905 893.154 868.911 1176.29 868.911C1459.43 868.911 1689.84 663.882 1689.84 409.059C1689.84 329 1666.41 252.846 1626.38 187.432C1511.17 169.858 1352.03 150.331 1190.93 147.402Z" fill="white"/>
<path d="M1177.27 147.402C1085.49 141.544 927.325 189.385 795.521 237.225C775.018 284.089 764.278 335.834 764.278 390.509C764.278 613.112 966.379 793.734 1179.22 793.734C1391.08 793.734 1578.54 613.112 1594.16 390.509C1599.04 318.26 1574.63 249.917 1539.49 191.337C1403.78 167.905 1259.28 153.26 1177.27 147.402Z" fill="white"/>
<path d="M941.97 362.195C953.686 336.811 970.284 325.095 986.882 304.592C984.929 299.71 981.024 283.112 981.024 278.231C981.024 252.846 1001.53 233.32 1025.93 233.32C1031.79 233.32 1037.65 234.296 1042.53 236.249C1117.71 178.645 1216.32 154.237 1315.91 176.692C1324.69 178.645 1333.48 181.574 1342.27 183.527C1244.63 169.858 1133.33 205.006 1058.15 265.538C1060.11 271.396 1066.94 286.041 1066.94 292.876C1066.94 318.26 1050.34 324.118 1025.93 324.118C1020.08 324.118 1015.2 323.142 1009.34 321.189C992.74 343.645 971.26 387.58 961.497 414.917C1003.48 452.018 1040.58 465.686 1089.4 484.237C1089.4 482.284 1091.35 479.355 1091.35 477.402C1091.35 402.225 1157.74 340.716 1232.92 340.716C1300.28 340.716 1356.91 389.533 1367.65 453.97C1401.82 432.491 1434.04 415.893 1458.45 384.651C1452.59 377.817 1446.73 357.314 1446.73 347.55C1446.73 325.095 1465.28 306.544 1487.74 306.544C1490.67 306.544 1493.6 306.544 1497.5 307.521C1510.2 281.16 1519.96 253.822 1525.82 225.509C1407.68 137.639 1179.22 150.331 1179.22 150.331C1179.22 150.331 997.621 140.568 874.604 201.101C883.39 257.728 906.822 314.355 941.97 362.195Z" fill="#373535"/>
<path d="M1506.29 328.024C1515.08 335.834 1518.98 341.692 1522.89 348.527C1533.63 368.053 1512.15 386.604 1488.72 386.604C1486.76 386.604 1483.83 386.604 1481.88 385.627C1456.5 425.657 1411.59 476.426 1371.56 502.787C1433.06 512.55 1490.67 536.959 1535.58 575.035C1568.78 515.479 1594.16 428.586 1594.16 355.361C1594.16 299.71 1569.75 258.704 1532.65 228.438C1531.67 258.704 1515.08 300.686 1506.29 328.024ZM1010.31 706.84C1030.82 650.213 1080.61 607.254 1128.45 569.178C1121.62 559.414 1110.88 535.982 1106.97 525.243C1049.37 507.669 998.598 474.473 958.568 431.515C958.568 432.491 957.592 434.444 957.592 435.42C949.781 468.615 948.805 502.787 952.71 535.006C980.047 539.888 1001.53 564.296 1001.53 593.586C1001.53 611.16 985.905 635.568 974.189 647.284C985.905 672.669 994.692 686.337 1010.31 706.84Z" fill="#373535"/>
<path d="M1006.41 753.704C982 729.296 965.402 681.456 949.781 651.189C946.852 651.189 943.923 652.166 940.994 652.166C907.799 652.166 873.627 624.828 881.438 592.609C885.343 575.035 898.036 563.319 917.562 553.556C912.68 516.456 911.704 464.71 920.491 426.633C922.444 415.893 928.302 411.012 931.231 400.272C895.106 347.55 871.675 277.254 871.675 207.935V200.124C810.166 231.367 764.278 279.207 764.278 355.361C764.278 524.266 861.911 690.243 1006.41 754.68V753.704ZM1362.77 520.361C1344.22 573.083 1293.45 612.136 1233.89 612.136C1201.67 612.136 1172.38 601.396 1149.93 582.846C1102.09 619.947 1058.15 685.361 1036.67 742.964C1046.44 753.704 1053.27 762.491 1064.99 772.254C1098.18 781.041 1145.05 772.254 1181.17 772.254C1326.64 772.254 1456.5 707.817 1530.7 593.586C1479.93 558.438 1421.35 525.243 1362.77 520.361Z" fill="#373535"/>
<path d="M938.065 381.722C949.781 356.337 963.45 333.882 980.047 312.402C978.095 307.521 977.118 301.663 977.118 296.781C977.118 271.396 997.621 251.87 1022.03 251.87C1027.89 251.87 1033.75 252.846 1038.63 254.799C1113.8 197.195 1212.41 172.787 1312 195.243C1320.79 197.195 1329.57 200.124 1338.36 202.077C1240.73 188.408 1139.19 218.675 1064.01 279.207C1065.96 285.065 1067.92 290.923 1067.92 296.781C1067.92 322.166 1047.41 341.692 1023.01 341.692C1017.15 341.692 1012.27 340.716 1006.41 338.763C989.811 361.219 975.166 386.604 965.402 413.941C1001.53 452.018 1045.46 483.26 1094.28 500.834V494C1094.28 418.822 1155.79 357.314 1230.96 357.314C1298.33 357.314 1354.96 406.13 1365.7 470.568C1399.87 449.089 1429.16 421.751 1454.54 389.533C1448.69 382.698 1444.78 373.911 1444.78 364.148C1444.78 341.692 1463.33 323.142 1485.79 323.142C1488.72 323.142 1491.64 323.142 1495.55 324.118C1508.24 297.757 1518.01 270.42 1523.86 242.106C1405.73 154.237 1177.27 166.929 1177.27 166.929C1177.27 166.929 995.669 157.166 872.651 217.698C879.485 277.254 902.917 333.882 938.065 381.722Z" fill="#1287B1"/>
<path d="M1512.15 334.858C1520.93 342.669 1525.82 353.408 1525.82 365.124C1525.82 387.58 1507.27 406.13 1484.81 406.13C1482.86 406.13 1479.93 406.13 1477.98 405.154C1452.59 445.183 1418.42 479.355 1378.39 504.74C1436.97 513.527 1492.62 538.911 1538.51 576.988C1571.7 517.432 1591.23 448.112 1591.23 374.888C1591.23 319.237 1566.82 278.231 1529.72 247.964C1527.77 278.231 1521.91 307.521 1512.15 334.858ZM1016.17 719.533C1036.67 662.905 1071.82 613.112 1119.66 575.035C1112.83 565.272 1106.97 555.509 1103.07 543.793C1045.46 526.219 994.692 493.024 954.663 450.065C954.663 451.041 953.686 452.994 953.686 453.97C945.876 487.166 944.899 521.337 948.805 553.556C976.142 558.438 997.621 582.846 997.621 612.136C997.621 629.71 989.811 645.331 978.095 656.071C987.858 678.527 1001.53 700.006 1016.17 719.533Z" fill="#1287B1"/>
<path d="M1006.41 752.728C982 728.319 961.497 700.982 945.876 670.716C942.947 670.716 940.018 671.692 937.089 671.692C903.894 671.692 877.533 645.331 877.533 612.136C877.533 588.704 891.201 568.201 910.728 558.438C905.846 521.337 907.799 484.237 916.586 446.16C918.538 435.42 922.444 424.68 925.373 413.941C889.249 361.219 867.769 296.781 867.769 227.462V219.651C806.26 250.893 760.373 298.734 760.373 374.888C760.373 543.793 860.935 689.266 1005.43 753.704C1006.41 753.704 1006.41 753.704 1006.41 752.728ZM1358.86 539.888C1340.31 592.609 1289.54 631.663 1229.99 631.663C1197.77 631.663 1168.48 620.923 1146.02 602.373C1098.18 639.473 1062.06 690.243 1039.6 747.846C1049.37 758.586 1060.11 768.349 1070.85 778.112C1104.04 786.899 1139.19 791.781 1175.31 791.781C1320.79 791.781 1449.66 716.603 1523.86 602.373C1475.05 567.225 1417.44 544.769 1358.86 539.888Z" fill="#1287B1"/>
<path d="M1363.75 504.74L1489.69 474.473L1362.77 467.639L1466.26 389.533L1349.1 431.515L1428.18 321.189L1317.86 394.414L1355.93 265.538L1280.76 371.959L1278.8 237.225L1229.01 357.314L1188.01 236.249L1189.96 378.793L1118.69 250.893L1157.74 386.604L1041.56 302.639L1132.35 416.87L987.858 364.148L1101.11 448.112L955.639 452.994L1105.02 491.071L955.639 523.29L1103.07 534.03L979.071 613.112L1106.97 567.225L1018.12 679.503L1130.4 588.704L1090.37 739.059L1177.27 616.041L1165.55 760.538L1214.37 628.734L1256.35 766.396L1266.11 627.757L1328.6 745.893L1291.5 611.16L1404.75 699.03L1331.53 586.751L1456.5 635.568L1360.82 541.84L1488.72 551.604L1363.75 504.74Z" fill="white"/>
<path d="M19.3372 745.893C410.846 354.385 723.272 233.32 1007.38 178.645C1044.49 171.811 1052.3 88.8225 1052.3 88.8225C1052.3 88.8225 1057.18 149.355 1083.54 157.166C1109.9 164.976 1144.07 62.4615 1144.07 62.4615C1144.07 62.4615 1112.83 154.237 1144.07 160.095C1175.31 164.976 1233.89 70.2722 1233.89 70.2722C1233.89 70.2722 1210.46 151.308 1226.08 157.166C1241.7 162.047 1320.79 39.0296 1320.79 39.0296C1320.79 39.0296 1273.92 120.065 1317.86 128.852C1362.77 136.663 1428.18 73.2012 1428.18 73.2012C1428.18 73.2012 1377.41 130.805 1399.87 139.592C1497.5 173.763 1575.61 47.8166 1575.61 47.8166C1575.61 47.8166 1557.06 103.467 1510.2 164C1612.71 190.361 1688.86 36.1006 1688.86 36.1006L1612.71 190.361C1651.76 209.888 1808.95 28.2899 1808.95 28.2899C1808.95 28.2899 1727.92 169.858 1680.08 199.148C1706.44 220.627 1801.14 135.686 1801.14 135.686C1801.14 135.686 1724.99 230.391 1754.28 235.272C1796.26 269.444 1951.5 59.5325 1951.5 59.5325C1951.5 59.5325 1890.96 183.527 1802.12 280.183C1876.32 318.26 2061.82 79.0592 2061.82 79.0592C2061.82 79.0592 2056.94 155.213 1922.21 276.278C2021.79 263.586 2150.67 74.1775 2150.67 74.1775C2150.67 74.1775 2103.8 215.746 1990.55 316.308C2088.18 306.544 2245.37 64.4142 2245.37 64.4142C2245.37 64.4142 2184.84 232.343 2061.82 329.976C2198.51 360.243 2395.73 156.189 2395.73 156.189C2395.73 156.189 2318.6 300.686 2217.06 360.243C2330.31 403.201 2485.55 224.533 2485.55 224.533C2485.55 224.533 2330.31 463.734 2083.3 452.994C2002.27 449.089 1757.21 206.959 1231.94 226.485C536.793 251.87 390.343 546.722 19.3372 745.893Z" fill="#373535" fill-opacity="0.35"/>
<path d="M34.9585 716.604C426.467 325.095 738.893 204.03 1023.01 149.355C1060.11 142.521 1067.92 59.5325 1067.92 59.5325C1067.92 59.5325 1072.8 120.065 1099.16 127.876C1125.52 135.686 1159.69 33.1716 1159.69 33.1716C1159.69 33.1716 1128.45 124.947 1159.69 130.805C1190.93 135.686 1249.51 40.9823 1249.51 40.9823C1249.51 40.9823 1226.08 122.018 1241.7 127.876C1257.33 132.757 1336.41 9.73965 1336.41 9.73965C1336.41 9.73965 1289.54 90.7752 1333.48 99.5621C1378.39 107.373 1443.8 43.9112 1443.8 43.9112C1443.8 43.9112 1393.04 101.515 1415.49 110.302C1513.12 144.473 1591.23 18.5266 1591.23 18.5266C1591.23 18.5266 1572.68 74.1775 1525.82 134.71C1628.33 161.071 1704.49 6.81066 1704.49 6.81066L1628.33 161.071C1667.38 182.55 1825.55 0.952667 1825.55 0.952667C1825.55 0.952667 1744.51 142.521 1696.67 171.811C1723.04 190.361 1817.74 106.396 1817.74 106.396C1817.74 106.396 1741.59 201.101 1770.88 205.982C1812.86 240.154 1968.09 30.2426 1968.09 30.2426C1968.09 30.2426 1906.59 154.237 1817.74 250.893C1891.94 287.994 2078.42 48.7929 2078.42 48.7929C2078.42 48.7929 2073.54 124.947 1938.8 246.012C2038.39 233.32 2167.27 43.9112 2167.27 43.9112C2167.27 43.9112 2120.4 185.479 2007.15 286.041C2104.78 276.278 2261.97 34.1479 2261.97 34.1479C2261.97 34.1479 2201.44 202.077 2078.42 299.71C2215.11 329.976 2412.33 125.923 2412.33 125.923C2412.33 125.923 2335.2 270.42 2233.66 329.976C2346.91 372.935 2502.15 194.266 2502.15 194.266C2502.15 194.266 2346.91 433.467 2099.9 422.728C2018.86 418.822 1773.8 176.692 1248.54 196.219C553.39 222.58 405.964 516.456 34.9585 716.604Z" fill="#373535"/>
<path d="M9.57397 788.852C216.556 892.343 405.964 773.231 644.189 840.598C825.787 891.367 1046.44 954.828 1346.17 910.894C1645.91 867.935 1901.7 737.107 2024.72 504.74C2062.8 401.249 2218.04 528.172 2218.04 528.172C2218.04 528.172 2104.78 481.308 2107.71 502.787C2110.64 525.243 2277.59 602.373 2277.59 602.373C2277.59 602.373 2126.26 555.509 2136.02 590.657C2144.81 625.805 2325.43 768.349 2325.43 768.349C2325.43 768.349 2119.43 614.089 2102.83 635.568C2085.25 657.047 2189.72 741.988 2189.72 741.988C2189.72 741.988 2017.89 635.568 1957.35 666.811C1913.42 689.266 2136.02 834.74 2136.02 834.74C2136.02 834.74 1991.53 724.414 1957.35 753.704C1923.18 782.994 2120.4 1019.27 2120.4 1019.27C2120.4 1019.27 1895.85 777.136 1873.39 788.852C1850.93 800.568 1934.9 916.751 1934.9 916.751C1934.9 916.751 1825.55 795.686 1795.28 816.189C1765.02 837.669 1953.45 1151.07 1953.45 1151.07C1953.45 1151.07 1749.4 829.858 1664.46 883.556C1796.26 1173.53 1747.44 1214.53 1747.44 1214.53C1747.44 1214.53 1730.85 918.704 1565.85 926.515C1482.86 930.42 1604.9 1147.17 1604.9 1147.17C1604.9 1147.17 1492.62 948.97 1417.44 952.876C1555.11 1214.53 1506.29 1319.98 1506.29 1319.98C1506.29 1319.98 1528.75 1096.4 1342.27 972.402C1413.54 1035.86 1297.35 1319.98 1297.35 1319.98C1297.35 1319.98 1398.89 901.13 1222.18 981.189C1193.86 993.882 1220.22 1190.12 1220.22 1190.12C1220.22 1190.12 1185.08 965.568 1131.38 977.284C1100.14 984.118 934.16 1288.73 934.16 1288.73C934.16 1288.73 1069.87 959.71 1028.86 973.379C998.598 983.142 941.97 1118.85 941.97 1118.85C941.97 1118.85 969.308 985.095 941.97 977.284C914.633 969.473 760.373 1118.85 760.373 1118.85C760.373 1118.85 874.604 985.095 855.077 956.781C824.811 914.799 790.639 912.846 748.657 929.444C688.124 952.876 607.089 1063.2 607.089 1063.2C607.089 1063.2 688.124 950.923 674.456 909.917C652 842.55 418.657 1039.77 418.657 1039.77C418.657 1039.77 556.32 909.917 525.077 881.604C493.834 854.266 322 862.077 269.278 862.077C112.089 864.03 57.4142 826.929 9.57397 788.852Z" fill="#373535" fill-opacity="0.35"/>
<path d="M0.786865 765.42C207.769 868.911 397.177 749.799 635.402 817.166C817 867.935 1037.65 931.396 1337.38 887.462C1637.12 844.503 1892.92 713.675 2015.94 481.308C2054.01 377.817 2209.25 504.74 2209.25 504.74C2209.25 504.74 2095.99 457.876 2098.92 479.355C2101.85 501.811 2268.8 578.941 2268.8 578.941C2268.8 578.941 2117.47 532.077 2127.24 567.225C2136.02 602.373 2316.65 744.917 2316.65 744.917C2316.65 744.917 2112.59 589.68 2095.99 611.16C2079.4 632.639 2182.89 717.58 2182.89 717.58C2182.89 717.58 2011.05 611.16 1950.52 642.402C1906.59 664.858 2129.19 810.331 2129.19 810.331C2129.19 810.331 1984.69 700.006 1950.52 729.296C1916.35 758.586 2113.57 994.858 2113.57 994.858C2113.57 994.858 1889.99 752.728 1867.53 764.444C1845.08 776.16 1929.04 892.343 1929.04 892.343C1929.04 892.343 1817.74 772.254 1787.47 792.757C1757.21 814.237 1944.66 1127.64 1944.66 1127.64C1944.66 1127.64 1740.61 805.45 1656.65 859.148C1789.43 1150.09 1739.63 1191.1 1739.63 1191.1C1739.63 1191.1 1723.04 895.272 1558.04 903.083C1475.05 906.988 1597.09 1123.73 1597.09 1123.73C1597.09 1123.73 1485.79 926.515 1410.61 930.42C1548.27 1192.08 1499.46 1297.52 1499.46 1297.52C1499.46 1297.52 1521.91 1073.94 1335.43 949.947C1406.7 1013.41 1290.52 1297.52 1290.52 1297.52C1290.52 1297.52 1392.06 878.675 1215.34 958.734C1187.03 971.426 1213.39 1167.67 1213.39 1167.67C1213.39 1167.67 1178.24 943.112 1124.54 954.828C1093.3 961.663 927.325 1266.28 927.325 1266.28C927.325 1266.28 1063.04 937.254 1022.03 950.923C991.763 960.686 935.136 1096.4 935.136 1096.4C935.136 1096.4 962.473 962.639 935.136 954.828C907.799 947.018 753.538 1096.4 753.538 1096.4C753.538 1096.4 867.769 962.639 848.242 934.325C817.976 892.343 783.805 890.391 741.822 906.988C681.29 930.42 600.254 1040.75 600.254 1040.75C600.254 1040.75 681.29 928.467 667.621 887.462C645.166 820.095 411.822 1017.31 411.822 1017.31C411.822 1017.31 549.485 887.462 518.243 859.148C487 831.811 315.166 839.621 262.444 839.621C103.302 840.598 48.6271 803.497 0.786865 765.42Z" fill="#373535"/>
</svg>
