<svg width="128" height="128" viewBox="0 0 128 128" fill="none" xmlns="http://www.w3.org/2000/svg">
<path d="M125.571 39.926L67.071 0.92601C65.074 -0.30399 62.943 -0.31399 60.929 0.92601L2.429 39.926C0.929 40.926 0 42.712 0 44.497V83.497C0 85.283 0.929 87.069 2.429 88.068L60.929 127.074C62.925 128.303 65.057 128.314 67.071 127.074L125.571 88.068C127.071 87.069 128 85.283 128 83.498V44.498C128 42.712 127.071 40.926 125.571 39.926ZM69.501 15.782L112.571 44.497L93.357 57.355L69.5 41.425V15.784L69.501 15.782ZM58.5 15.782V41.426L34.642 57.354L15.428 44.498L58.5 15.782ZM11 54.782L24.786 63.997L11 73.212V54.782ZM58.5 112.212L15.428 83.497L34.642 70.64L58.5 86.569V112.212ZM64 76.997L44.572 63.997L64 50.997L83.428 63.997L64 76.997ZM69.5 112.212V86.569L93.357 70.64L112.571 83.497L69.5 112.212ZM117 73.212L103.214 63.997L117 54.783V73.212Z" fill="black"/>
</svg>
