<svg width="94" height="94" viewBox="0 0 94 94" fill="none" xmlns="http://www.w3.org/2000/svg">
<path d="M46.724 93.725V75.543C66.076 75.543 81.006 56.535 73.541 36.425C70.776 28.987 64.971 22.926 57.229 20.171C37.324 13.009 18.247 27.885 18.247 46.893H0C0 16.59 29.582 -7.377 61.93 2.541C76.03 6.948 87.088 17.968 91.512 32.017C101.465 64.248 77.412 93.725 46.724 93.725Z" fill="#0080FF"/>
<path d="M47 75.543H28.753V57.637H47V75.543ZM28.753 89.593H14.929V75.543H28.753V89.593ZM14.929 75.543H3.31799V63.973H14.929V75.543Z" fill="#0080FF"/>
</svg>
