<svg width="124" height="28" viewBox="0 0 124 28" fill="none" xmlns="http://www.w3.org/2000/svg">
<path d="M38.53 27.82V0.739995H40V4.99999C40.1736 4.81129 40.334 4.6108 40.48 4.4C41.0807 3.1531 42.0243 2.10329 43.2004 1.37359C44.3764 0.643894 45.7361 0.264493 47.12 0.279993C50.47 0.179993 53.19 1.42 54.79 4.4C55.8081 6.2512 56.3683 8.31919 56.424 10.4311C56.4797 12.5431 56.0291 14.6377 55.11 16.54C53.62 19.88 49.94 21.54 46 20.93C44.7739 20.8256 43.5935 20.4158 42.5664 19.738C41.5393 19.0603 40.6983 18.1362 40.12 17.05V27.82H38.53ZM40 10.32C40.13 11.64 40.18 12.58 40.33 13.5C40.91 17.12 43.05 19.27 46.41 19.66C47.9877 19.9193 49.6065 19.6235 50.9905 18.823C52.3745 18.0225 53.4381 16.7668 54 15.27C54.6457 13.7304 54.9564 12.071 54.9116 10.402C54.8668 8.73309 54.4674 7.09279 53.74 5.58999C53.1402 4.24839 52.1202 3.13839 50.8339 2.42759C49.5477 1.71679 48.0651 1.4439 46.61 1.65C45.2439 1.749 43.9425 2.27119 42.8869 3.14399C41.8313 4.01679 41.0739 5.19679 40.72 6.51999C40.4068 7.77169 40.1664 9.04049 40 10.32ZM86.41 14C86.1873 15.9066 85.2797 17.6675 83.8559 18.955C82.4322 20.2426 80.5894 20.9693 78.67 21C72.51 21.31 69.62 17.22 69.16 12.5C68.8407 9.93679 69.2569 7.33559 70.36 4.99999C71.1282 3.39789 72.3863 2.08179 73.9522 1.24219C75.5181 0.402693 77.3105 0.0831956 79.07 0.329996C80.7428 0.471796 82.3286 1.13619 83.6028 2.22919C84.8771 3.32219 85.7752 4.78829 86.17 6.41999C86.483 7.90609 86.7133 9.40839 86.86 10.92H70.67C70.37 15.2 72.67 18.64 75.93 19.47C79.99 20.47 83.46 18.71 84.72 14.85C85 13.86 85.51 13.72 86.41 14ZM70.67 9.54999H85.14C85.05 4.98999 82.21 1.68999 78.36 1.63999C74 1.56999 70.86 4.74999 70.67 9.54999ZM89.39 14.1H90.81C90.8625 15.1449 91.202 16.155 91.7912 17.0195C92.3805 17.884 93.1966 18.5692 94.15 19C95.3472 19.5387 96.6505 19.8006 97.9629 19.7659C99.275 19.7313 100.563 19.4011 101.73 18.8C102.366 18.5133 102.899 18.0383 103.256 17.4393C103.614 16.8403 103.779 16.1459 103.73 15.45C103.767 14.7788 103.583 14.114 103.208 13.5564C102.833 12.9987 102.286 12.5787 101.65 12.36C100.09 11.78 98.43 11.46 96.84 10.95C95.1856 10.4789 93.568 9.88729 92 9.17999C89.44 7.92999 89.28 3.05999 92.18 1.51999C93.6649 0.681994 95.3361 0.229292 97.0409 0.203092C98.746 0.176892 100.43 0.578093 101.94 1.36999C102.855 1.87549 103.594 2.64789 104.058 3.58409C104.523 4.52029 104.691 5.57579 104.54 6.60999H103.32C103.32 6.54999 103.21 6.49999 103.21 6.43999C103.06 2.54999 99.8 1.34999 96.3 1.68999C95.2552 1.81889 94.2404 2.12669 93.3 2.59999C92.7351 2.85829 92.2643 3.28569 91.9526 3.82309C91.6409 4.36049 91.5037 4.98129 91.56 5.59999C91.5617 6.21889 91.7549 6.82219 92.1129 7.32709C92.471 7.83189 92.9765 8.21369 93.56 8.41999C95.1 8.97999 96.71 9.33999 98.29 9.77999C99.56 10.13 100.88 10.36 102.11 10.78C102.978 11.0646 103.739 11.6061 104.293 12.3329C104.847 13.0597 105.166 13.9374 105.21 14.85C105.358 15.8499 105.188 16.8711 104.723 17.7686C104.258 18.6662 103.522 19.3944 102.62 19.85C99.28 21.74 93.78 21.24 91.33 18.85C90.7091 18.2255 90.218 17.4843 89.885 16.669C89.552 15.8537 89.3838 14.9806 89.39 14.1ZM123.21 6.60999H121.88C121.88 6.42999 121.81 6.26999 121.79 6.11999C121.768 5.12309 121.405 4.1638 120.761 3.4028C120.116 2.6419 119.23 2.12539 118.25 1.93999C116.401 1.40959 114.429 1.50449 112.64 2.20999C111.933 2.41279 111.31 2.83879 110.865 3.42459C110.42 4.01029 110.176 4.72429 110.17 5.45999C110.145 6.18249 110.37 6.89139 110.808 7.46709C111.245 8.04289 111.867 8.44999 112.57 8.61999C114.57 9.23999 116.62 9.61999 118.65 10.18C119.308 10.3379 119.956 10.5349 120.59 10.77C121.537 11.1089 122.36 11.7257 122.951 12.5397C123.543 13.3537 123.874 14.3272 123.904 15.3328C123.933 16.3384 123.658 17.3295 123.115 18.1764C122.572 19.0233 121.786 19.6868 120.86 20.08C119.449 20.7208 117.919 21.0598 116.37 21.0753C114.82 21.0908 113.284 20.7825 111.86 20.17C110.689 19.665 109.701 18.8135 109.029 17.7301C108.357 16.6466 108.033 15.3833 108.1 14.11H109.4C109.641 15.2703 110.16 16.3545 110.914 17.2686C111.668 18.1828 112.633 18.8994 113.727 19.3564C114.82 19.8135 116.008 19.9971 117.188 19.8914C118.369 19.7857 119.505 19.394 120.5 18.75C121.106 18.4352 121.609 17.9532 121.949 17.3612C122.29 16.7692 122.453 16.092 122.42 15.41C122.45 14.7384 122.26 14.0753 121.88 13.5213C121.499 12.9673 120.948 12.5525 120.31 12.34C118.75 11.76 117.09 11.45 115.5 10.94C113.836 10.4761 112.209 9.89129 110.63 9.18999C108.13 7.95999 107.93 3.12999 110.78 1.58999C112.283 0.716894 113.987 0.247892 115.726 0.228692C117.464 0.209392 119.178 0.640493 120.7 1.47999C121.571 1.99969 122.271 2.76129 122.717 3.67209C123.163 4.58289 123.334 5.60359 123.21 6.60999ZM36.1 20.51C35.5764 20.7083 34.9984 20.7078 34.4751 20.5088C33.9518 20.3098 33.5195 19.926 33.26 19.43C31.63 16.99 29.83 14.66 28.1 12.28L27.35 11.28C25.29 14.04 23.23 16.69 21.35 19.44C21.1051 19.9141 20.6962 20.283 20.1994 20.478C19.7027 20.673 19.1521 20.6808 18.65 20.5L26.38 10.13L19.19 0.759992C19.7076 0.573092 20.2738 0.570595 20.793 0.752695C21.3122 0.934895 21.7527 1.29069 22.04 1.75999C23.71 4.19999 25.56 6.52999 27.4 8.99999C29.25 6.54999 31.08 4.20999 32.79 1.78999C33.0363 1.32359 33.4454 0.963992 33.9396 0.779592C34.4337 0.595292 34.9784 0.598895 35.47 0.789995L32.68 4.49C31.43 6.14 30.2 7.79999 28.9 9.40999C28.7953 9.50379 28.7115 9.61859 28.6541 9.74699C28.5967 9.87539 28.5671 10.0144 28.5671 10.155C28.5671 10.2956 28.5967 10.4346 28.6541 10.563C28.7115 10.6914 28.7953 10.8062 28.9 10.9C31.29 14.07 33.66 17.25 36.1 20.51ZM68.92 0.659994V2.06C67.9086 1.9937 66.8945 2.1401 65.9432 2.49C64.9919 2.8398 64.1245 3.38519 63.3971 4.09099C62.6696 4.79679 62.0982 5.64729 61.7198 6.58759C61.3413 7.52789 61.1643 8.53699 61.2 9.54999V20.55H59.77V0.739995H61.17V4.79999C62.9 1.83999 65.57 0.739994 68.92 0.659994ZM0.130005 9.99999C0.340005 8.99999 0.470005 7.90999 0.760005 6.88999C2.49 0.739993 9.54 -1.82 14.39 1.99C17.23 4.22 17.94 7.37999 17.8 10.94H1.8C1.54 17.3 6.13 21.14 12 19.18C12.9522 18.8394 13.8046 18.267 14.4802 17.5146C15.1559 16.7621 15.6335 15.8532 15.87 14.87C16.18 13.87 16.68 13.7 17.63 13.99C17.4735 15.2074 17.0431 16.3735 16.371 17.4006C15.699 18.4277 14.8029 19.2891 13.75 19.92C12.0104 20.8713 10.0146 21.2481 8.0478 20.9967C6.08114 20.7452 4.24431 19.8784 2.8 18.52C1.37116 16.9134 0.507215 14.8835 0.340005 12.74C0.340005 12.4 0.210005 12.06 0.140005 11.74C0.133345 11.1467 0.130005 10.5667 0.130005 9.99999ZM1.82 9.56999H16.29C16.2 4.95999 13.29 1.68999 9.41 1.65999C5.09 1.59999 2 4.79999 1.81 9.54999L1.82 9.56999Z" fill="black"/>
</svg>
