<svg width="357" height="133" viewBox="0 0 357 133" fill="none" xmlns="http://www.w3.org/2000/svg">
<path fill-rule="evenodd" clip-rule="evenodd" d="M27.7745 40.2719C27.0796 40.2719 26.908 39.923 27.254 39.4054L30.8946 34.7238C31.2378 34.2033 32.1072 33.8573 32.7993 33.8573H94.678C95.373 33.8573 95.5446 34.3778 95.1985 34.8983L92.2529 39.4054C91.9068 39.923 91.0403 40.4435 90.5198 40.4435L27.7745 40.2719ZM1.60112 56.2156C0.909028 56.2156 0.734577 55.8725 1.08062 55.3491L4.72122 50.6704C5.06727 50.1499 5.9338 49.8038 6.62875 49.8038H85.6638C86.3559 49.8038 86.7048 50.3243 86.5303 50.8448L85.1433 55.0031C84.9717 55.698 84.2767 56.0441 83.5846 56.0441L1.60112 56.2156ZM43.5438 72.1622C42.8517 72.1622 42.6801 71.6417 43.0262 71.1212L45.4513 66.7885C45.8002 66.268 46.4923 65.7504 47.1872 65.7504H81.8487C82.5437 65.7504 82.8897 66.268 82.8897 66.963L82.5465 71.1212C82.5465 71.8162 81.8516 72.3367 81.3311 72.3367L43.5438 72.1622ZM223.457 37.1518C212.536 39.9259 205.083 42.005 194.338 44.7762C191.736 45.4712 191.564 45.6428 189.311 43.0431C186.711 40.0975 184.804 38.19 181.166 36.4569C170.244 31.0861 159.671 32.6447 149.793 39.0594C138.008 46.6837 131.942 57.9487 132.114 71.9878C132.285 85.8552 141.82 97.2946 155.513 99.2022C167.298 100.761 177.179 96.5997 184.978 87.7627C186.537 85.8552 187.924 83.7761 189.657 81.3481H156.205C152.567 81.3481 151.701 79.0945 152.913 76.1489C155.167 70.7752 159.325 61.7638 161.75 57.2566C162.274 56.2156 163.486 54.4826 166.086 54.4826H229.174C228.831 59.1642 228.831 63.8429 228.136 68.5245C226.229 81.002 221.55 92.4415 213.923 102.494C201.442 118.961 185.152 129.185 164.524 131.959C147.54 134.213 131.768 130.918 117.903 120.52C105.076 110.813 97.7981 97.9867 95.8906 82.043C93.637 63.1508 99.1823 46.1632 110.622 31.2577C122.928 15.1395 139.22 4.91266 159.154 1.27206C175.446 -1.67359 191.044 0.233927 205.083 9.76584C214.269 15.8316 220.855 24.1509 225.188 34.2033C226.229 35.7648 225.537 36.6313 223.455 37.149L223.457 37.1518Z" fill="#00ACD7"/>
<path d="M280.826 133C265.054 132.651 250.666 128.147 238.535 117.746C228.308 108.909 221.896 97.6407 219.817 84.2938C216.697 64.7094 222.068 47.3759 233.856 31.9526C246.508 15.3111 261.76 6.64576 282.388 3.00516C300.064 -0.112086 316.706 1.62099 331.783 11.845C345.476 21.2053 353.967 33.8573 356.221 50.496C359.166 73.8953 352.408 92.962 336.287 109.255C324.848 120.866 310.809 128.147 294.691 131.439C290.012 132.305 285.331 132.479 280.826 133ZM322.077 62.9764C321.905 60.7228 321.905 58.9897 321.556 57.2567C318.439 40.0975 302.664 30.3912 286.2 34.2062C270.079 37.8439 259.68 48.0708 255.868 64.3634C252.748 77.882 259.334 91.575 271.812 97.1202C281.347 101.281 290.879 100.761 300.064 96.0821C313.757 88.9753 321.21 77.882 322.077 62.9764Z" fill="#00ACD7"/>
</svg>
