<svg width="118" height="94" viewBox="0 0 118 94" fill="none" xmlns="http://www.w3.org/2000/svg">
<path d="M75.6 26.3H76L75.8 26.1L89.8 12.1V11.8C78 1.4 61.7 -2.2 46.6 2.3C31.5 6.8 19.9 18.8 15.7 34C15.9 33.9 16.2 33.8 16.5 33.8C21.7 30.4 27.9 28.4 34.4 28.4C36.6 28.4 38.7 28.6 40.8 29C40.9 28.9 41 28.9 41.1 28.9C50.1 19 65.3 17.8 75.7 26.3H75.6Z" fill="#EA4535"/>
<path d="M103.1 33.8C100.8 25.3 96 17.6 89.3 11.7L75 25.9C81 30.8 84.5 38.2 84.3 45.9V48.4C101.2 48.4 101.2 73.6 84.3 73.6H58.9V93.6H58.8L58.9 93.8H84.3C98.9 93.9 111.8 84.5 116.1 70.7C120.4 56.9 115.1 41.9 103.1 33.8Z" fill="#557EBF"/>
<path d="M34 93.9H60.3V73.7H34C32.1 73.7 30.3 73.3 28.6 72.6L13.4 87.2V87.4C19.4 91.7 26.6 94 34.1 94L34 93.9Z" fill="#36A852"/>
<path d="M35.2 27.9C20.3 28 7.09999 37.2 2.29999 50.7C-2.50001 64.3 2.29999 79.2 14.1 88L29.7 73.1C21.1 69.4 19.1 58.6 25.7 52.3C32.3 45.9 43.5 47.9 47.4 56.1L63 41.2C56.4 32.9 46.1 28 35.2 28.1V27.9Z" fill="#F9BC15"/>
</svg>
