<svg width="264" height="87" viewBox="0 0 264 87" fill="none" xmlns="http://www.w3.org/2000/svg">
<path d="M91.7419 35.8063C96.0484 34.6563 99.2064 33.65 103.082 33.65C109.255 33.65 111.839 37.5313 111.839 42.9938V65.7062H105.235L104.661 66.2812V41.9875C104.661 40.2625 103.226 39.5438 101.79 39.5438C98.9194 39.5438 96.0484 40.2625 91.7419 41.7V65.5625H86V21H91.7419V35.8063Z" fill="#6762A6"/>
<path d="M258.258 58.95V33.9375H264V61.9688C256.823 66.425 250.076 67 246.2 67C240.027 67 238.161 63.2625 238.161 57.9437V33.9375H243.903V58.6625C243.903 60.3875 245.769 61.1063 247.205 61.1063C250.219 61.1063 253.952 60.3875 258.258 58.95Z" fill="#6762A6"/>
<path d="M224.381 33.9375H232.132C229.548 39.6875 226.103 43.8562 222.371 47.7375C226.965 53.4875 230.41 59.8125 233.424 65.5625H225.385C223.376 61.25 220.792 55.5 216.773 51.1875H213.758V65.5625H206.581V43.2812V21H213.758V46.875H216.342C219.787 44 222.515 38.25 224.381 33.9375Z" fill="#6762A6"/>
<path d="M157.774 65.5625H152.032V38.6813C157.774 35.5188 163.516 34.5125 167.823 34.225V39.975C164.952 40.1187 160.645 40.55 157.774 41.7V65.5625Z" fill="#6762A6"/>
<path fill-rule="evenodd" clip-rule="evenodd" d="M133.802 33.65C128.06 33.65 123.323 34.3687 119.877 35.6625C118.585 40.2625 118.011 45.15 118.011 50.6125C118.011 60.675 119.734 66.8563 131.218 66.8563C136.529 66.8563 140.979 65.275 144.568 63.55L143.419 58.375C139.974 59.6687 135.524 60.8187 131.648 60.8187C126.624 60.8187 125.045 59.525 124.758 50.9H146.29V47.7375C146.29 38.9687 143.132 33.65 133.802 33.65ZM125.444 40.2596C125.168 41.5004 124.896 42.7194 124.758 46.875H139.113C139.113 42.5625 138.252 39.5438 133.515 39.5438C131.361 39.5438 128.203 39.5438 125.476 40.1188C125.465 40.1658 125.455 40.2127 125.444 40.2596Z" fill="#6762A6"/>
<path fill-rule="evenodd" clip-rule="evenodd" d="M185.623 33.65C176.866 33.65 170.837 38.25 170.837 50.4688C170.837 61.9688 175.431 67 185.623 67C194.379 67 200.408 62.4 200.408 50.1813C200.408 38.6813 195.815 33.65 185.623 33.65ZM177.44 50.4688C177.44 59.2375 179.881 61.25 185.623 61.25C190.79 61.25 193.661 58.2313 193.805 50.1813C193.805 41.4125 191.365 39.4 185.623 39.4C180.311 39.4 177.44 42.4187 177.44 50.4688Z" fill="#6762A6"/>
<path d="M70 8.3C70 3.7 66.3 0 61.7 0H8.3C3.7 0 0 3.7 0 8.3V78.7C0 83.3 3.7 87 8.3 87H61.7C66.3 87 70 83.3 70 78.7V8.3ZM3 8.8C3 5.5 5.5 3 8.7 3H61.2C64.5 3 67 5.6 67 8.8V78.2C67 81.5 64.5 84.1 61.3 84.1H8.7C5.4 84.1 3 81.5 3 78.2V8.8ZM56.9 12H46.2C46.2 12 42.8 20 39.1 24H49.5C55.1 17 56.9 12 56.9 12ZM16 74.9L25.8 65L16 55.2V74.9ZM44 40.4V74.9L43.9 75H53V40.5C53 21.6 26 32.3 26 32.3V11.8L16.2 11.9C16.2 11.9 16.2 43.9 16.3 43.8C46.2 32.2 44 40.4 44 40.4Z" fill="#6762A6"/>
</svg>
