<svg width="325" height="154" viewBox="0 0 325 154" fill="none" xmlns="http://www.w3.org/2000/svg">
<path d="M36.3894 118.486C36.3894 118.486 30.5384 121.891 40.5603 123.042C52.7005 124.428 58.906 124.228 72.282 121.7C72.282 121.7 75.8082 123.904 80.7186 125.814C50.7227 138.665 12.8306 125.069 36.3894 118.486ZM32.7209 101.712C32.7209 101.712 26.1574 106.574 36.186 107.611C49.1565 108.949 59.396 109.059 77.1265 105.646C77.1265 105.646 79.5728 108.133 83.4263 109.489C47.1663 120.097 6.77869 110.325 32.7209 101.712Z" fill="#0074BD"/>
<path d="M63.6198 73.2574C71.0154 81.7704 61.6813 89.4243 61.6813 89.4243C61.6813 89.4243 80.4474 79.7371 71.8296 67.6024C63.7788 56.2909 57.6085 50.6734 91.0197 31.2963C91.0197 31.2963 38.5719 44.3913 63.6198 73.2574Z" fill="#E76F00"/>
<path d="M103.292 130.894C103.292 130.894 107.625 134.466 98.5207 137.227C81.2098 142.471 26.4637 144.053 11.2577 137.436C5.79497 135.057 16.0449 131.758 19.2678 131.064C22.63 130.336 24.5505 130.47 24.5505 130.47C18.4715 126.188 -14.7437 138.877 7.67977 142.517C68.8329 152.428 119.152 138.052 103.292 130.894ZM39.2061 84.332C39.2061 84.332 11.3606 90.9473 29.3464 93.3523C36.9435 94.368 52.0768 94.1344 66.1838 92.9517C77.709 91.984 89.2754 89.9155 89.2754 89.9155C89.2754 89.9155 85.2155 91.6579 82.2737 93.6642C53.9918 101.103 -0.63129 97.6372 15.0951 90.0332C28.3916 83.5998 39.2061 84.332 39.2061 84.332ZM89.1595 112.25C117.907 97.3167 104.614 82.9637 95.3366 84.8972C93.0684 85.3706 92.0496 85.7804 92.0496 85.7804C92.0496 85.7804 92.8959 84.4553 94.5045 83.887C112.859 77.4375 126.971 102.916 88.5863 113.008C88.5863 113.008 89.0264 112.608 89.1595 112.25Z" fill="#0074BD"/>
<path d="M71.8314 0C71.8314 0 87.7506 15.9261 56.7302 40.4112C31.8549 60.057 51.0573 71.2567 56.7197 84.0577C42.1991 70.9553 31.5486 59.4215 38.6933 48.6887C49.1849 32.9354 78.2526 25.2939 71.8314 0Z" fill="#E76F00"/>
<path d="M42.0334 152.733C69.6206 154.497 111.997 151.751 113 138.697C113 138.697 111.072 143.645 90.1969 147.571C66.6467 152.004 37.5975 151.489 20.3723 148.646C20.3723 148.646 23.9003 151.568 42.0334 152.733Z" fill="#0074BD"/>
<path d="M316.877 56.6291H315.526V55.9184H319.162V56.6291H317.816V60.1752H316.874L316.877 56.6291ZM324.135 56.8061H324.117L322.778 60.1752H322.159L320.828 56.8061H320.814V60.1752H319.921V55.9184H321.229L322.463 58.9308L323.699 55.9184H325V60.1752H324.135V56.8061ZM197.61 96.6296C193.43 100.038 189.01 101.955 185.038 101.955C179.386 101.955 176.319 98.7618 176.319 93.6489C176.319 88.1159 179.601 84.063 192.749 84.063H197.607L197.61 96.6296ZM209.152 108.875V70.972C209.152 61.2818 203.274 54.8891 189.118 54.8891C180.855 54.8891 173.611 56.8117 167.721 59.2568L169.416 65.969C174.055 64.3669 180.053 62.8812 185.94 62.8812C194.1 62.8812 197.607 65.969 197.607 72.3618V77.1515H193.53C173.714 77.1515 164.772 84.3807 164.772 95.2538C164.772 104.621 170.664 109.944 181.76 109.944C188.889 109.944 194.218 107.176 199.191 103.124L200.095 108.878L209.152 108.875ZM247.668 108.875H233.275L215.95 55.8615H228.521L239.275 88.4391L241.666 98.2262C247.095 84.0686 250.943 69.6959 252.867 55.8643H265.096C261.823 73.3147 255.925 92.4771 247.668 108.875ZM302.893 96.6296C298.698 100.038 294.274 101.955 290.318 101.955C284.66 101.955 281.597 98.7618 281.597 93.6489C281.597 88.1159 284.886 84.063 298.019 84.063H302.89L302.893 96.6296ZM314.44 108.875V70.972C314.44 61.2818 308.545 54.8891 294.401 54.8891C286.129 54.8891 278.888 56.8117 272.998 59.2568L274.696 65.969C279.334 64.3669 285.342 62.8812 291.228 62.8812C299.377 62.8812 302.893 65.969 302.893 72.3618V77.1515H298.816C278.994 77.1515 270.055 84.3807 270.055 95.2538C270.055 104.621 275.942 109.944 287.034 109.944C294.166 109.944 299.485 107.176 304.474 103.124L305.384 108.878L314.44 108.875ZM152.117 117.884C148.832 122.406 143.513 125.983 137.695 128L132 121.686C136.429 119.549 140.223 116.099 141.99 112.885C143.513 110.022 144.146 106.341 144.146 97.5341V37H156.412V96.7023C156.412 108.482 155.415 113.245 152.117 117.884Z" fill="#E76F00"/>
</svg>
