<svg width="325" height="154" viewBox="0 0 325 154" fill="none" xmlns="http://www.w3.org/2000/svg">
<g clip-path="url(#clip0_31_379)">
<path d="M36.3894 118.486C36.3894 118.486 30.5384 121.891 40.5603 123.042C52.7005 124.428 58.906 124.228 72.282 121.7C72.282 121.7 75.8082 123.904 80.7186 125.814C50.7227 138.665 12.8306 125.069 36.3894 118.486ZM32.7209 101.712C32.7209 101.712 26.1574 106.574 36.186 107.611C49.1565 108.949 59.396 109.059 77.1265 105.646C77.1265 105.646 79.5728 108.133 83.4263 109.489C47.1663 120.097 6.7787 110.325 32.7209 101.712Z" fill="#0074BD"/>
<path d="M63.6198 73.2574C71.0154 81.7704 61.6813 89.4243 61.6813 89.4243C61.6813 89.4243 80.4474 79.7371 71.8296 67.6024C63.7788 56.2909 57.6085 50.6734 91.0197 31.2963C91.0197 31.2963 38.5719 44.3913 63.6198 73.2574Z" fill="#E76F00"/>
<path d="M103.292 130.894C103.292 130.894 107.625 134.466 98.5207 137.227C81.2098 142.471 26.4637 144.053 11.2577 137.436C5.79497 135.057 16.0449 131.758 19.2678 131.064C22.63 130.336 24.5505 130.47 24.5505 130.47C18.4715 126.188 -14.7437 138.877 7.67977 142.517C68.8329 152.428 119.152 138.052 103.292 130.894ZM39.2061 84.332C39.2061 84.332 11.3606 90.9473 29.3464 93.3523C36.9435 94.368 52.0768 94.1344 66.1838 92.9517C77.709 91.984 89.2754 89.9155 89.2754 89.9155C89.2754 89.9155 85.2155 91.6579 82.2737 93.6642C53.9918 101.103 -0.631291 97.6372 15.0951 90.0332C28.3916 83.5998 39.2061 84.332 39.2061 84.332ZM89.1595 112.25C117.907 97.3167 104.614 82.9637 95.3366 84.8972C93.0684 85.3706 92.0496 85.7804 92.0496 85.7804C92.0496 85.7804 92.8959 84.4553 94.5045 83.887C112.859 77.4375 126.971 102.916 88.5863 113.008C88.5863 113.008 89.0264 112.608 89.1595 112.25Z" fill="#0074BD"/>
<path d="M71.8314 0C71.8314 0 87.7506 15.9261 56.7302 40.4112C31.8549 60.057 51.0573 71.2567 56.7197 84.0577C42.1991 70.9553 31.5486 59.4215 38.6933 48.6887C49.1849 32.9354 78.2526 25.2939 71.8314 0Z" fill="#E76F00"/>
<path d="M42.0334 152.733C69.6206 154.497 111.997 151.751 113 138.697C113 138.697 111.072 143.645 90.1969 147.571C66.6467 152.004 37.5975 151.489 20.3723 148.646C20.3723 148.646 23.9003 151.568 42.0334 152.733Z" fill="#0074BD"/>
<path d="M317.803 54.2564H316.606V53.6316H319.827V54.2564H318.635V57.3738H317.8L317.803 54.2564ZM324.234 54.412H324.218L323.031 57.3738H322.483L321.304 54.412H321.291V57.3738H320.5V53.6316H321.659L322.752 56.2798L323.847 53.6316H325V57.3738H324.234V54.412ZM212.131 89.4216C208.428 92.418 204.511 94.1033 200.992 94.1033C195.984 94.1033 193.267 91.2961 193.267 86.8012C193.267 81.9371 196.175 78.3741 207.824 78.3741H212.128L212.131 89.4216ZM222.357 100.187V66.8655C222.357 58.3466 217.149 52.7267 204.607 52.7267C197.286 52.7267 190.868 54.4169 185.649 56.5664L187.151 62.4673C191.261 61.0588 196.575 59.7527 201.791 59.7527C209.021 59.7527 212.128 62.4673 212.128 68.0873V72.298H208.516C190.959 72.298 183.036 78.6534 183.036 88.2121C183.036 96.447 188.257 101.127 198.088 101.127C204.404 101.127 209.126 98.6932 213.532 95.131L214.333 100.189L222.357 100.187ZM256.483 100.187H243.731L228.381 53.5815H239.519L249.047 82.2212L251.165 90.8252C255.975 78.379 259.385 65.7436 261.089 53.584H271.924C269.025 68.925 263.799 85.7711 256.483 100.187ZM305.413 89.4216C301.696 92.418 297.776 94.1033 294.271 94.1033C289.258 94.1033 286.544 91.2961 286.544 86.8012C286.544 81.9371 289.459 78.3741 301.095 78.3741H305.41L305.413 89.4216ZM315.644 100.187V66.8655C315.644 58.3466 310.421 52.7267 297.889 52.7267C290.56 52.7267 284.144 54.4169 278.926 56.5664L280.43 62.4673C284.539 61.0588 289.863 59.7527 295.078 59.7527C302.298 59.7527 305.413 62.4673 305.413 68.0873V72.298H301.801C284.238 72.298 276.318 78.6534 276.318 88.2121C276.318 96.447 281.534 101.127 291.362 101.127C297.681 101.127 302.393 98.6932 306.814 95.131L307.62 100.189L315.644 100.187ZM171.824 108.107C168.913 112.082 164.201 115.227 159.046 117L154 111.449C157.924 109.571 161.286 106.538 162.851 103.712C164.201 101.195 164.761 97.9591 164.761 90.2168V37H175.629V89.4855C175.629 99.8413 174.746 104.029 171.824 108.107Z" fill="#E76F00"/>
</g>
<defs>
<clipPath id="clip0_31_379">
<rect width="325" height="154" fill="white"/>
</clipPath>
</defs>
</svg>
