<svg width="431" height="250" viewBox="0 0 431 250" fill="none" xmlns="http://www.w3.org/2000/svg">
<path d="M59.992 193.034C59.992 193.034 50.499 198.558 66.759 200.425C86.456 202.674 96.524 202.35 118.226 198.248C118.226 198.248 123.947 201.824 131.914 204.923C83.247 225.773 21.769 203.714 59.992 193.034ZM54.04 165.818C54.04 165.818 43.391 173.707 59.662 175.389C80.706 177.56 97.319 177.739 126.086 172.201C126.086 172.201 130.055 176.236 136.307 178.436C77.477 195.647 11.95 179.792 54.04 165.818Z" fill="#0074BD"/>
<path d="M104.172 119.652C116.171 133.464 101.027 145.882 101.027 145.882C101.027 145.882 131.474 130.165 117.492 110.477C104.43 92.1247 94.419 83.0105 148.627 51.5721C148.627 51.5721 63.533 72.8182 104.172 119.652Z" fill="#E76F00"/>
<path d="M168.538 213.164C168.538 213.164 175.568 218.96 160.797 223.44C132.711 231.947 43.888 234.514 19.217 223.778C10.354 219.919 26.984 214.566 32.213 213.441C37.668 212.259 40.784 212.476 40.784 212.476C30.921 205.53 -22.969 226.117 13.412 232.022C112.63 248.103 194.27 224.778 168.538 213.164ZM64.562 137.62C64.562 137.62 19.384 148.353 48.565 152.255C60.891 153.903 85.444 153.524 108.332 151.605C127.031 150.035 145.797 146.679 145.797 146.679C145.797 146.679 139.21 149.506 134.437 152.761C88.551 164.83 -0.0723038 159.207 25.443 146.87C47.016 136.432 64.562 137.62 64.562 137.62ZM145.609 182.916C192.25 158.687 170.683 135.4 155.631 138.537C151.951 139.305 150.298 139.97 150.298 139.97C150.298 139.97 151.671 137.82 154.281 136.898C184.06 126.434 206.957 167.772 144.679 184.145C144.679 184.145 145.393 183.497 145.609 182.916Z" fill="#0074BD"/>
<path d="M117.495 0.79539C117.495 0.79539 143.323 26.6347 92.994 66.3606C52.635 98.235 83.79 116.406 92.977 137.175C69.418 115.917 52.138 97.204 63.73 79.7904C80.752 54.2315 127.913 41.8336 117.495 0.79539Z" fill="#E76F00"/>
<path d="M69.149 248.597C113.908 251.459 182.661 247.004 184.289 225.825C184.289 225.825 181.161 233.852 147.292 240.223C109.083 247.415 61.952 246.579 34.005 241.966C34.005 241.966 39.729 246.707 69.149 248.597Z" fill="#0074BD"/>
<path d="M421.825 116.218H420.299V115.413H424.406V116.218H422.885V120.231H421.821L421.825 116.218ZM430.023 116.418H430.003L428.49 120.231H427.791L426.288 116.418H426.272V120.231H425.263V115.413H426.741L428.135 118.823L429.531 115.413H431V120.231H430.023V116.418ZM287.109 161.493C282.387 165.351 277.394 167.52 272.908 167.52C266.524 167.52 263.06 163.906 263.06 158.119C263.06 151.856 266.767 147.269 281.618 147.269H287.106L287.109 161.493ZM300.145 175.353V132.452C300.145 121.484 293.506 114.248 277.516 114.248C268.183 114.248 260.001 116.424 253.349 119.192L255.263 126.789C260.502 124.976 267.278 123.294 273.927 123.294C283.144 123.294 287.106 126.789 287.106 134.025V139.446H282.5C260.117 139.446 250.017 147.629 250.017 159.936C250.017 170.538 256.673 176.563 269.206 176.563C277.258 176.563 283.277 173.43 288.895 168.844L289.916 175.356L300.145 175.353ZM343.651 175.353H327.393L307.824 115.349H322.024L334.171 152.222L336.872 163.3C343.004 147.275 347.35 131.007 349.523 115.352H363.336C359.64 135.103 352.977 156.793 343.651 175.353ZM406.029 161.493C401.291 165.351 396.294 167.52 391.826 167.52C385.435 167.52 381.975 163.906 381.975 158.119C381.975 151.856 385.69 147.269 400.525 147.269H406.026L406.029 161.493ZM419.072 175.353V132.452C419.072 121.484 412.413 114.248 396.437 114.248C387.094 114.248 378.915 116.424 372.262 119.192L374.18 126.789C379.419 124.976 386.205 123.294 392.854 123.294C402.058 123.294 406.029 126.789 406.029 134.025V139.446H401.424C379.034 139.446 368.938 147.629 368.938 159.936C368.938 170.538 375.587 176.563 388.116 176.563C396.172 176.563 402.18 173.43 407.815 168.844L408.843 175.356L419.072 175.353ZM235.723 185.55C232.013 190.668 226.004 194.717 219.433 197L213 189.854C218.003 187.434 222.288 183.53 224.284 179.892C226.004 176.652 226.719 172.485 226.719 162.517V94H240.574V161.575C240.574 174.908 239.448 180.3 235.723 185.55Z" fill="#E76F00"/>
</svg>
