<svg width="370" height="370" viewBox="0 0 370 370" fill="none" xmlns="http://www.w3.org/2000/svg">
<path d="M151.992 196.034C151.992 196.034 142.499 201.558 158.759 203.425C178.456 205.674 188.524 205.35 210.226 201.248C210.226 201.248 215.947 204.824 223.914 207.923C175.247 228.773 113.769 206.714 151.992 196.034ZM146.04 168.818C146.04 168.818 135.391 176.707 151.662 178.389C172.706 180.56 189.319 180.739 218.086 175.201C218.086 175.201 222.055 179.236 228.307 181.436C169.477 198.647 103.95 182.792 146.04 168.818Z" fill="#0074BD"/>
<path d="M196.172 122.652C208.171 136.464 193.027 148.882 193.027 148.882C193.027 148.882 223.474 133.165 209.492 113.477C196.43 95.1247 186.419 86.0105 240.627 54.5721C240.627 54.5721 155.533 75.8182 196.172 122.652Z" fill="#E76F00"/>
<path d="M260.538 216.164C260.538 216.164 267.568 221.96 252.797 226.44C224.711 234.947 135.888 237.514 111.217 226.778C102.354 222.919 118.984 217.566 124.213 216.441C129.668 215.259 132.784 215.476 132.784 215.476C122.921 208.53 69.031 229.117 105.412 235.022C204.63 251.103 286.27 227.778 260.538 216.164ZM156.562 140.62C156.562 140.62 111.384 151.353 140.565 155.255C152.891 156.903 177.444 156.524 200.332 154.605C219.031 153.035 237.797 149.679 237.797 149.679C237.797 149.679 231.21 152.506 226.437 155.761C180.551 167.83 91.9277 162.207 117.443 149.87C139.016 139.432 156.562 140.62 156.562 140.62ZM237.609 185.916C284.25 161.687 262.683 138.4 247.631 141.537C243.951 142.305 242.298 142.97 242.298 142.97C242.298 142.97 243.671 140.82 246.281 139.898C276.06 129.434 298.957 170.772 236.679 187.145C236.679 187.145 237.393 186.497 237.609 185.916Z" fill="#0074BD"/>
<path d="M209.495 3.79539C209.495 3.79539 235.323 29.6347 184.994 69.3606C144.635 101.235 175.79 119.406 184.977 140.175C161.418 118.917 144.138 100.204 155.73 82.7904C172.752 57.2315 219.913 44.8336 209.495 3.79539Z" fill="#E76F00"/>
<path d="M161.149 251.597C205.908 254.459 274.661 250.004 276.289 228.825C276.289 228.825 273.161 236.852 239.292 243.223C201.083 250.415 153.952 249.579 126.005 244.966C126.005 244.966 131.729 249.707 161.149 251.597Z" fill="#0074BD"/>
<path d="M274.222 289.586H272.858V288.823H276.529V289.586H275.17V293.393H274.219L274.222 289.586ZM281.55 289.776H281.532L280.18 293.393H279.555L278.211 289.776H278.197V293.393H277.295V288.823H278.616L279.862 292.057L281.11 288.823H282.423V293.393H281.55V289.776ZM153.813 332.529C149.593 336.188 145.13 338.246 141.12 338.246C135.414 338.246 132.318 334.818 132.318 329.329C132.318 323.389 135.631 319.038 148.905 319.038H153.81L153.813 332.529ZM165.465 345.675V304.984C165.465 294.581 159.531 287.718 145.239 287.718C136.897 287.718 129.584 289.782 123.638 292.407L125.349 299.613C130.032 297.893 136.088 296.298 142.031 296.298C150.269 296.298 153.81 299.613 153.81 306.476V311.618H149.694C129.688 311.618 120.66 319.379 120.66 331.052C120.66 341.108 126.609 346.823 137.811 346.823C145.008 346.823 150.388 343.851 155.409 339.501L156.322 345.678L165.465 345.675ZM204.35 345.675H189.819L172.328 288.762H185.02L195.877 323.736L198.291 334.243C203.772 319.044 207.657 303.614 209.599 288.765H221.945C218.641 307.499 212.686 328.071 204.35 345.675ZM260.104 332.529C255.869 336.188 251.403 338.246 247.409 338.246C241.697 338.246 238.604 334.818 238.604 329.329C238.604 323.389 241.925 319.038 255.184 319.038H260.101L260.104 332.529ZM271.762 345.675V304.984C271.762 294.581 265.81 287.718 251.531 287.718C243.18 287.718 235.869 289.782 229.923 292.407L231.637 299.613C236.32 297.893 242.385 296.298 248.328 296.298C256.555 296.298 260.104 299.613 260.104 306.476V311.618H255.988C235.976 311.618 226.952 319.379 226.952 331.052C226.952 341.108 232.895 346.823 244.093 346.823C251.294 346.823 256.664 343.851 261.7 339.501L262.619 345.678L271.762 345.675ZM107.884 355.347C104.568 360.201 99.1976 364.042 93.3238 366.207L87.5744 359.429C92.0462 357.134 95.8762 353.431 97.6598 349.98C99.1976 346.907 99.8364 342.955 99.8364 333.5V268.513H112.22V332.607C112.22 345.253 111.214 350.367 107.884 355.347Z" fill="#E76F00"/>
</svg>
