<svg width="160" height="160" viewBox="0 0 160 160" fill="none" xmlns="http://www.w3.org/2000/svg">
<g clip-path="url(#clip0_6_58)">
<path fill-rule="evenodd" clip-rule="evenodd" d="M79.865 119.1C115.263 167.355 149.905 105.631 149.854 68.5131C149.794 24.6271 105.313 0.0991211 79.836 0.0991211C38.944 0.0991211 0 33.8951 0 80.1351C0 131.531 44.64 160 79.836 160C71.8715 158.853 45.33 153.166 44.973 92.0331C44.7331 50.6861 58.461 34.1671 79.778 41.4341C80.2554 41.6112 103.292 50.6986 103.292 80.3851C103.292 109.945 79.865 119.1 79.865 119.1Z" fill="url(#paint0_linear_6_58)"/>
<path fill-rule="evenodd" clip-rule="evenodd" d="M79.823 41.4009C56.433 33.339 27.78 52.6169 27.78 91.2299C27.78 154.278 74.501 160 80.164 160C121.056 160 160 126.204 160 79.9639C160 28.5679 115.36 0.0988851 80.164 0.0988851C89.9121 -1.25111 132.705 10.6489 132.705 69.1359C132.705 107.277 100.752 128.041 79.97 119.169C79.4926 118.992 56.456 109.904 56.456 80.2179C56.456 50.6579 79.823 41.4009 79.823 41.4009Z" fill="url(#paint1_linear_6_58)"/>
</g>
<defs>
<linearGradient id="paint0_linear_6_58" x1="23.6627" y1="23.6632" x2="136.366" y2="136.402" gradientUnits="userSpaceOnUse">
<stop/>
<stop offset="1" stop-color="white"/>
</linearGradient>
<linearGradient id="paint1_linear_6_58" x1="136.382" y1="136.386" x2="23.6785" y2="23.6571" gradientUnits="userSpaceOnUse">
<stop/>
<stop offset="1" stop-color="white"/>
</linearGradient>
<clipPath id="clip0_6_58">
<rect width="160" height="160" fill="white"/>
</clipPath>
</defs>
</svg>
