<svg width="2500" height="2500" viewBox="0 0 2500 2500" fill="none" xmlns="http://www.w3.org/2000/svg">
<g clip-path="url(#clip0_6_62)">
<path fill-rule="evenodd" clip-rule="evenodd" d="M1438.75 672.5L1436.25 0H1061.25L1063.75 672.5L1251.25 930L1438.75 672.5ZM1063.75 1825V2500H1438.75V1825L1251.25 1567.5L1063.75 1825Z" fill="white"/>
<path fill-rule="evenodd" clip-rule="evenodd" d="M1438.75 1825L1833.75 2370L2136.25 2150L1741.25 1605L1438.75 1507.5V1825ZM1063.75 672.5L666.25 127.5L363.75 347.5L758.75 892.5L1063.75 990V672.5Z" fill="#00F2E6"/>
<path fill-rule="evenodd" clip-rule="evenodd" d="M758.75 892.5L118.75 685L3.75 1040L643.75 1250L946.25 1150L758.75 892.5ZM1553.75 1347.5L1741.25 1605L2381.25 1812.5L2496.25 1457.5L1856.25 1250L1553.75 1347.5Z" fill="#00B9F1"/>
<path fill-rule="evenodd" clip-rule="evenodd" d="M1856.25 1250L2496.25 1040L2381.25 685L1741.25 892.5L1553.75 1150L1856.25 1250ZM643.75 1250L3.75 1457.5L118.75 1812.5L758.75 1605L946.25 1347.5L643.75 1250Z" fill="#D63AFF"/>
<path fill-rule="evenodd" clip-rule="evenodd" d="M758.75 1605L363.75 2150L666.25 2370L1063.75 1825V1507.5L758.75 1605ZM1741.25 892.5L2136.25 347.5L1833.75 127.5L1438.75 672.5V990L1741.25 892.5Z" fill="#FB015B"/>
</g>
<defs>
<clipPath id="clip0_6_62">
<rect width="2500" height="2500" fill="white"/>
</clipPath>
</defs>
</svg>
