<svg width="133" height="44" viewBox="0 0 133 44" fill="none" xmlns="http://www.w3.org/2000/svg">
<path d="M0 0.599991H22.2L0 22.5V0.599991Z" fill="url(#paint0_linear_31_378)"/>
<path d="M0 43.4L42.8 0.599991H21.6L0 21.9V43.4Z" fill="url(#paint1_linear_31_378)"/>
<path d="M42.4 43.4L21.2 22.2L0 43.4H42.4Z" fill="url(#paint2_linear_31_378)"/>
<path d="M55 33.6V10.8H60.1V20.6L69.4 10.8H75.2L65.9 20.6L75.2 33.6H69.4L62.6 24.1L60.1 26.6V33.6H55Z" fill="black"/>
<path d="M82.5 16.2C77.4 16.2 73.3 20.1 73.3 24.9C73.3 29.7 77.4 33.6 82.5 33.6C87.6 33.6 91.7 29.7 91.7 24.9C91.7 20.1 87.6 16.2 82.5 16.2ZM82.5 29.8C79.8 29.8 77.6 27.6 77.6 24.9C77.6 22.2 79.8 20 82.5 20C85.2 20 87.4 22.2 87.4 24.9C87.4 27.6 85.2 29.8 82.5 29.8Z" fill="black"/>
<path d="M92.9 11.8H98V16.3H102V20.5H98V28.7C98 28.7 99.5 30.8 102 28.7V33.2C102 33.2 98 35.2 94.5 33.2C94.5 33.2 92.9 31.6 92.9 29.7V20.5H90.9V16.1L92.9 16.2V11.8ZM103.5 9.89999H108.4V33.6H103.5V9.89999ZM110.2 9.89999H115.2V14.1H110.2V9.89999ZM110.2 16.3H115.2V33.6H110.2V16.3ZM116.9 16.3H122V19C122 19 126.7 11.8 132.4 19L132.9 20.5V33.6H127.9V23C127.9 23 125.1 17.7 122 23V33.6H116.9V16.3Z" fill="black"/>
<defs>
<linearGradient id="paint0_linear_31_378" x1="-4.046" y1="17.126" x2="13.694" y2="-2.25101" gradientUnits="userSpaceOnUse">
<stop stop-color="#1C93C1"/>
<stop offset="0.163" stop-color="#2391C0"/>
<stop offset="0.404" stop-color="#378BBE"/>
<stop offset="0.696" stop-color="#587EB9"/>
<stop offset="0.995" stop-color="#7F6CB1"/>
</linearGradient>
<linearGradient id="paint1_linear_31_378" x1="1.085" y1="32.46" x2="30.957" y2="1.28499" gradientUnits="userSpaceOnUse">
<stop stop-color="#C757A7"/>
<stop offset="0.046" stop-color="#CA5A9E"/>
<stop offset="0.241" stop-color="#D66779"/>
<stop offset="0.428" stop-color="#E17357"/>
<stop offset="0.6" stop-color="#E97C3A"/>
<stop offset="0.756" stop-color="#EF8324"/>
<stop offset="0.888" stop-color="#F28817"/>
<stop offset="0.982" stop-color="#F48912"/>
</linearGradient>
<linearGradient id="paint2_linear_31_378" x1="14.38" y1="50.496" x2="31.487" y2="32.781" gradientUnits="userSpaceOnUse">
<stop stop-color="#1C93C1"/>
<stop offset="0.216" stop-color="#2D8EBF"/>
<stop offset="0.64" stop-color="#587EB9"/>
<stop offset="0.995" stop-color="#7F6CB1"/>
</linearGradient>
</defs>
</svg>
