<svg width="2418" height="2500" viewBox="0 0 2418 2500" fill="none" xmlns="http://www.w3.org/2000/svg">
<g clip-path="url(#clip0_19_226)">
<path d="M2412.34 570.387C2413.23 573.7 2413.69 577.115 2413.7 580.547V1113.9C2413.7 1120.75 2411.89 1127.47 2408.46 1133.39C2405.03 1139.32 2400.1 1144.23 2394.16 1147.64L1946.51 1405.37V1916.21C1946.51 1930.12 1939.12 1942.95 1927.06 1949.95L992.624 2487.87C990.485 2489.09 988.152 2489.87 985.819 2490.69C984.944 2490.98 984.117 2491.52 983.194 2491.76C976.661 2493.48 969.795 2493.48 963.263 2491.76C962.194 2491.47 961.222 2490.89 960.201 2490.5C958.062 2489.72 955.826 2489.04 953.784 2487.87L19.5413 1949.95C13.6063 1946.54 8.67498 1941.63 5.24425 1935.7C1.81351 1929.78 0.0046415 1923.06 -6.10352e-05 1916.21L-6.10352e-05 316.155C-6.10352e-05 312.655 0.486043 309.252 1.36103 305.947C1.65269 304.829 2.33324 303.808 2.72212 302.69C3.45128 300.648 4.13182 298.558 5.20125 296.662C5.93041 295.398 6.99983 294.377 7.87482 293.211C8.99286 291.655 10.0137 290.051 11.3262 288.69C12.4442 287.572 13.9025 286.745 15.1664 285.773C16.5761 284.607 17.8399 283.343 19.4441 282.419L486.638 13.4579C492.553 10.0542 499.258 8.26282 506.083 8.26282C512.907 8.26282 519.612 10.0542 525.527 13.4579L992.673 282.419H992.77C994.325 283.391 995.638 284.607 997.047 285.725C998.311 286.697 999.721 287.572 1000.84 288.641C1002.2 290.051 1003.17 291.655 1004.34 293.211C1005.17 294.377 1006.28 295.398 1006.96 296.662C1008.08 298.606 1008.71 300.648 1009.49 302.69C1009.88 303.808 1010.56 304.829 1010.85 305.995C1011.75 309.308 1012.21 312.723 1012.21 316.155V1315.54L1401.49 1091.39V580.498C1401.49 577.095 1401.97 573.644 1402.85 570.387C1403.19 569.22 1403.82 568.2 1404.21 567.082C1404.99 565.04 1405.67 562.95 1406.74 561.054C1407.46 559.79 1408.53 558.769 1409.36 557.603C1410.53 556.047 1411.5 554.443 1412.86 553.082C1413.98 551.964 1415.39 551.137 1416.65 550.165C1418.11 548.998 1419.37 547.735 1420.93 546.811L1888.17 277.85C1894.09 274.441 1900.79 272.647 1907.62 272.647C1914.44 272.647 1921.15 274.441 1927.06 277.85L2394.21 546.811C2395.86 547.783 2397.12 548.999 2398.58 550.117C2399.8 551.089 2401.21 551.964 2402.32 553.033C2403.69 554.443 2404.66 556.047 2405.82 557.603C2406.7 558.769 2407.77 559.79 2408.45 561.054C2409.57 562.95 2410.2 565.04 2410.98 567.082C2411.42 568.2 2412.05 569.22 2412.34 570.387ZM2335.83 1091.39V647.872L2172.35 741.982L1946.51 872.014V1315.54L2335.87 1091.39H2335.83ZM1868.68 1893.71V1449.89L1646.53 1576.77L1012.17 1938.82V2386.81L1868.68 1893.71ZM77.8738 383.48V1893.71L934.291 2386.76V1938.87L486.882 1685.66L486.736 1685.56L486.541 1685.46C485.034 1684.59 483.77 1683.32 482.361 1682.25C481.146 1681.28 479.736 1680.5 478.666 1679.43L478.569 1679.29C477.305 1678.07 476.43 1676.56 475.361 1675.2C474.389 1673.89 473.222 1672.77 472.444 1671.41L472.396 1671.27C471.521 1669.81 470.986 1668.06 470.354 1666.41C469.722 1664.95 468.896 1663.59 468.507 1662.03C468.021 1660.18 467.923 1658.19 467.729 1656.29C467.535 1654.84 467.146 1653.38 467.146 1651.92V607.623L241.35 477.541L77.8738 383.48ZM506.131 92.1095L116.908 316.155L506.034 540.2L895.209 316.106L506.034 92.1095H506.131ZM708.545 1490.34L934.34 1360.35V383.48L770.863 477.59L545.02 607.623V1584.5L708.545 1490.34ZM1907.62 356.501L1518.44 580.547L1907.62 804.592L2296.74 580.498L1907.62 356.501ZM1868.68 872.014L1642.84 741.982L1479.36 647.872V1091.39L1705.15 1221.38L1868.68 1315.54V872.014ZM973.18 1871.49L1544.01 1545.61L1829.35 1382.76L1440.47 1158.86L992.721 1416.65L584.637 1651.58L973.18 1871.49Z" fill="#FF2D20"/>
</g>
<defs>
<clipPath id="clip0_19_226">
<rect width="2418" height="2500" fill="white"/>
</clipPath>
</defs>
</svg>
