<svg width="126" height="124" viewBox="0 0 126 124" fill="none" xmlns="http://www.w3.org/2000/svg">
<path d="M115.948 95.807C109.085 95.62 103.844 96.259 99.363 98.148C98.09 98.685 96.058 98.7 95.85 100.295C96.55 101.028 96.659 102.124 97.215 103.026C98.285 104.756 100.091 107.078 101.703 108.294C103.465 109.624 105.28 111.045 107.168 112.196C110.526 114.243 114.275 115.413 117.508 117.464C119.414 118.674 121.307 120.197 123.166 121.561C124.086 122.236 124.703 123.285 125.898 123.708V123.514C125.27 122.714 125.108 121.616 124.532 120.781L121.995 118.244C119.515 114.952 116.366 112.06 113.019 109.659C110.35 107.743 104.377 105.155 103.264 102.05L103.069 101.855C104.961 101.641 107.176 100.957 108.923 100.488C111.857 99.702 114.479 99.905 117.508 99.123L121.605 97.952V97.172C120.074 95.601 118.982 93.521 117.313 92.099C112.943 88.379 108.175 84.662 103.265 81.562C100.541 79.844 97.176 78.727 94.289 77.27C93.318 76.779 91.612 76.524 90.971 75.708C89.454 73.776 88.629 71.326 87.46 69.075C85.011 64.358 82.606 59.207 80.436 54.244C78.956 50.86 77.989 47.524 76.143 44.488C67.283 29.921 57.747 21.13 42.974 12.488C39.83 10.65 36.045 9.925 32.045 8.975C29.9 8.846 27.753 8.715 25.607 8.584C24.296 8.038 22.934 6.435 21.705 5.657C16.811 2.565 4.25699 -4.16 0.632993 4.682C-1.65601 10.263 4.05399 15.707 6.09499 18.536C7.52899 20.518 9.36399 22.743 10.388 24.974C11.062 26.441 11.178 27.912 11.755 29.463C13.172 33.285 14.407 37.443 16.242 40.974C17.169 42.762 18.191 44.644 19.364 46.242C20.082 47.223 21.315 47.655 21.509 49.169C20.305 50.855 20.236 53.473 19.559 55.609C16.509 65.224 17.66 77.176 22.096 84.292C23.456 86.478 26.663 91.163 31.071 89.365C34.927 87.795 34.066 82.927 35.169 78.633C35.418 77.66 35.265 76.944 35.754 76.292V76.487L39.267 83.511C41.867 87.698 46.479 92.073 50.389 95.025C52.416 96.556 54.012 99.202 56.633 100.098V99.902H56.438C55.93 99.111 55.135 98.783 54.487 98.147C52.96 96.65 51.262 94.789 50 93.074C46.444 88.247 43.302 82.964 40.439 77.465C39.071 74.838 37.882 71.942 36.73 69.269C36.286 68.239 36.292 66.68 35.366 66.147C34.103 68.105 32.244 69.689 31.268 72.001C29.707 75.697 29.506 80.205 28.927 84.879C28.585 85.001 28.737 84.917 28.536 85.073C25.818 84.418 24.864 81.621 23.853 79.22C21.299 73.15 20.824 63.378 23.072 56.391C23.654 54.582 26.282 48.89 25.218 47.219C24.71 45.553 23.034 44.589 22.097 43.316C20.936 41.742 19.778 39.67 18.973 37.852C16.883 33.121 15.907 27.808 13.706 23.024C12.653 20.737 10.874 18.422 9.41299 16.39C7.79599 14.137 5.98399 12.478 4.72999 9.755C4.28399 8.787 3.67899 7.237 4.33899 6.242C4.54899 5.571 4.84699 5.291 5.50999 5.072C6.64199 4.199 9.79399 5.362 10.972 5.851C14.101 7.151 16.713 8.389 19.364 10.145C20.635 10.989 21.923 12.62 23.461 13.072H25.217C27.964 13.703 31.041 13.267 33.608 14.047C38.144 15.425 42.209 17.57 45.9 19.901C57.146 27.003 66.342 37.111 72.632 49.17C73.644 51.112 74.082 52.964 74.973 55.024C76.771 59.177 79.036 63.45 80.825 67.512C82.611 71.564 84.351 75.653 86.875 79.025C88.202 80.797 93.326 81.748 95.656 82.733C97.288 83.422 99.963 84.142 101.51 85.073C104.463 86.855 107.325 88.976 110.096 90.928C111.479 91.903 115.736 94.044 115.948 95.807ZM28.729 21.466C27.298 21.439 26.286 21.622 25.216 21.855V22.05H25.411C26.094 23.452 27.299 24.356 28.142 25.563C28.792 26.93 29.443 28.295 30.094 29.66L30.288 29.467C31.497 28.614 32.05 27.253 32.043 25.173C31.559 24.664 31.488 24.026 31.068 23.418C30.512 22.607 29.433 22.146 28.729 21.466Z" fill="#00618A"/>
</svg>
