<svg width="394" height="68" viewBox="0 0 394 68" fill="none" xmlns="http://www.w3.org/2000/svg">
<g clip-path="url(#clip0_10_121)">
<path d="M252.88 0.0284424H311.952V10.9316H288.519V68.2918H276.801V10.9316H252.88V0.0284424Z" fill="#191B1C"/>
<path d="M155.728 0.0284424V10.9316H108.378V28.4715H146.457V39.3746H108.378V57.3886H155.728V68.2918H96.6613V10.9316H96.6564V0.0284424H155.728Z" fill="#191B1C"/>
<path d="M185.225 0.0569458H169.891L224.813 68.3203H240.191L212.727 34.2121L240.147 0.109026L224.813 0.132723L205.05 24.6777L185.225 0.0569458Z" fill="#191B1C"/>
<path d="M200.96 48.8178L193.281 39.2703L169.847 68.3723H185.225L200.96 48.8178Z" fill="#F4F2EE"/>
<path fill-rule="evenodd" clip-rule="evenodd" d="M97.0718 68.2918L42.0763 0H27.4304V68.2633H39.1471V14.5912L82.3526 68.2918H97.0718Z" fill="#191B1C"/>
<path d="M314.586 67.8748C313.728 67.8748 312.998 67.5776 312.387 66.9831C311.775 66.3886 311.473 65.6688 311.481 64.8161C311.473 63.9869 311.775 63.2749 312.387 62.6804C312.998 62.0859 313.728 61.7886 314.586 61.7886C315.411 61.7886 316.133 62.0859 316.745 62.6804C317.364 63.2749 317.673 63.9869 317.682 64.8161C317.673 65.3793 317.53 65.8956 317.245 66.3571C316.951 66.8266 316.578 67.1943 316.109 67.4603C315.649 67.7341 315.141 67.8748 314.586 67.8748Z" fill="#F4F2EE"/>
<path d="M334.584 39.1175H339.776V59.1209C339.768 60.9594 339.37 62.5318 338.593 63.8539C337.807 65.176 336.719 66.185 335.322 66.897C333.933 67.601 332.305 67.9609 330.456 67.9609C328.764 67.9609 327.248 67.6558 325.899 67.0613C324.549 66.4667 323.477 65.5749 322.692 64.4014C321.897 63.228 321.508 61.7651 321.508 60.0128H326.709C326.716 60.7795 326.891 61.4443 327.224 61.9997C327.557 62.5552 328.018 62.9776 328.606 63.2749C329.201 63.5722 329.884 63.7208 330.654 63.7208C331.488 63.7208 332.202 63.5487 332.781 63.1966C333.361 62.8524 333.806 62.3361 334.116 61.6477C334.417 60.9672 334.576 60.1223 334.584 59.1209V39.1175Z" fill="#F4F2EE"/>
<path d="M361.139 46.9405C361.013 45.7279 360.457 44.7814 359.488 44.1086C358.511 43.428 357.249 43.0916 355.701 43.0916C354.614 43.0916 353.677 43.2559 352.899 43.5767C352.121 43.9052 351.518 44.3432 351.104 44.8987C350.692 45.4541 350.485 46.0878 350.469 46.7998C350.469 47.3943 350.612 47.9106 350.89 48.3409C351.168 48.7789 351.541 49.1466 352.025 49.4439C352.501 49.749 353.033 49.9993 353.613 50.2027C354.201 50.4061 354.788 50.5782 355.375 50.7191L358.083 51.384C359.171 51.6343 360.227 51.9708 361.235 52.401C362.243 52.8234 363.156 53.3632 363.957 54.0125C364.759 54.6619 365.395 55.4441 365.863 56.3594C366.331 57.2747 366.57 58.3464 366.57 59.5825C366.57 61.2487 366.141 62.7117 365.275 63.979C364.41 65.2384 363.164 66.2242 361.528 66.9361C359.9 67.6402 357.932 68 355.614 68C353.375 68 351.422 67.6559 349.779 66.9674C348.128 66.2868 346.841 65.2854 345.912 63.9711C344.984 62.6569 344.483 61.0532 344.412 59.1678H349.557C349.628 60.1535 349.946 60.975 350.485 61.6399C351.033 62.2971 351.747 62.7821 352.621 63.1106C353.502 63.4314 354.486 63.5957 355.574 63.5957C356.71 63.5957 357.71 63.4235 358.575 63.0871C359.432 62.7508 360.107 62.2815 360.592 61.6713C361.084 61.0688 361.33 60.357 361.338 59.5434C361.33 58.8002 361.107 58.1821 360.679 57.6971C360.242 57.2121 359.639 56.8053 358.868 56.4768C358.091 56.1482 357.186 55.8509 356.154 55.5928L352.867 54.7635C350.493 54.1612 348.612 53.2459 347.238 52.0177C345.857 50.7895 345.174 49.1623 345.174 47.1205C345.174 45.4464 345.634 43.9757 346.564 42.7162C347.484 41.4567 348.747 40.4788 350.343 39.7825C351.946 39.0785 353.756 38.7342 355.772 38.7342C357.821 38.7342 359.615 39.0785 361.163 39.7825C362.711 40.4788 363.926 41.4489 364.807 42.6848C365.688 43.9209 366.149 45.3368 366.173 46.9405H361.139Z" fill="#F4F2EE"/>
</g>
<defs>
<clipPath id="clip0_10_121">
<rect width="394" height="68" fill="white"/>
</clipPath>
</defs>
</svg>
