<svg width="340" height="68" viewBox="0 0 340 68" fill="none" xmlns="http://www.w3.org/2000/svg">
<path d="M225.88 0.0284424H284.952V10.9316H261.519V68.2918H249.801V10.9316H225.88V0.0284424Z" fill="#191B1C"/>
<path d="M128.728 0.0284424V10.9316H81.378V28.4715H119.457V39.3746H81.378V57.3886H128.728V68.2918H69.6613V10.9316H69.6564V0.0284424H128.728Z" fill="#191B1C"/>
<path d="M158.225 0.0569458H142.891L197.813 68.3203H213.191L185.727 34.2121L213.147 0.109026L197.813 0.132723L178.05 24.6777L158.225 0.0569458Z" fill="#191B1C"/>
<path d="M173.96 48.8178L166.281 39.2703L142.847 68.3723H158.225L173.96 48.8178Z" fill="#F4F2EE"/>
<path fill-rule="evenodd" clip-rule="evenodd" d="M70.0718 68.2918L15.0763 0H0.43042V68.2633H12.1471V14.5912L55.3526 68.2918H70.0718Z" fill="#191B1C"/>
<path d="M287.586 67.8748C286.728 67.8748 285.998 67.5776 285.387 66.9831C284.775 66.3886 284.473 65.6688 284.481 64.8161C284.473 63.9869 284.775 63.2749 285.387 62.6804C285.998 62.0859 286.728 61.7886 287.586 61.7886C288.411 61.7886 289.133 62.0859 289.745 62.6804C290.364 63.2749 290.673 63.9869 290.682 64.8161C290.673 65.3793 290.53 65.8956 290.245 66.3571C289.951 66.8266 289.578 67.1943 289.109 67.4603C288.649 67.7341 288.141 67.8748 287.586 67.8748Z" fill="#F4F2EE"/>
<path d="M307.584 39.1176H312.776V59.121C312.768 60.9595 312.37 62.5319 311.593 63.854C310.807 65.1761 309.719 66.1851 308.322 66.8971C306.933 67.6011 305.305 67.961 303.456 67.961C301.764 67.961 300.248 67.6559 298.899 67.0614C297.549 66.4668 296.477 65.575 295.692 64.4015C294.897 63.2281 294.508 61.7652 294.508 60.0129H299.709C299.716 60.7796 299.891 61.4444 300.224 61.9998C300.557 62.5553 301.018 62.9777 301.606 63.275C302.201 63.5723 302.884 63.7209 303.654 63.7209C304.488 63.7209 305.202 63.5488 305.781 63.1967C306.361 62.8525 306.806 62.3362 307.116 61.6478C307.417 60.9673 307.576 60.1224 307.584 59.121V39.1176Z" fill="#F4F2EE"/>
<path d="M334.139 46.9405C334.013 45.7279 333.457 44.7814 332.488 44.1086C331.511 43.428 330.249 43.0916 328.701 43.0916C327.614 43.0916 326.677 43.2559 325.899 43.5767C325.121 43.9052 324.518 44.3432 324.104 44.8987C323.692 45.4541 323.485 46.0878 323.469 46.7998C323.469 47.3943 323.612 47.9106 323.89 48.3409C324.168 48.7789 324.541 49.1466 325.025 49.4439C325.501 49.749 326.033 49.9993 326.613 50.2027C327.201 50.4061 327.788 50.5782 328.375 50.7191L331.083 51.384C332.171 51.6343 333.227 51.9708 334.235 52.401C335.243 52.8234 336.156 53.3632 336.957 54.0125C337.759 54.6619 338.395 55.4441 338.863 56.3594C339.331 57.2747 339.57 58.3464 339.57 59.5825C339.57 61.2487 339.141 62.7117 338.275 63.979C337.41 65.2384 336.164 66.2242 334.528 66.9361C332.9 67.6402 330.932 68 328.614 68C326.375 68 324.422 67.6559 322.779 66.9674C321.128 66.2868 319.841 65.2854 318.912 63.9711C317.984 62.6569 317.483 61.0532 317.412 59.1678H322.557C322.628 60.1535 322.946 60.975 323.485 61.6399C324.033 62.2971 324.747 62.7821 325.621 63.1106C326.502 63.4314 327.486 63.5957 328.574 63.5957C329.71 63.5957 330.71 63.4235 331.575 63.0871C332.432 62.7508 333.107 62.2815 333.592 61.6713C334.084 61.0688 334.33 60.357 334.338 59.5434C334.33 58.8002 334.107 58.1821 333.679 57.6971C333.242 57.2121 332.639 56.8053 331.868 56.4768C331.091 56.1482 330.186 55.8509 329.154 55.5928L325.867 54.7635C323.493 54.1612 321.612 53.2459 320.238 52.0177C318.857 50.7895 318.174 49.1623 318.174 47.1205C318.174 45.4464 318.634 43.9757 319.564 42.7162C320.484 41.4567 321.747 40.4788 323.343 39.7825C324.946 39.0785 326.756 38.7342 328.772 38.7342C330.821 38.7342 332.615 39.0785 334.163 39.7825C335.711 40.4788 336.926 41.4489 337.807 42.6848C338.688 43.9209 339.149 45.3368 339.173 46.9405H334.139Z" fill="#F4F2EE"/>
</svg>
