<svg width="188" height="52" viewBox="0 0 188 52" fill="none" xmlns="http://www.w3.org/2000/svg">
<path d="M172.633 51.1235C172.18 51.1235 171.73 51.0095 171.333 50.7875L167.192 48.4355C166.573 48.104 166.875 47.9855 167.08 47.918C167.905 47.642 168.072 47.5775 168.952 47.1005C169.044 47.051 169.164 47.069 169.259 47.123L172.439 48.9365C172.498 48.9668 172.564 48.9827 172.631 48.9827C172.698 48.9827 172.764 48.9668 172.823 48.9365L185.225 42.065C185.283 42.032 185.331 41.9848 185.366 41.9282C185.398 41.8717 185.416 41.8076 185.416 41.7425V28.0025C185.416 27.9365 185.398 27.8716 185.364 27.8141C185.331 27.7565 185.283 27.7084 185.223 27.674L172.827 20.8085C172.767 20.7775 172.702 20.7613 172.636 20.7613C172.569 20.7613 172.503 20.7775 172.444 20.8085L160.048 27.6755C159.989 27.7096 159.941 27.7576 159.906 27.8147C159.872 27.872 159.855 27.9365 159.853 28.0025V41.7425C159.853 41.8745 159.93 41.999 160.048 42.0605L163.445 43.946C165.289 44.8295 166.419 43.7885 166.419 42.7415V29.174C166.419 28.9835 166.58 28.832 166.778 28.832H168.352C168.547 28.832 168.709 28.9835 168.709 29.174V42.7415C168.709 45.1025 167.37 46.457 165.038 46.457C164.32 46.457 163.756 46.457 162.181 45.713L158.93 43.916C158.534 43.6946 158.206 43.3777 157.978 42.9965C157.75 42.6154 157.63 42.1835 157.63 41.744V28.004C157.63 27.1115 158.125 26.279 158.93 25.835L171.331 18.9545C171.731 18.7456 172.178 18.6362 172.634 18.6362C173.089 18.6362 173.536 18.7456 173.936 18.9545L186.338 25.835C187.141 26.2805 187.639 27.113 187.639 28.004V41.744C187.639 42.1835 187.517 42.6154 187.289 42.9964C187.061 43.3774 186.733 43.6945 186.338 43.916L173.936 50.789C173.541 51.0095 173.091 51.1249 172.633 51.1235ZM176.466 41.657C171.036 41.657 169.9 39.2645 169.9 37.259C169.9 37.1678 169.939 37.0804 170.006 37.016C170.073 36.9517 170.164 36.9155 170.259 36.9155H171.863C171.948 36.9152 172.031 36.9443 172.097 36.9977C172.163 37.0511 172.205 37.1252 172.219 37.2065C172.459 38.774 173.183 39.5645 176.466 39.5645C179.077 39.5645 180.189 38.9975 180.189 37.6655C180.189 36.8975 179.873 36.329 175.814 35.9465C172.42 35.624 170.322 34.9055 170.322 32.297C170.322 29.8955 172.431 28.4615 175.966 28.4615C179.939 28.4615 181.905 29.786 182.153 32.627C182.158 32.6749 182.15 32.7229 182.134 32.7683C182.119 32.8136 182.092 32.8555 182.059 32.891C182.025 32.9251 181.984 32.9524 181.939 32.9713C181.895 32.99 181.845 32.9999 181.797 33.0005H180.186C180.105 33.0007 180.027 32.9741 179.963 32.9252C179.898 32.8763 179.855 32.8082 179.838 32.732C179.45 31.082 178.513 30.5555 175.964 30.5555C173.113 30.5555 172.781 31.511 172.781 32.2235C172.781 33.089 173.172 33.341 177.023 33.83C180.834 34.3145 182.645 34.9985 182.645 37.571C182.647 40.1705 180.394 41.657 176.466 41.657Z" fill="#83CD29"/>
<path d="M147.097 32.6449C147.586 32.3704 147.887 31.8695 147.887 31.325V27.7939C147.887 27.2509 147.587 26.7499 147.097 26.4754L134.028 19.1914C133.787 19.0566 133.512 18.9852 133.232 18.9847C132.953 18.9841 132.678 19.0545 132.436 19.1884L119.286 26.4769C119.045 26.611 118.845 26.8035 118.705 27.0351C118.566 27.2667 118.492 27.5295 118.492 27.7969V42.371C118.492 42.9185 118.798 43.4254 119.295 43.6969L132.362 50.8445C132.844 51.11 133.434 51.1115 133.92 50.8535L141.823 46.6355C141.947 46.5699 142.049 46.4742 142.121 46.358C142.193 46.2419 142.231 46.1094 142.232 45.9744C142.233 45.8393 142.197 45.7064 142.126 45.5894C142.056 45.4722 141.955 45.3752 141.833 45.308L128.602 38.018C128.48 37.9517 128.379 37.8555 128.309 37.7397C128.239 37.6238 128.202 37.492 128.202 37.3579V32.789C128.202 32.516 128.353 32.2654 128.598 32.1304L132.719 29.8504C132.839 29.7834 132.976 29.7482 133.115 29.7482C133.254 29.7482 133.391 29.7834 133.511 29.8504L137.631 32.1304C137.752 32.1969 137.853 32.2928 137.923 32.4084C137.992 32.5241 138.03 32.6553 138.03 32.789V36.3829C138.029 36.5173 138.065 36.6495 138.135 36.766C138.205 36.8826 138.305 36.9794 138.427 37.0464C138.548 37.1135 138.685 37.1485 138.825 37.1479C138.965 37.1473 139.103 37.1111 139.223 37.043L147.097 32.6449Z" fill="#404137"/>
<path d="M133.037 31.9611C133.084 31.936 133.136 31.923 133.19 31.923C133.243 31.923 133.296 31.936 133.342 31.9611L135.866 33.3606C135.959 33.4131 136.017 33.5106 136.017 33.6141V36.4116C136.017 36.5166 135.959 36.6126 135.866 36.6651L133.342 38.0631C133.296 38.0889 133.243 38.1025 133.19 38.1025C133.136 38.1025 133.084 38.0889 133.037 38.0631L130.516 36.6651C130.469 36.6396 130.43 36.6027 130.403 36.5581C130.376 36.5136 130.362 36.463 130.362 36.4116V33.6141C130.362 33.5106 130.42 33.4131 130.516 33.3606L133.037 31.9611Z" fill="#83CD29"/>
<path d="M98.8172 37.781C98.8172 37.916 98.7422 38.042 98.6187 38.111L94.1031 40.61C94.043 40.6439 93.9745 40.6618 93.9047 40.6618C93.835 40.6618 93.7664 40.6439 93.7062 40.61L89.1906 38.111C89.1305 38.0774 89.0805 38.0293 89.0456 37.9714C89.0108 37.9135 88.9923 37.8479 88.9922 37.781V32.774C88.9922 32.639 89.0687 32.5115 89.1906 32.4425L93.7062 29.9405C93.7664 29.9059 93.8353 29.8876 93.9055 29.8876C93.9756 29.8876 94.0445 29.9059 94.1047 29.9405L98.6219 32.4425C98.6817 32.4767 98.7314 32.5253 98.7659 32.5834C98.8003 32.6414 98.8186 32.7071 98.8187 32.774L98.8172 37.781ZM100.037 0.707005C99.9164 0.643555 99.7803 0.611155 99.6423 0.613255C99.5044 0.615355 99.3694 0.651657 99.2503 0.718707C99.1314 0.785757 99.0325 0.881304 98.9634 0.996054C98.8944 1.11065 98.8575 1.24056 98.8563 1.37301V20.7455C98.8559 20.839 98.8302 20.9306 98.7817 21.0116C98.7333 21.0926 98.6636 21.1601 98.5797 21.2075C98.495 21.254 98.3992 21.2783 98.3016 21.2783C98.2041 21.2783 98.1081 21.254 98.0234 21.2075L94.7297 19.385C94.4886 19.2517 94.2152 19.1815 93.9367 19.1815C93.6584 19.1815 93.385 19.2517 93.1437 19.385L79.9906 26.672C79.7491 26.806 79.5483 26.9986 79.4087 27.2305C79.2691 27.4625 79.1955 27.7256 79.1953 27.9935V42.572C79.1953 43.1165 79.4984 43.619 79.9891 43.8935L93.1422 51.185C93.6328 51.458 94.2391 51.458 94.7313 51.185L107.887 43.8935C108.129 43.7591 108.329 43.5664 108.468 43.3345C108.607 43.1026 108.681 42.8396 108.681 42.572V6.2315C108.681 5.6795 108.369 5.1695 107.867 4.8995L100.037 0.707005Z" fill="#404137"/>
<path d="M53.7467 19.1105C53.9879 18.9764 54.2618 18.9059 54.5404 18.9059C54.8192 18.9059 55.0931 18.9764 55.3342 19.1105L68.4873 26.396C68.9779 26.669 69.2811 27.173 69.2811 27.7175V42.3005C69.2811 42.845 68.9779 43.349 68.4873 43.622L55.3358 50.9135C55.094 51.047 54.8201 51.1172 54.5412 51.1172C54.2625 51.1172 53.9884 51.047 53.7467 50.9135L40.5983 43.622C40.3572 43.4876 40.157 43.2948 40.0176 43.0629C39.8784 42.831 39.8048 42.5681 39.8045 42.3005V27.716C39.8045 27.173 40.1076 26.669 40.5983 26.396L53.7467 19.1105Z" fill="#83CD29"/>
<path d="M29.8281 27.596C29.8281 27.047 29.5281 26.543 29.0344 26.2715L15.886 19.007C15.6652 18.8841 15.4161 18.8156 15.161 18.8075H15.025C14.77 18.8157 14.521 18.8843 14.3 19.007L1.15005 26.2715C0.908127 26.4059 0.707299 26.5991 0.567705 26.8316C0.428112 27.0641 0.354674 27.3276 0.354736 27.596L0.382862 47.156C0.382862 47.429 0.531299 47.6825 0.779736 47.8145C0.898689 47.8838 1.03514 47.9204 1.17427 47.9204C1.31338 47.9204 1.44983 47.8838 1.5688 47.8145L9.3813 43.5185C9.87502 43.2365 10.1766 42.74 10.1766 42.1955V33.0575C10.1766 32.5115 10.4766 32.009 10.9688 31.736L14.2969 29.897C14.5375 29.7612 14.8117 29.6903 15.0906 29.6915C15.3625 29.6915 15.6406 29.7575 15.8828 29.897L19.2078 31.736C19.7 32.009 20.0031 32.5115 20.0031 33.0575V42.1955C20.0031 42.74 20.3078 43.2395 20.7985 43.5185L28.611 47.8145C28.7314 47.8806 28.8678 47.9151 29.0066 47.9148C29.1453 47.9145 29.2816 47.8793 29.4017 47.8127C29.5219 47.7461 29.6217 47.6504 29.6914 47.5352C29.761 47.42 29.798 47.2892 29.7985 47.156L29.8281 27.596Z" fill="#404137"/>
</svg>
