<svg width="128" height="98" viewBox="0 0 128 98" fill="none" xmlns="http://www.w3.org/2000/svg">
<path d="M39.267 93.97L38.983 93.403C38.416 92.268 38.416 91.133 38.7 89.714H8.05899L53.454 9.14L72.463 43.47L78.704 38.93L59.695 4.6C59.412 4.033 57.142 0.628998 53.454 0.628998C51.751 0.628998 49.198 1.196 47.212 4.884L1.24999 86.31C0.965991 87.162 -1.02001 90.85 0.681991 93.97C1.81699 95.673 3.51999 97.375 7.49199 97.375H46.077C42.105 97.375 40.119 95.672 39.267 93.97Z" fill="#00C58E"/>
<path d="M126.65 86.59L89.767 20.201C89.2 19.634 87.214 15.945 83.525 15.945C81.823 15.945 79.27 16.796 77.284 20.201L72.461 28.145V43.466L83.526 24.457L120.125 89.711H106.223C106.456 91.0618 106.257 92.4515 105.655 93.683L105.371 93.967C103.669 97.087 99.413 97.371 98.846 97.371H120.408C121.259 97.371 125.231 97.088 127.217 93.967C128.068 92.548 128.636 89.995 126.65 86.59Z" fill="#108775"/>
<path d="M106.51 93.97V93.686L106.794 93.119C107.077 91.984 107.361 90.849 107.077 89.714L105.943 86.31L77.005 35.809L72.749 28.149H72.465L68.209 35.809L39.271 86.309L38.137 89.714C37.8621 91.1567 38.061 92.6496 38.704 93.97C39.839 95.672 41.541 97.375 45.513 97.375H99.419C100.27 97.375 104.526 97.091 106.512 93.97H106.51ZM72.464 43.469L98.85 89.714H46.079L72.464 43.469Z" fill="#2F495E"/>
</svg>
