<svg width="122" height="123" viewBox="0 0 122 123" fill="none" xmlns="http://www.w3.org/2000/svg">
<path d="M60.877 122.392C28.206 122.392 0.507002 94.798 0.250002 61.923C0.193952 53.992 1.71243 46.1288 4.71744 38.7889C7.72246 31.4491 12.1542 24.7786 17.756 19.164C23.3948 13.3903 30.1242 8.79424 37.5537 5.64247C44.9832 2.4907 52.9647 0.846057 61.035 0.804C68.9603 0.797284 76.8086 2.35863 84.1279 5.39811C91.4472 8.43759 98.0928 12.8951 103.682 18.514C109.364 24.0535 113.894 30.6626 117.01 37.9605C120.126 45.2585 121.767 53.1009 121.839 61.036C121.99 94.64 94.975 122.057 61.37 122.399H60.877V122.392ZM61.067 3.986C53.418 4.03136 45.8542 5.59518 38.8143 8.58674C31.7744 11.5783 25.3987 15.938 20.057 21.413C14.7444 26.7251 10.5389 33.0388 7.68421 39.9881C4.82956 46.9375 3.38254 54.3843 3.427 61.897C3.663 93.056 29.922 119.183 60.857 119.183H61.271C93.134 118.893 118.775 92.917 118.656 61.055C118.585 53.5382 117.027 46.1098 114.072 39.1978C111.117 32.2859 106.824 26.027 101.439 20.782C96.1565 15.4496 89.8678 11.2191 82.9377 8.33585C76.0076 5.45263 68.573 3.9741 61.067 3.986Z" fill="#0B5A9D"/>
<path d="M13.89 79.383V43.865H22.53V47.048H17.947V76.266H22.531V79.449L13.89 79.383ZM43.213 61.272C43.213 67.75 39.28 71.439 33.953 71.439C28.626 71.439 25.076 67.283 25.076 61.608C25.076 55.669 28.798 51.487 34.243 51.487C39.688 51.487 43.213 55.847 43.213 61.272ZM28.798 61.562C28.798 65.494 30.771 68.612 34.158 68.612C37.545 68.612 39.491 65.429 39.491 61.417C39.491 57.774 37.695 54.334 34.157 54.334C30.619 54.334 28.765 57.662 28.765 61.641L28.798 61.562ZM46.205 52.158C47.895 51.868 49.612 51.724 51.328 51.73C53.2565 51.5424 55.1949 51.9706 56.865 52.953C57.4916 53.3204 58.0082 53.8491 58.361 54.484C58.7138 55.119 58.89 55.8369 58.871 56.563C58.8488 57.5067 58.529 58.4192 57.9574 59.1704C57.3858 59.9215 56.5916 60.473 55.688 60.746C57.957 61.206 59.588 63.206 59.588 65.521C59.5998 66.2818 59.4384 67.0353 59.116 67.7245C58.7936 68.4137 58.3186 69.0205 57.727 69.499C56.359 70.709 54.084 71.295 50.565 71.295C49.1187 71.3015 47.6734 71.2157 46.238 71.038L46.205 52.158ZM49.704 59.78H51.499C53.932 59.78 55.3 58.635 55.3 56.998C55.3 55.36 53.932 54.354 51.69 54.354C51.0181 54.3333 50.3459 54.3819 49.684 54.499L49.704 59.78ZM49.704 68.658C50.322 68.723 50.947 68.75 51.564 68.736C53.827 68.736 55.826 67.875 55.826 65.554C55.826 63.233 53.886 62.371 51.453 62.371H49.703L49.704 68.658ZM66.54 51.901H70.057V64.455C70.057 69.789 67.48 71.571 63.692 71.571C62.68 71.5647 61.6759 71.3934 60.719 71.064L61.147 68.23C61.85 68.454 62.587 68.565 63.33 68.579C65.336 68.579 66.513 67.658 66.513 64.317L66.54 51.901ZM80.067 62.357V64.791H72.747V62.357H80.067ZM97.158 70.63C95.573 71.262 93.877 71.551 92.18 71.492C86.051 71.492 82.329 67.658 82.329 61.785C82.046 56.432 86.156 51.862 91.509 51.579C91.884 51.559 92.266 51.559 92.64 51.585C94.2757 51.5171 95.9063 51.8114 97.415 52.447L96.632 55.248C95.4342 54.7407 94.1448 54.4854 92.844 54.498C88.912 54.498 86.084 56.965 86.084 61.614C86.084 65.849 88.583 68.585 92.818 68.585C94.1311 68.6051 95.4349 68.3613 96.652 67.868L97.158 70.63ZM108.2 43.766V79.376H99.559V76.194H104.142V46.949H99.559V43.766H108.2Z" fill="#0B5A9D"/>
</svg>
