<svg width="620" height="607" viewBox="0 0 620 607" fill="none" xmlns="http://www.w3.org/2000/svg">
<path fill-rule="evenodd" clip-rule="evenodd" d="M561.662 0.309265H57.5334C25.8922 0.309265 0.00390625 26.1975 0.00390625 57.8387V193.406H139.832V171.252C139.835 163 143.115 155.088 148.951 149.254C154.786 143.42 162.7 140.143 170.952 140.143H448.238C452.324 140.142 456.369 140.946 460.144 142.51C463.919 144.073 467.349 146.364 470.239 149.253C473.128 152.141 475.42 155.571 476.983 159.346C478.547 163.12 479.352 167.166 479.352 171.252V193.411H619.18V57.8387C619.18 26.1975 593.292 0.309265 561.651 0.309265L561.662 0.309265ZM479.363 435.349C479.363 443.602 476.084 451.518 470.248 457.354C464.412 463.189 456.497 466.468 448.243 466.468H170.957C162.704 466.467 154.79 463.188 148.954 457.352C143.118 451.516 139.839 443.602 139.838 435.349V413.2H0.00918948V548.762C0.00918948 580.408 25.8974 606.291 57.5386 606.291H561.656C593.297 606.291 619.186 580.408 619.186 548.762V413.2H479.357L479.363 435.349Z" fill="#ED1844"/>
<path fill-rule="evenodd" clip-rule="evenodd" d="M0.0145264 373.217H139.843V233.389H0.0145264V373.217ZM479.357 373.217H619.186V233.389H479.357V373.217Z" fill="#ED1844"/>
</svg>
