<svg width="26" height="17" viewBox="0 0 26 17" fill="none" xmlns="http://www.w3.org/2000/svg">
<path d="M8.122 16.241C3.639 16.241 0 12.612 0 8.127C0 3.64199 3.638 0 8.122 0H17.561C22.046 0 25.682 3.64299 25.682 8.127C25.682 12.611 22.046 16.241 17.561 16.241H8.122ZM17.351 13.376C18.041 13.3771 18.7245 13.2421 19.3623 12.9788C20.0001 12.7155 20.5798 12.329 21.0681 11.8415C21.5565 11.354 21.9439 10.775 22.2083 10.1376C22.4727 9.5003 22.6089 8.81703 22.609 8.127C22.6093 6.73195 22.0556 5.39388 21.0696 4.40697C20.0836 3.42005 18.7461 2.86506 17.351 2.864H8.33C6.9353 2.86559 5.59828 3.42081 4.61273 4.40767C3.62718 5.39453 3.07374 6.7323 3.074 8.127C3.07413 8.81687 3.21022 9.4999 3.47449 10.1372C3.73877 10.7744 4.12604 11.3533 4.61417 11.8408C5.1023 12.3283 5.68172 12.7148 6.3193 12.9782C6.95689 13.2416 7.64014 13.3768 8.33 13.376H17.351Z" fill="#EA1B22"/>
</svg>
