<svg width="128" height="18" viewBox="0 0 128 18" fill="none" xmlns="http://www.w3.org/2000/svg">
<path d="M55.387 11.469H63.72L59.313 4.37901L51.225 17.198H47.544L57.382 1.8C57.5982 1.48886 57.8871 1.23528 58.2236 1.06133C58.5602 0.88739 58.9342 0.798361 59.313 0.802003C60.078 0.802003 60.791 1.165 61.205 1.774L71.081 17.198H67.4L65.664 14.333H57.226L55.387 11.469ZM93.622 14.333V0.958005H90.499V15.643C90.499 16.045 90.655 16.434 90.953 16.732C91.251 17.03 91.653 17.198 92.094 17.198H106.338L108.179 14.333H93.622ZM41.945 11.936C44.978 11.936 47.441 9.487 47.441 6.454C47.441 3.421 44.979 0.958005 41.945 0.958005H28.28V17.199H31.403V3.822H41.738C43.19 3.822 44.356 5.002 44.356 6.453C44.356 7.904 43.189 9.084 41.738 9.084L32.932 9.071L42.256 17.198H46.794L40.52 11.935L41.945 11.936ZM9.05901 17.198C4.57601 17.198 0.937012 13.569 0.937012 9.084C0.937012 4.599 4.57501 0.957005 9.05901 0.957005H18.498C22.983 0.957005 26.619 4.6 26.619 9.084C26.619 13.568 22.983 17.198 18.498 17.198H9.05901ZM18.288 14.333C18.978 14.3341 19.6615 14.1991 20.2993 13.9358C20.9371 13.6725 21.5168 13.286 22.0051 12.7985C22.4935 12.311 22.8809 11.732 23.1453 11.0946C23.4097 10.4573 23.5459 9.77403 23.546 9.084C23.5463 7.68895 22.9926 6.35089 22.0066 5.36398C21.0206 4.37706 19.6831 3.82206 18.288 3.821H9.26701C7.87231 3.82259 6.53529 4.37782 5.54974 5.36468C4.56419 6.35154 4.01075 7.6893 4.01101 9.084C4.01114 9.77387 4.14723 10.4569 4.4115 11.0942C4.67578 11.7314 5.06305 12.3103 5.55118 12.7978C6.03931 13.2853 6.61873 13.6718 7.25631 13.9352C7.8939 14.1986 8.57715 14.3338 9.26701 14.333H18.288ZM77.602 17.198C73.118 17.198 69.476 13.569 69.476 9.084C69.476 4.599 73.118 0.957005 77.602 0.957005H88.814L86.985 3.821H77.81C76.4143 3.8218 75.076 4.37652 74.089 5.36332C73.102 6.35012 72.5471 7.68832 72.546 9.084C72.546 11.987 74.906 14.333 77.81 14.333H89.073L87.233 17.198H77.602ZM115.799 14.333C114.655 14.3335 113.542 13.9602 112.629 13.2699C111.717 12.5797 111.055 11.6102 110.744 10.509H124.094L125.934 7.645H110.744C111.057 6.54519 111.72 5.57718 112.632 4.88729C113.544 4.1974 114.655 3.82311 115.799 3.821H124.962L126.816 0.957005H115.591C111.107 0.957005 107.465 4.6 107.465 9.084C107.465 13.568 111.107 17.198 115.591 17.198H125.222L127.063 14.333H115.799Z" fill="#EA1B22"/>
</svg>
