<svg width="174" height="44" viewBox="0 0 174 44" fill="none" xmlns="http://www.w3.org/2000/svg">
<path d="M31.709 31.8601C31.9888 29.531 31.9051 29.1893 33.6397 29.5664L34.0801 29.6054C35.4142 29.666 37.1594 29.3907 38.1841 28.9144C40.391 27.8907 41.6994 26.1804 39.5235 26.6296C34.5595 27.6534 34.2182 25.9732 34.2182 25.9732C39.4602 18.196 41.6516 8.32378 39.7603 5.90708C34.602 -0.684399 25.6726 2.43252 25.523 2.51352L25.4752 2.52282C24.4943 2.31877 23.3971 2.19749 22.1639 2.17757C19.9176 2.14084 18.2131 2.7667 16.9202 3.7471C16.9202 3.7471 0.990794 -2.81561 1.73173 12.0002C1.88931 15.1521 6.24955 35.8494 11.4499 29.5978C13.3505 27.3122 15.1874 25.3792 15.1874 25.3792C16.0996 25.9852 17.1915 26.2941 18.337 26.183L18.4256 26.1078C18.3981 26.3915 18.4101 26.669 18.4614 26.9975C17.1216 28.4948 17.5155 28.7578 14.8368 29.3088C12.1271 29.8674 13.7192 30.8615 14.758 31.1213C16.0186 31.4369 18.9333 31.8835 20.9034 29.1256L20.825 29.4403C21.3508 29.8608 21.315 32.462 21.3894 34.3206C21.4637 36.1792 21.5885 37.9133 21.9674 38.9367C22.3463 39.9591 22.7933 42.5932 26.3135 41.8389C29.2551 41.2078 31.5041 40.3004 31.709 31.8601Z" fill="black"/>
<path d="M25.1671 43.6759C23.61 43.6759 22.5964 43.0739 21.9802 42.4923C21.0507 41.6155 20.682 40.4855 20.4621 39.8105L20.3669 39.5285C19.9234 38.3312 19.7733 36.6077 19.6844 34.3884C19.6713 34.0415 19.6602 33.6944 19.6512 33.3473C19.6436 33.0813 19.6344 32.7476 19.6211 32.3975C19.0601 32.665 18.4647 32.8533 17.8519 32.9569C16.7542 33.1446 15.5742 33.0835 14.3437 32.7759C13.4757 32.559 12.5737 32.1093 12.0598 31.4144C10.5615 32.7268 9.13232 32.5484 8.35376 32.289C6.98031 31.8309 5.75115 30.5442 4.59547 28.3541C3.77264 26.7948 2.97637 24.7623 2.22879 22.3142C0.927485 18.0504 0.100672 13.5596 0.0271967 12.0857C-0.203851 7.47047 1.03814 4.1703 3.71864 2.27722C7.94787 -0.710016 14.3548 1.04629 16.6905 1.8439C18.2596 0.898017 20.1057 0.43725 22.1923 0.470889C23.313 0.489036 24.3797 0.58774 25.3707 0.763903C26.4042 0.43902 28.4465 -0.0275008 30.7839 0.00126945C35.0906 0.0526133 38.6595 1.73103 41.1041 4.85503C42.8484 7.08406 41.9862 11.7643 41.3165 14.3563C40.3751 18.0013 38.7245 21.8791 36.6973 25.2545C37.248 25.2585 38.0451 25.1921 39.1791 24.9584C41.4161 24.4963 42.0699 25.6958 42.2473 26.2327C42.9586 28.3869 39.8669 30.0144 38.9025 30.4619C37.6667 31.036 35.6523 31.3852 34.0022 31.3095L33.9301 31.3046L33.4968 31.2666L33.4538 31.6278L33.4127 31.9814C33.302 36.2589 32.6907 38.9677 31.4333 40.7581C30.1156 42.6344 28.2836 43.1607 26.6702 43.5063C26.1766 43.6157 25.6727 43.6728 25.1671 43.6759ZM21.8908 28.1072C22.896 28.9114 22.9841 30.4247 23.0624 33.2531C23.0722 33.6058 23.0815 33.94 23.0939 34.252C23.1319 35.1966 23.2209 37.4088 23.567 38.3436C23.6162 38.4755 23.66 38.6101 23.706 38.7517C24.092 39.9344 24.2858 40.5271 25.955 40.1694C27.3567 39.8693 28.0769 39.5998 28.6408 38.7969C29.4605 37.6292 29.9191 35.282 30.0032 31.8181L31.7081 31.8597L30.0147 31.6565L30.0642 31.2338C30.2267 29.8405 30.3435 28.8331 31.2752 28.1674C32.0224 27.6331 32.8744 27.6849 33.553 27.8071C32.8076 27.2445 32.6013 26.5832 32.5464 26.3123L32.4044 25.6121L32.8036 25.019C35.1052 21.6038 37.0036 17.4064 38.0119 13.5029C39.0476 9.49191 38.7316 7.36158 38.416 6.9588C34.235 1.61595 26.9836 3.82151 26.2267 4.07248L26.0984 4.14153L25.4566 4.26148L25.1277 4.19331C24.2217 4.0052 23.2151 3.90119 22.1356 3.88348C20.4399 3.85515 19.0722 4.25572 17.9506 5.10688L17.1725 5.69689L16.2691 5.32465C14.3402 4.5359 8.67288 2.95 5.68255 5.06793C4.02272 6.24353 3.26673 8.54736 3.43492 11.9153C3.49025 13.0271 4.24625 17.236 5.49178 21.3187C7.21401 26.9603 8.77911 28.8339 9.43242 29.0522C9.54617 29.0907 9.84228 28.8605 10.1366 28.5073C12.0514 26.2043 13.8723 24.2847 13.9489 24.2037L14.9364 23.1649L16.1301 23.958C16.6113 24.2781 17.142 24.4591 17.6873 24.4932L20.5346 22.065L20.1221 26.2743C20.1128 26.369 20.1084 26.4974 20.1456 26.7364L20.2695 27.5344L19.7326 28.1355L19.6707 28.205L21.2349 28.9273L21.8908 28.1072Z" fill="black"/>
<path d="M39.5248 26.6296C34.5604 27.6534 34.2191 25.9727 34.2191 25.9727C39.4606 18.1955 41.6516 8.32287 39.7607 5.90661C34.602 -0.684876 25.6726 2.4325 25.5234 2.51349L25.4752 2.5219C24.4943 2.31874 23.3971 2.19746 22.1635 2.17755C19.9172 2.14081 18.2131 2.76623 16.9202 3.74663C16.9202 3.74663 0.990359 -2.81564 1.73131 12.0001C1.88888 15.152 6.24912 35.8493 11.4495 29.5978C13.3501 27.3121 15.1865 25.3792 15.1865 25.3792C16.0987 25.9851 17.1907 26.2941 18.3357 26.183L18.4247 26.1077C18.3973 26.3914 18.4097 26.669 18.4601 26.9974C17.1207 28.4948 17.5138 28.7577 14.8359 29.3087C12.1258 29.8673 13.7179 30.8615 14.7576 31.1213C16.0177 31.4369 18.9328 31.8835 20.9025 29.1255L20.8237 29.4402C21.3486 29.8607 21.7173 32.1752 21.6554 34.2732C21.5934 36.3712 21.5523 37.8115 21.9661 38.9366C22.3799 40.0613 22.792 42.5931 26.3126 41.8389C29.2543 41.2081 30.7787 39.5744 30.9911 36.8497C31.1416 34.9123 31.482 35.1987 31.5037 33.4663L31.7772 32.6461C32.0919 30.0196 31.8272 29.1724 33.6397 29.5668L34.0802 29.6053C35.4142 29.6664 37.1599 29.3906 38.1846 28.9144C40.3915 27.8902 41.7003 26.1803 39.5248 26.6296Z" fill="#336791"/>
<path d="M25.345 42.6242C22.41 42.6246 21.4805 40.3004 21.0998 39.3501C20.5435 37.9576 20.4231 32.5524 20.547 28.1195C20.5553 27.9715 20.6209 27.8326 20.73 27.7323C20.8391 27.6319 20.9831 27.5781 21.1313 27.5823C21.2795 27.5864 21.4201 27.6482 21.5235 27.7545C21.6268 27.8608 21.6846 28.0032 21.6845 28.1514C21.5416 33.2641 21.7447 37.897 22.1564 38.9274C22.7995 40.535 23.7746 41.9412 26.5326 41.3507C29.1506 40.7891 30.131 39.7963 30.5675 37.2654C30.903 35.3227 31.5651 29.7966 31.6466 28.706C31.6578 28.5555 31.7283 28.4157 31.8426 28.3173C31.9569 28.2188 32.1056 28.1698 32.2561 28.181C32.4065 28.1922 32.5463 28.2628 32.6448 28.3771C32.7432 28.4914 32.7922 28.6401 32.781 28.7905C32.696 29.9254 32.0365 35.4413 31.6882 37.4588C31.1725 40.4487 29.8398 41.8049 26.7707 42.463C26.3024 42.5666 25.8245 42.6206 25.345 42.6242ZM9.43239 31.2732C9.17589 31.2729 8.92116 31.2309 8.67817 31.1488C6.7718 30.5128 4.95618 27.4082 3.28131 21.9206C2.00656 17.7432 1.19878 13.3834 1.12796 11.9666C0.91772 7.76614 1.99992 4.79395 4.34359 3.13324C8.98047 -0.15232 16.7812 2.97656 17.111 3.11111C17.2493 3.16901 17.3592 3.27926 17.4167 3.4178C17.4742 3.55639 17.4746 3.71201 17.4179 3.85091C17.3611 3.98976 17.2518 4.10059 17.1138 4.15928C16.9757 4.21793 16.8201 4.21965 16.6807 4.16411C16.6055 4.13312 9.12521 1.13703 4.99911 4.06319C2.99493 5.48444 2.07473 8.12422 2.26372 11.9103C2.32348 13.1037 3.07814 17.3594 4.36926 21.5891C5.86443 26.4876 7.56631 29.5793 9.03802 30.0697C9.26862 30.1472 9.9715 30.3813 10.9771 29.173C12.868 26.8979 14.6053 25.0823 14.6225 25.0641C14.7283 24.9616 14.8697 24.9041 15.017 24.9037C15.1643 24.9033 15.306 24.96 15.4124 25.0619C15.5188 25.1638 15.5815 25.3029 15.5874 25.4501C15.5933 25.5973 15.5419 25.741 15.444 25.8511C15.4268 25.8688 13.7161 27.6574 11.8517 29.9002C10.9687 30.9616 10.122 31.2732 9.43239 31.2732ZM34.1837 26.4801C34.0804 26.4802 33.979 26.4522 33.8904 26.3991C33.8019 26.3459 33.7295 26.2696 33.681 26.1785C33.6325 26.0872 33.6098 25.9845 33.6153 25.8814C33.6208 25.7782 33.6543 25.6786 33.7123 25.593C39.0109 17.7304 40.8708 8.23045 39.2778 6.19529C37.2727 3.6334 34.4413 2.29492 30.8627 2.21835C28.2127 2.16081 26.1063 2.83757 25.7624 2.95575L25.6761 2.99072C25.33 3.09961 25.0644 2.90972 24.9643 2.68797C24.9073 2.56092 24.8988 2.41741 24.9401 2.28446C24.9816 2.15151 25.0701 2.03827 25.1892 1.96605L25.3423 1.9032C25.927 1.68941 28.0658 1.04717 30.7149 1.07771C34.675 1.11932 37.9459 2.64681 40.1741 5.49373C41.2284 6.84107 41.2306 9.94516 40.1807 14.0097C39.1105 18.1535 37.0965 22.6076 34.6559 26.2291C34.6039 26.3065 34.5336 26.3699 34.4512 26.4137C34.3689 26.4575 34.2769 26.4803 34.1837 26.4801ZM34.4541 30.1197C33.5494 30.1197 32.7385 29.9927 32.253 29.7014C31.7537 29.4027 31.6585 28.9959 31.6461 28.7803C31.5098 26.3884 32.8297 25.9719 33.5029 25.782C33.4091 25.6404 33.2754 25.4735 33.1378 25.3014C32.7452 24.8109 32.2078 24.139 31.7935 23.1343C31.7289 22.9776 31.5253 22.6124 31.2898 22.1902C30.0138 19.9023 27.3589 15.141 29.0643 12.7026C29.854 11.5744 31.4253 11.1305 33.7411 11.3783C33.0599 9.30292 29.8155 2.81013 22.1183 2.68399C19.803 2.64504 17.9041 3.35721 16.4776 4.79749C13.2832 8.02375 13.3991 13.861 13.4005 13.919C13.4024 13.9936 13.3896 14.0679 13.3629 14.1377C13.3361 14.2074 13.2958 14.2711 13.2444 14.3253C13.193 14.3795 13.1314 14.423 13.0632 14.4534C12.9949 14.4837 12.9214 14.5004 12.8468 14.5023C12.7721 14.5043 12.6978 14.4915 12.6281 14.4647C12.5583 14.4379 12.4946 14.3977 12.4404 14.3463C12.3862 14.2949 12.3427 14.2333 12.3123 14.1651C12.282 14.0968 12.2653 14.0233 12.2634 13.9486C12.2563 13.6897 12.1368 7.56431 15.6693 3.99679C17.3225 2.32723 19.4984 1.50307 22.1369 1.54601C27.0624 1.62701 30.232 4.13047 32.0241 6.21697C33.977 8.49027 34.9348 10.9981 35.0136 11.8347C35.0724 12.457 34.6258 12.5818 34.5356 12.6L34.3306 12.6048C32.0578 12.241 30.5998 12.4933 29.9969 13.3551C28.6996 15.2087 31.211 19.7124 32.2835 21.636C32.5575 22.1265 32.7549 22.481 32.8452 22.7001C33.1975 23.5543 33.657 24.1284 34.0261 24.5896C34.3505 24.9955 34.632 25.3469 34.733 25.7604C34.7794 25.8422 35.4425 26.8222 39.3752 26.0104C40.3609 25.8073 40.9518 25.9812 41.1324 26.5274C41.4878 27.6025 39.4938 28.856 38.3899 29.369C37.3993 29.8289 35.8205 30.1197 34.4541 30.1197ZM32.7806 28.6865C32.9049 28.8127 33.529 29.0295 34.8219 28.9742C35.971 28.9246 37.1833 28.6746 37.911 28.3373C38.8414 27.9053 39.4619 27.4224 39.7837 27.0926L39.6049 27.1254C37.0904 27.6446 35.3119 27.5755 34.3191 26.9196C34.2523 26.8756 34.188 26.8278 34.1266 26.7766C34.019 26.8191 33.9194 26.847 33.8486 26.8669C33.2852 27.0249 32.7027 27.1882 32.7806 28.6865ZM16.5378 31.8641C15.9132 31.8641 15.2559 31.7795 14.5845 31.6109C13.8891 31.437 12.7162 30.9133 12.7343 30.0533C12.7542 29.088 14.1578 28.7985 14.6867 28.6896C16.5953 28.2966 16.7197 28.139 17.3163 27.3817C17.4903 27.1608 17.7067 26.8859 18.0015 26.5562C18.4397 26.0662 18.9186 25.8175 19.425 25.8175C19.7773 25.8175 20.0668 25.9374 20.2575 26.0162C20.8666 26.2685 21.3747 26.8784 21.5836 27.6087C21.7722 28.2674 21.6823 28.9012 21.3304 29.3934C20.1761 31.0103 18.5189 31.8641 16.5378 31.8641ZM13.963 30.1025C14.1348 30.2348 14.4783 30.4118 14.8602 30.5079C15.4418 30.6531 16.0057 30.727 16.5378 30.727C18.1586 30.727 19.4595 30.0555 20.4049 28.7325C20.6019 28.4564 20.543 28.1062 20.4904 27.9217C20.3797 27.5357 20.1053 27.1847 19.8224 27.067C19.6688 27.0032 19.5418 26.9545 19.425 26.9545C19.3621 26.9545 19.1713 26.9545 18.8496 27.3144C18.5778 27.618 18.3826 27.8659 18.2095 28.085C17.4668 29.0282 17.1264 29.3482 14.916 29.8037C14.3769 29.9152 14.1003 30.0276 13.963 30.1025ZM18.337 27.4786C18.2012 27.4784 18.07 27.4297 17.967 27.3412C17.864 27.2527 17.796 27.1304 17.7753 26.9961C17.7608 26.9017 17.7513 26.8066 17.747 26.7111C16.2979 26.6837 14.9001 26.0622 13.8391 24.9548C12.4975 23.5548 11.8867 21.6152 12.1638 19.6336C12.4648 17.4816 12.3523 15.5819 12.2917 14.5612C12.2765 14.3513 12.2672 14.1409 12.2638 13.9305C12.2647 13.7508 12.2683 13.2732 13.8639 12.4645C14.4313 12.1768 15.5693 11.6749 16.8122 11.5461C18.8721 11.3336 20.2296 12.2507 20.636 14.1292C21.7328 19.2016 20.7227 21.4453 19.9853 23.0834C19.8477 23.3879 19.718 23.6765 19.6144 23.9554L19.5228 24.2019C19.1333 25.2465 18.7964 26.149 18.9 26.8235C18.9228 26.9726 18.8855 27.1247 18.7963 27.2464C18.7071 27.368 18.5733 27.4493 18.4242 27.4724L18.337 27.4786ZM13.4049 14.0876L13.4275 14.4939C13.4903 15.554 13.6072 17.5272 13.2903 19.7916C13.0619 21.4258 13.5611 23.0214 14.6602 24.1683C15.5286 25.0747 16.6723 25.5749 17.8475 25.5749H17.8718C18.0037 25.0203 18.2219 24.4352 18.457 23.8044L18.5481 23.5597C18.6654 23.2445 18.8026 22.9395 18.9478 22.6169C19.6578 21.0394 20.5413 19.0759 19.5237 14.3695C19.3218 13.4378 18.8332 12.8983 18.0298 12.7203C16.3797 12.3556 13.921 13.5967 13.4049 14.0876ZM16.8379 13.8464C16.8095 14.0473 17.2066 14.5842 17.7235 14.6559C18.2401 14.7281 18.6823 14.3085 18.7101 14.1075C18.738 13.9061 18.3414 13.6848 17.824 13.6127C17.3075 13.5405 16.8653 13.645 16.8379 13.8464ZM17.8426 14.8542L17.6974 14.844C17.3765 14.7993 17.0521 14.597 16.8303 14.3027C16.7524 14.1996 16.625 13.9986 16.6502 13.8198C16.6865 13.5573 17.0061 13.4006 17.5058 13.4006C17.6178 13.4006 17.7337 13.4091 17.851 13.425C18.1237 13.4631 18.3773 13.5418 18.5645 13.6463C18.889 13.8278 18.9129 14.0296 18.8982 14.1345C18.858 14.4235 18.3968 14.8542 17.8426 14.8542ZM17.0264 13.88C17.0428 14.0039 17.3495 14.4134 17.7497 14.4687L17.8422 14.4753C18.2113 14.4753 18.4875 14.1845 18.5198 14.0894C18.4857 14.0247 18.2485 13.8632 17.7979 13.8012C17.701 13.7873 17.6032 13.7802 17.5053 13.78C17.2167 13.7795 17.0623 13.8446 17.0264 13.88ZM32.5716 13.4361C32.5995 13.6375 32.2034 14.1743 31.686 14.2461C31.169 14.3178 30.7268 13.8986 30.6985 13.6972C30.671 13.4963 31.0676 13.2745 31.5846 13.2028C32.1016 13.1302 32.5433 13.2356 32.5716 13.4361ZM31.5669 14.3487C31.069 14.3487 30.6401 13.9614 30.6046 13.7105C30.5639 13.4091 31.0601 13.1798 31.5718 13.109C31.6842 13.093 31.7957 13.0851 31.9033 13.0851C32.3446 13.0851 32.6367 13.2147 32.6659 13.4232C32.685 13.5587 32.5814 13.7671 32.4026 13.9548C32.2848 14.0787 32.037 14.2934 31.6997 14.3399L31.5669 14.3487ZM31.9029 13.2745C31.8041 13.2745 31.7015 13.282 31.5974 13.2962C31.0831 13.3675 30.7773 13.5742 30.7919 13.6848C30.8091 13.8061 31.1371 14.1593 31.5665 14.1593L31.6722 14.1518C31.9529 14.1124 32.1636 13.9296 32.264 13.8238C32.4216 13.6578 32.4845 13.502 32.4769 13.4485C32.4676 13.379 32.2782 13.2745 31.9029 13.2745ZM33.3166 24.9831C33.2135 24.9831 33.1125 24.955 33.0241 24.902C32.9358 24.849 32.8636 24.773 32.815 24.682C32.7666 24.5912 32.7437 24.4888 32.7488 24.3859C32.754 24.283 32.787 24.1835 32.8443 24.0979C34.0553 22.2889 33.8336 20.4436 33.6193 18.6599C33.5277 17.8994 33.4334 17.1138 33.4582 16.3591C33.483 15.5832 33.5813 14.9432 33.6769 14.3235C33.7897 13.5901 33.8964 12.8965 33.8521 12.0741C33.8489 11.9263 33.9033 11.7831 34.0038 11.6746C34.1043 11.5662 34.243 11.5011 34.3906 11.4932C34.5383 11.4853 34.6832 11.5351 34.7948 11.6321C34.9063 11.7291 34.9757 11.8657 34.9884 12.013C35.0388 12.9532 34.918 13.7375 34.8011 14.4966C34.7108 15.0822 34.6174 15.6877 34.5949 16.3954C34.5732 17.0633 34.6586 17.7728 34.7489 18.5235C34.9773 20.421 35.2353 22.5717 33.7897 24.7304C33.68 24.8941 33.4998 24.9831 33.3166 24.9831Z" fill="white"/>
<path d="M52 9.3664C53.437 9.11412 54.8908 8.99177 56.3465 9.00043C58.5833 9.00043 60.2237 9.56346 61.2645 10.5769C62.2273 11.4778 62.7998 12.8572 62.7998 14.5473C62.7998 16.2646 62.3304 17.6159 61.4457 18.6012C60.2487 19.9806 58.2971 20.6844 56.0853 20.6844C55.4088 20.6844 54.7843 20.6562 54.2648 20.5155V28.1174H52V9.3664ZM54.2648 18.5156C54.7592 18.6564 55.3837 18.7127 56.1384 18.7127C58.8696 18.7127 60.5359 17.277 60.5359 14.6589C60.5359 12.1534 58.8966 10.9429 56.3986 10.9429C55.4098 10.9429 54.6552 11.0273 54.2648 11.1399V18.5156ZM76.5129 21.19C76.5129 26.2291 73.2852 28.426 70.2408 28.426C66.832 28.426 64.2039 25.7235 64.2039 21.4152C64.2039 16.8547 66.9621 14.1803 70.4489 14.1803C74.0669 14.1792 76.5129 17.0236 76.5129 21.19ZM66.5208 21.3308C66.5208 24.3148 68.1081 26.5669 70.3459 26.5669C72.5316 26.5669 74.17 24.343 74.17 21.2745C74.17 18.966 73.1041 16.0383 70.3969 16.0383C67.6897 16.0383 66.5208 18.7408 66.5208 21.3308ZM79.0879 25.5816C79.7645 26.0602 80.9615 26.5669 82.1064 26.5669C83.7717 26.5669 84.5524 25.6661 84.5524 24.54C84.5524 23.3577 83.9028 22.7102 82.2105 22.0346C79.9466 21.1619 78.8798 19.8106 78.8798 18.1778C78.8798 15.982 80.5191 14.1803 83.2253 14.1803C84.5003 14.1803 85.6202 14.5744 86.3228 15.0248L85.7503 16.8265C84.9759 16.3101 84.084 16.0372 83.1743 16.0383C81.8212 16.0383 81.0665 16.8828 81.0665 17.8963C81.0665 19.0223 81.8222 19.5291 83.4615 20.2047C85.6473 21.1056 86.7662 22.2879 86.7662 24.3148C86.7662 26.7077 85.0488 28.3968 82.0563 28.3968C80.6772 28.3968 79.4022 28.0308 78.5175 27.4678L79.0879 25.5816ZM92.4638 10.5758V14.4889H95.7414V16.375H92.4638V23.7226C92.4638 25.4116 92.9051 26.3688 94.1812 26.3688C94.6285 26.3753 95.0747 26.319 95.5083 26.1999L95.6123 28.0579C95.171 28.2549 94.4674 28.3957 93.5837 28.3957C92.5168 28.3957 91.6571 28.0297 91.1107 27.3541C90.4612 26.6222 90.226 25.4116 90.226 23.807V16.375H88.2744V14.4889H90.226V11.2233L92.4638 10.5758ZM109.013 14.49C108.96 15.4753 108.909 16.5732 108.909 18.2341V26.1447C108.909 29.2695 108.337 31.1838 107.114 32.3672C105.891 33.6059 104.121 34 102.534 34C101.025 34 99.3594 33.6059 98.3435 32.8739L98.916 30.9878C99.7487 31.5508 101.05 32.0576 102.611 32.0576C104.953 32.0576 106.67 30.7344 106.67 27.3V25.7798H106.618C105.916 27.0466 104.563 28.06 102.611 28.06C99.4885 28.06 97.2507 25.1886 97.2507 21.4152C97.2507 16.7984 100.035 14.1803 102.923 14.1803C105.11 14.1803 106.307 15.419 106.853 16.545H106.905L107.01 14.49H109.013ZM106.645 19.8669C106.645 19.4446 106.619 19.0786 106.515 18.7408C106.099 17.3051 104.98 16.1227 103.315 16.1227C101.128 16.1227 99.5675 18.1215 99.5675 21.2745C99.5675 23.9489 100.817 26.1728 103.289 26.1728C104.694 26.1728 105.969 25.2157 106.463 23.6392C106.593 23.2169 106.646 22.7383 106.646 22.3161L106.645 19.8669ZM112.551 18.7408C112.551 17.1362 112.525 15.7568 112.447 14.49H114.452L114.529 17.1643H114.633C115.205 15.3345 116.584 14.1803 118.12 14.1803C118.38 14.1803 118.561 14.2084 118.769 14.2648V16.6013C118.513 16.5407 118.252 16.5125 117.989 16.5169C116.376 16.5169 115.23 17.84 114.919 19.698C114.855 20.0791 114.82 20.4646 114.815 20.8522V28.1153H112.551V18.7408ZM122.076 21.753C122.128 25.1031 124.104 26.4825 126.394 26.4825C128.035 26.4825 129.022 26.1728 129.881 25.7787L130.271 27.5522C129.465 27.9464 128.086 28.3968 126.082 28.3968C122.205 28.3968 119.889 25.6379 119.889 21.5278C119.889 17.4177 122.127 14.1792 125.796 14.1792C129.907 14.1792 131 18.0923 131 20.5977C131 21.1045 130.948 21.4986 130.922 21.752L122.076 21.753ZM128.789 19.9795C128.814 18.403 128.19 15.9538 125.615 15.9538C123.299 15.9538 122.284 18.2623 122.101 19.9795H128.789Z" fill="black"/>
<path d="M133.568 25.2475C134.783 26.0418 136.171 26.4681 137.588 26.4821C139.881 26.4821 141.221 25.1633 141.221 23.2551C141.221 21.4872 140.294 20.477 137.949 19.4949C135.114 18.4005 133.362 16.801 133.362 14.1352C133.362 11.1888 135.604 9 138.979 9C140.758 9 142.046 9.44898 142.819 9.92602L142.201 11.9184C141.187 11.3248 140.053 11.0161 138.902 11.0204C136.531 11.0204 135.629 12.5638 135.629 13.8546C135.629 15.6224 136.685 16.4923 139.083 17.5026C142.02 18.7383 143.515 20.2806 143.515 23.0587C143.515 25.977 141.531 28.5026 137.433 28.5026C135.758 28.5026 133.929 27.9694 133 27.2959L133.568 25.2475ZM160.909 31C158.669 30.36 156.451 29.6293 154.261 28.8112C153.9 28.6709 153.539 28.5306 153.204 28.5306C149.081 28.3622 145.551 25.051 145.551 18.9617C145.551 12.9005 148.952 9 153.642 9C158.358 9 161.426 12.9847 161.426 18.5689C161.426 23.4235 159.364 26.5383 156.478 27.6327V27.7449C158.204 28.2219 160.086 28.6709 161.554 28.9515L160.909 31ZM159.054 18.6811C159.054 14.8929 157.251 10.9913 153.565 10.9913C149.777 10.9913 147.921 14.8076 147.947 18.9056C147.921 22.9184 149.957 26.5383 153.462 26.5383C157.045 26.5383 159.054 23.0026 159.054 18.6811ZM164.336 9.30867H166.578V26.1735H174V28.2219H164.336V9.30867Z" fill="#336791"/>
</svg>
