<svg width="171" height="44" viewBox="0 0 171 44" fill="none" xmlns="http://www.w3.org/2000/svg">
<path d="M31.709 31.8601C31.9888 29.531 31.9051 29.1893 33.6397 29.5664L34.0801 29.6054C35.4142 29.666 37.1594 29.3907 38.1841 28.9144C40.391 27.8907 41.6994 26.1804 39.5235 26.6296C34.5595 27.6534 34.2182 25.9732 34.2182 25.9732C39.4602 18.196 41.6516 8.32378 39.7603 5.90708C34.602 -0.6844 25.6726 2.43252 25.523 2.51352L25.4752 2.52282C24.4943 2.31877 23.3971 2.19749 22.1639 2.17757C19.9176 2.14084 18.2131 2.7667 16.9202 3.7471C16.9202 3.7471 0.99079 -2.81561 1.73173 12.0002C1.88931 15.1521 6.24955 35.8494 11.4499 29.5978C13.3505 27.3122 15.1874 25.3792 15.1874 25.3792C16.0996 25.9852 17.1915 26.2941 18.337 26.183L18.4256 26.1078C18.3981 26.3915 18.4101 26.669 18.4614 26.9975C17.1216 28.4948 17.5155 28.7578 14.8368 29.3088C12.1271 29.8674 13.7192 30.8615 14.758 31.1213C16.0186 31.4369 18.9333 31.8835 20.9034 29.1256L20.825 29.4403C21.3508 29.8608 21.315 32.462 21.3894 34.3206C21.4637 36.1792 21.5885 37.9133 21.9674 38.9367C22.3463 39.9591 22.7933 42.5932 26.3135 41.8389C29.2551 41.2078 31.5041 40.3004 31.709 31.8601Z" fill="black"/>
<path d="M25.1671 43.6759C23.61 43.6759 22.5964 43.0739 21.9802 42.4923C21.0507 41.6155 20.682 40.4855 20.4621 39.8105L20.3669 39.5285C19.9234 38.3312 19.7733 36.6077 19.6844 34.3884C19.6713 34.0415 19.6602 33.6944 19.6512 33.3473C19.6436 33.0813 19.6344 32.7476 19.6211 32.3975C19.0601 32.665 18.4647 32.8533 17.8519 32.9569C16.7542 33.1446 15.5742 33.0835 14.3437 32.7759C13.4757 32.559 12.5737 32.1093 12.0598 31.4144C10.5615 32.7268 9.13232 32.5484 8.35376 32.289C6.98031 31.8309 5.75115 30.5442 4.59547 28.3541C3.77264 26.7948 2.97637 24.7623 2.22879 22.3142C0.927485 18.0504 0.100672 13.5596 0.0271967 12.0857C-0.203851 7.47047 1.03814 4.1703 3.71864 2.27722C7.94787 -0.710016 14.3548 1.04629 16.6905 1.8439C18.2596 0.898017 20.1057 0.43725 22.1923 0.470889C23.313 0.489036 24.3797 0.58774 25.3707 0.763903C26.4042 0.43902 28.4465 -0.0275008 30.7839 0.00126945C35.0906 0.0526133 38.6595 1.73103 41.1041 4.85503C42.8484 7.08406 41.9862 11.7643 41.3165 14.3563C40.3751 18.0013 38.7245 21.8791 36.6973 25.2545C37.248 25.2585 38.0451 25.1921 39.1791 24.9584C41.4161 24.4963 42.0699 25.6958 42.2473 26.2327C42.9586 28.3869 39.8669 30.0144 38.9025 30.4619C37.6667 31.036 35.6523 31.3852 34.0022 31.3095L33.9301 31.3046L33.4968 31.2666L33.4538 31.6278L33.4127 31.9814C33.302 36.2589 32.6907 38.9677 31.4333 40.7581C30.1156 42.6344 28.2836 43.1607 26.6702 43.5063C26.1766 43.6157 25.6727 43.6728 25.1671 43.6759ZM21.8908 28.1072C22.896 28.9114 22.9841 30.4247 23.0624 33.2531C23.0722 33.6058 23.0815 33.94 23.0939 34.252C23.1319 35.1966 23.2209 37.4088 23.567 38.3436C23.6162 38.4755 23.66 38.6101 23.706 38.7517C24.092 39.9344 24.2858 40.5271 25.955 40.1694C27.3567 39.8693 28.0769 39.5998 28.6408 38.7969C29.4605 37.6292 29.9191 35.282 30.0032 31.8181L31.7081 31.8597L30.0147 31.6565L30.0642 31.2338C30.2267 29.8405 30.3435 28.8331 31.2752 28.1674C32.0224 27.6331 32.8744 27.6849 33.553 27.8071C32.8076 27.2445 32.6013 26.5832 32.5464 26.3123L32.4044 25.6121L32.8036 25.019C35.1052 21.6038 37.0036 17.4064 38.0119 13.5029C39.0476 9.49191 38.7316 7.36158 38.416 6.9588C34.235 1.61595 26.9836 3.82151 26.2267 4.07248L26.0984 4.14153L25.4566 4.26148L25.1277 4.19331C24.2217 4.0052 23.2151 3.90119 22.1356 3.88348C20.4399 3.85515 19.0722 4.25572 17.9506 5.10688L17.1725 5.69689L16.2691 5.32465C14.3402 4.5359 8.67288 2.95 5.68255 5.06793C4.02272 6.24353 3.26673 8.54736 3.43492 11.9153C3.49025 13.0271 4.24625 17.236 5.49178 21.3187C7.21401 26.9603 8.77911 28.8339 9.43242 29.0522C9.54617 29.0907 9.84228 28.8605 10.1366 28.5073C12.0514 26.2043 13.8723 24.2847 13.9489 24.2037L14.9364 23.1649L16.1301 23.958C16.6113 24.2781 17.142 24.4591 17.6873 24.4932L20.5346 22.065L20.1221 26.2743C20.1128 26.369 20.1084 26.4974 20.1456 26.7364L20.2695 27.5344L19.7326 28.1355L19.6707 28.205L21.2349 28.9273L21.8908 28.1072Z" fill="black"/>
<path d="M39.5248 26.6297C34.5604 27.6535 34.2191 25.9728 34.2191 25.9728C39.4606 18.1956 41.6516 8.32293 39.7607 5.90667C34.602 -0.684814 25.6726 2.43256 25.5234 2.51355L25.4752 2.52196C24.4943 2.3188 23.3971 2.19752 22.1635 2.17761C19.9172 2.14087 18.2131 2.76629 16.9202 3.74669C16.9202 3.74669 0.990362 -2.81558 1.73131 12.0002C1.88888 15.1521 6.24912 35.8494 11.4495 29.5979C13.3501 27.3122 15.1865 25.3793 15.1865 25.3793C16.0987 25.9852 17.1907 26.2942 18.3357 26.1831L18.4247 26.1078C18.3973 26.3915 18.4097 26.6691 18.4601 26.9975C17.1207 28.4949 17.5138 28.7578 14.8359 29.3088C12.1258 29.8674 13.7179 30.8616 14.7576 31.1214C16.0177 31.437 18.9328 31.8836 20.9025 29.1256L20.8237 29.4403C21.3486 29.8608 21.7173 32.1753 21.6554 34.2733C21.5934 36.3713 21.5523 37.8116 21.9661 38.9367C22.3799 40.0614 22.792 42.5932 26.3126 41.839C29.2543 41.2082 30.7787 39.5745 30.9911 36.8498C31.1416 34.9124 31.482 35.1988 31.5037 33.4664L31.7772 32.6462C32.0919 30.0197 31.8272 29.1725 33.6397 29.5669L34.0802 29.6054C35.4142 29.6665 37.1599 29.3907 38.1846 28.9145C40.3915 27.8903 41.7003 26.1804 39.5248 26.6297Z" fill="#336791"/>
<path d="M25.345 42.6243C22.41 42.6247 21.4805 40.3005 21.0998 39.3502C20.5435 37.9577 20.4231 32.5525 20.547 28.1196C20.5553 27.9716 20.6209 27.8327 20.73 27.7324C20.8391 27.632 20.9831 27.5782 21.1313 27.5824C21.2795 27.5865 21.4201 27.6483 21.5235 27.7546C21.6268 27.8609 21.6846 28.0033 21.6845 28.1515C21.5416 33.2642 21.7447 37.8971 22.1564 38.9275C22.7995 40.5351 23.7746 41.9413 26.5326 41.3508C29.1506 40.7892 30.131 39.7964 30.5675 37.2655C30.903 35.3228 31.5651 29.7967 31.6466 28.7061C31.6578 28.5556 31.7283 28.4158 31.8426 28.3174C31.9569 28.2189 32.1056 28.1699 32.2561 28.1811C32.4065 28.1923 32.5463 28.2629 32.6448 28.3772C32.7432 28.4915 32.7922 28.6402 32.781 28.7906C32.696 29.9255 32.0365 35.4414 31.6882 37.4589C31.1725 40.4488 29.8398 41.805 26.7707 42.4631C26.3024 42.5667 25.8245 42.6207 25.345 42.6243ZM9.43239 31.2733C9.17589 31.273 8.92116 31.231 8.67817 31.1489C6.7718 30.5129 4.95618 27.4083 3.28131 21.9207C2.00656 17.7433 1.19878 13.3835 1.12796 11.9667C0.917718 7.7662 1.99992 4.79401 4.34359 3.1333C8.98047 -0.152264 16.7812 2.97662 17.111 3.11117C17.2493 3.16907 17.3592 3.27932 17.4167 3.41786C17.4742 3.55645 17.4746 3.71207 17.4179 3.85097C17.3611 3.98982 17.2518 4.10065 17.1138 4.15934C16.9757 4.21799 16.8201 4.21971 16.6807 4.16417V4.16461C16.6055 4.13362 9.12521 1.13709 4.99911 4.06325C2.99493 5.4845 2.07473 8.12428 2.26372 11.9104C2.32348 13.1038 3.07814 17.3595 4.36926 21.5892C5.86443 26.4877 7.56631 29.5794 9.03802 30.0698C9.26862 30.1473 9.9715 30.3814 10.9771 29.1731C12.868 26.898 14.6053 25.0824 14.6225 25.0642C14.7283 24.9617 14.8697 24.9042 15.017 24.9038C15.1643 24.9034 15.306 24.9601 15.4124 25.062C15.5188 25.1639 15.5815 25.303 15.5874 25.4502C15.5933 25.5974 15.5419 25.7411 15.444 25.8512C15.4268 25.8689 13.7161 27.6575 11.8517 29.9003C10.9687 30.9617 10.122 31.2733 9.43239 31.2733ZM34.1837 26.4802C34.0804 26.4803 33.979 26.4523 33.8904 26.3992C33.8019 26.346 33.7295 26.2697 33.681 26.1786C33.6325 26.0873 33.6098 25.9846 33.6153 25.8815C33.6208 25.7783 33.6543 25.6787 33.7123 25.5931C39.0109 17.7305 40.8708 8.23051 39.2778 6.19535C37.2727 3.63346 34.4413 2.29498 30.8627 2.21841C28.2127 2.16087 26.1063 2.83763 25.7624 2.95581L25.6761 2.99078C25.33 3.09967 25.0644 2.90978 24.9643 2.68803C24.9073 2.56098 24.8988 2.41747 24.9401 2.28452C24.9816 2.15157 25.0701 2.03833 25.1892 1.96611L25.3423 1.90326L25.3348 1.90547L25.3428 1.90282C25.9275 1.68903 28.0658 1.04723 30.7149 1.07777C34.675 1.11938 37.9459 2.64687 40.1741 5.49379C41.2284 6.84113 41.2306 9.94522 40.1807 14.0098C39.1105 18.1536 37.0965 22.6077 34.6559 26.2292C34.6039 26.3066 34.5336 26.37 34.4512 26.4138C34.3689 26.4576 34.2769 26.4804 34.1837 26.4802ZM34.4541 30.1198C33.5494 30.1198 32.7385 29.9928 32.253 29.7015C31.7537 29.4028 31.6585 28.996 31.6461 28.7804C31.5098 26.3885 32.8297 25.972 33.5029 25.7821C33.4091 25.6405 33.2754 25.4736 33.1378 25.3015C32.7452 24.811 32.2078 24.1391 31.7935 23.1344C31.7289 22.9777 31.5253 22.6125 31.2898 22.1903C30.0138 19.9024 27.3589 15.1411 29.0643 12.7027C29.854 11.5745 31.4253 11.1306 33.7411 11.3784C33.0599 9.30298 29.8155 2.81019 22.1183 2.68405C19.803 2.6451 17.9041 3.35727 16.4776 4.79755C13.2832 8.02381 13.3991 13.8611 13.4005 13.9191C13.4024 13.9937 13.3896 14.068 13.3629 14.1378C13.3361 14.2075 13.2958 14.2712 13.2444 14.3254C13.193 14.3796 13.1314 14.4231 13.0632 14.4535C12.9949 14.4838 12.9214 14.5005 12.8468 14.5024C12.7721 14.5044 12.6978 14.4916 12.6281 14.4648C12.5583 14.438 12.4946 14.3978 12.4404 14.3464C12.3862 14.295 12.3427 14.2334 12.3123 14.1652C12.282 14.0969 12.2653 14.0234 12.2634 13.9487C12.2563 13.6898 12.1368 7.56437 15.6693 3.99685C17.3225 2.32729 19.4984 1.50313 22.1369 1.54607C27.0624 1.62707 30.232 4.13053 32.0241 6.21703C33.977 8.49033 34.9348 10.9982 35.0136 11.8348C35.0724 12.4571 34.6258 12.5819 34.5356 12.6001L34.3306 12.6049C32.0578 12.2411 30.5998 12.4934 29.9969 13.3552C28.6996 15.2088 31.211 19.7125 32.2835 21.6361C32.5575 22.1266 32.7549 22.4811 32.8452 22.7002C33.1975 23.5544 33.657 24.1285 34.0261 24.5897C34.3505 24.9956 34.632 25.347 34.733 25.7605C34.7794 25.8423 35.4425 26.8223 39.3752 26.0105C40.3609 25.8074 40.9518 25.9813 41.1324 26.5275C41.4878 27.6026 39.4938 28.8561 38.3899 29.3691C37.3993 29.829 35.8205 30.1198 34.4541 30.1198ZM32.7806 28.6866C32.9049 28.8128 33.529 29.0296 34.8219 28.9743C35.971 28.9247 37.1833 28.6747 37.911 28.3374C38.8414 27.9054 39.4619 27.4225 39.7837 27.0927L39.6049 27.1255C37.0904 27.6447 35.3119 27.5756 34.3191 26.9197C34.2523 26.8757 34.188 26.8279 34.1266 26.7767C34.019 26.8192 33.9194 26.8471 33.8486 26.867C33.2852 27.025 32.7027 27.1883 32.7806 28.6866ZM16.5378 31.8642C15.9132 31.8642 15.2559 31.7796 14.5845 31.611C13.8891 31.4371 12.7162 30.9134 12.7343 30.0534C12.7542 29.0881 14.1578 28.7986 14.6867 28.6897C16.5953 28.2967 16.7197 28.1391 17.3163 27.3818C17.4903 27.1609 17.7067 26.886 18.0015 26.5563C18.4397 26.0663 18.9186 25.8176 19.425 25.8176C19.7773 25.8176 20.0668 25.9375 20.2575 26.0163C20.8666 26.2686 21.3747 26.8785 21.5836 27.6088C21.7722 28.2675 21.6823 28.9013 21.3304 29.3935C20.1761 31.0104 18.5189 31.8642 16.5378 31.8642ZM13.963 30.1026C14.1348 30.2349 14.4783 30.4119 14.8602 30.508C15.4418 30.6532 16.0057 30.7271 16.5378 30.7271C18.1586 30.7271 19.4595 30.0556 20.4049 28.7326C20.6019 28.4565 20.543 28.1063 20.4904 27.9218C20.3797 27.5358 20.1053 27.1848 19.8224 27.0671C19.6688 27.0033 19.5418 26.9546 19.425 26.9546C19.3621 26.9546 19.1713 26.9546 18.8496 27.3145C18.5778 27.6181 18.3826 27.866 18.2095 28.0851C17.4668 29.0283 17.1264 29.3483 14.916 29.8038C14.3769 29.9153 14.1003 30.0277 13.963 30.1026ZM18.337 27.4787C18.2012 27.4785 18.07 27.4298 17.967 27.3413C17.864 27.2528 17.796 27.1305 17.7753 26.9962C17.7608 26.9018 17.7513 26.8067 17.747 26.7112C16.2979 26.6838 14.9001 26.0623 13.8391 24.9549C12.4975 23.5549 11.8867 21.6153 12.1638 19.6337C12.4648 17.4817 12.3523 15.582 12.2917 14.5613C12.2765 14.3514 12.2672 14.141 12.2638 13.9306C12.2647 13.7509 12.2683 13.2733 13.8639 12.4646C14.4313 12.1769 15.5693 11.675 16.8122 11.5462C18.8721 11.3337 20.2296 12.2508 20.636 14.1293C21.7328 19.2017 20.7227 21.4454 19.9853 23.0835C19.8477 23.388 19.718 23.6766 19.6144 23.9555L19.5228 24.202C19.1333 25.2466 18.7964 26.1491 18.9 26.8236C18.9228 26.9727 18.8855 27.1248 18.7963 27.2465C18.7071 27.3681 18.5733 27.4494 18.4242 27.4725L18.337 27.4787ZM13.4049 14.0877L13.4275 14.494C13.4903 15.5541 13.6072 17.5273 13.2903 19.7917C13.0619 21.4259 13.5611 23.0215 14.6602 24.1684C15.5286 25.0748 16.6723 25.575 17.8475 25.575H17.8718C18.0037 25.0204 18.2219 24.4353 18.457 23.8045L18.5481 23.5598C18.6654 23.2446 18.8026 22.9396 18.9478 22.617C19.6578 21.0395 20.5413 19.076 19.5237 14.3696C19.3218 13.4379 18.8332 12.8984 18.0298 12.7204C16.3797 12.3557 13.921 13.5968 13.4049 14.0877ZM16.8379 13.8465C16.8095 14.0474 17.2066 14.5843 17.7235 14.656C18.2401 14.7282 18.6823 14.3086 18.7101 14.1076C18.738 13.9062 18.3414 13.6849 17.824 13.6128C17.3075 13.5406 16.8653 13.6451 16.8379 13.8465ZM17.8426 14.8543L17.6974 14.8441C17.3765 14.7994 17.0521 14.5971 16.8303 14.3028C16.7524 14.1997 16.625 13.9987 16.6502 13.8199C16.6865 13.5574 17.0061 13.4007 17.5058 13.4007C17.6178 13.4007 17.7337 13.4092 17.851 13.4251C18.1237 13.4632 18.3773 13.5419 18.5645 13.6464C18.889 13.8279 18.9129 14.0297 18.8982 14.1346C18.858 14.4236 18.3968 14.8543 17.8426 14.8543ZM17.0264 13.8801C17.0428 14.004 17.3495 14.4135 17.7497 14.4688L17.8422 14.4754C18.2113 14.4754 18.4875 14.1846 18.5198 14.0895C18.4857 14.0248 18.2485 13.8633 17.7979 13.8013C17.701 13.7874 17.6032 13.7803 17.5053 13.7801C17.2167 13.7796 17.0623 13.8447 17.0264 13.8801ZM32.5716 13.4362C32.5995 13.6376 32.2034 14.1744 31.686 14.2462C31.169 14.3179 30.7268 13.8987 30.6985 13.6973C30.671 13.4964 31.0676 13.2746 31.5846 13.2029C32.1016 13.1303 32.5433 13.2357 32.5716 13.4362ZM31.5669 14.3488C31.069 14.3488 30.6401 13.9615 30.6046 13.7106C30.5639 13.4092 31.0601 13.1799 31.5718 13.1091C31.6842 13.0931 31.7957 13.0852 31.9033 13.0852C32.3446 13.0852 32.6367 13.2148 32.6659 13.4233C32.685 13.5588 32.5814 13.7672 32.4026 13.9549C32.2848 14.0788 32.037 14.2935 31.6997 14.34L31.5669 14.3488ZM31.9029 13.2746C31.8041 13.2746 31.7015 13.2821 31.5974 13.2963C31.0831 13.3676 30.7773 13.5743 30.7919 13.6849C30.8091 13.8062 31.1371 14.1594 31.5665 14.1594L31.6722 14.1519C31.9529 14.1125 32.1636 13.9297 32.264 13.8239C32.4216 13.6579 32.4845 13.5021 32.4769 13.4486C32.4676 13.3791 32.2782 13.2746 31.9029 13.2746ZM33.3166 24.9832C33.2135 24.9832 33.1125 24.9551 33.0241 24.9021C32.9358 24.8491 32.8636 24.7731 32.815 24.6821C32.7666 24.5913 32.7437 24.4889 32.7488 24.386C32.754 24.2831 32.787 24.1836 32.8443 24.098C34.0553 22.289 33.8336 20.4437 33.6193 18.66C33.5277 17.8995 33.4334 17.1139 33.4582 16.3592C33.483 15.5833 33.5813 14.9433 33.6769 14.3236C33.7897 13.5902 33.8964 12.8966 33.8521 12.0742C33.8489 11.9264 33.9033 11.7832 34.0038 11.6747C34.1043 11.5663 34.243 11.5012 34.3906 11.4933C34.5383 11.4854 34.6832 11.5352 34.7948 11.6322C34.9063 11.7292 34.9757 11.8658 34.9884 12.0131C35.0388 12.9533 34.918 13.7376 34.8011 14.4967C34.7108 15.0823 34.6174 15.6878 34.5949 16.3955C34.5732 17.0634 34.6586 17.7729 34.7489 18.5236C34.9773 20.4211 35.2353 22.5718 33.7897 24.7305C33.68 24.8942 33.4998 24.9832 33.3166 24.9832Z" fill="white"/>
<path d="M48 12.494C49.4358 12.261 50.8885 12.148 52.343 12.156C54.578 12.156 56.217 12.676 57.257 13.612C58.219 14.444 58.791 15.718 58.791 17.279C58.791 18.865 58.322 20.113 57.438 21.023C56.242 22.297 54.292 22.947 52.082 22.947C51.406 22.947 50.782 22.921 50.263 22.791V29.812H48V12.494ZM50.263 20.944C50.757 21.074 51.381 21.126 52.135 21.126C54.864 21.126 56.529 19.8 56.529 17.382C56.529 15.068 54.891 13.95 52.395 13.95C51.407 13.95 50.653 14.028 50.263 14.132V20.944ZM72.493 23.414C72.493 28.068 69.268 30.097 66.226 30.097C62.82 30.097 60.194 27.601 60.194 23.622C60.194 19.41 62.95 16.94 66.434 16.94C70.049 16.939 72.493 19.566 72.493 23.414ZM62.509 23.544C62.509 26.3 64.095 28.38 66.331 28.38C68.515 28.38 70.152 26.326 70.152 23.492C70.152 21.36 69.087 18.656 66.382 18.656C63.677 18.656 62.509 21.152 62.509 23.544ZM75.066 27.47C75.742 27.912 76.938 28.38 78.082 28.38C79.746 28.38 80.526 27.548 80.526 26.508C80.526 25.416 79.877 24.818 78.186 24.194C75.924 23.388 74.858 22.14 74.858 20.632C74.858 18.604 76.496 16.94 79.2 16.94C80.474 16.94 81.593 17.304 82.295 17.72L81.723 19.384C80.9492 18.907 80.058 18.655 79.149 18.656C77.797 18.656 77.043 19.436 77.043 20.372C77.043 21.412 77.798 21.88 79.436 22.504C81.62 23.336 82.738 24.428 82.738 26.3C82.738 28.51 81.022 30.07 78.032 30.07C76.654 30.07 75.38 29.732 74.496 29.212L75.066 27.47ZM88.431 13.611V17.225H91.706V18.967H88.431V25.753C88.431 27.313 88.872 28.197 90.147 28.197C90.594 28.203 91.0398 28.151 91.473 28.041L91.577 29.757C91.136 29.939 90.433 30.069 89.55 30.069C88.484 30.069 87.625 29.731 87.079 29.107C86.43 28.431 86.195 27.313 86.195 25.831V18.967H84.245V17.225H86.195V14.209L88.431 13.611ZM104.967 17.226C104.914 18.136 104.863 19.15 104.863 20.684V27.99C104.863 30.876 104.291 32.644 103.069 33.737C101.847 34.881 100.079 35.245 98.493 35.245C96.985 35.245 95.321 34.881 94.306 34.205L94.878 32.463C95.71 32.983 97.01 33.451 98.57 33.451C100.91 33.451 102.626 32.229 102.626 29.057V27.653H102.574C101.872 28.823 100.52 29.759 98.57 29.759C95.45 29.759 93.214 27.107 93.214 23.622C93.214 19.358 95.996 16.94 98.882 16.94C101.067 16.94 102.263 18.084 102.809 19.124H102.861L102.965 17.226H104.967ZM102.601 22.192C102.601 21.802 102.575 21.464 102.471 21.152C102.055 19.826 100.937 18.734 99.273 18.734C97.088 18.734 95.529 20.58 95.529 23.492C95.529 25.962 96.777 28.016 99.247 28.016C100.651 28.016 101.925 27.132 102.419 25.676C102.549 25.286 102.602 24.844 102.602 24.454L102.601 22.192ZM108.502 21.152C108.502 19.67 108.476 18.396 108.398 17.226H110.401L110.478 19.696H110.582C111.154 18.006 112.532 16.94 114.066 16.94C114.326 16.94 114.507 16.966 114.715 17.018V19.176C114.459 19.12 114.198 19.094 113.936 19.098C112.324 19.098 111.179 20.32 110.868 22.036C110.804 22.388 110.769 22.744 110.764 23.102V29.81H108.502V21.152ZM118.019 23.934C118.071 27.028 120.046 28.302 122.334 28.302C123.973 28.302 124.96 28.016 125.818 27.652L126.208 29.29C125.402 29.654 124.024 30.07 122.022 30.07C118.148 30.07 115.834 27.522 115.834 23.726C115.834 19.93 118.07 16.939 121.736 16.939C125.844 16.939 126.936 20.553 126.936 22.867C126.936 23.335 126.884 23.699 126.858 23.933L118.019 23.934ZM124.727 22.296C124.752 20.84 124.128 18.578 121.555 18.578C119.241 18.578 118.227 20.71 118.044 22.296H124.727Z" fill="black"/>
<path d="M129.536 27.054C130.762 27.79 132.162 28.185 133.592 28.198C135.906 28.198 137.258 26.976 137.258 25.208C137.258 23.57 136.322 22.634 133.956 21.724C131.096 20.71 129.328 19.228 129.328 16.758C129.328 14.028 131.59 12 134.996 12C136.79 12 138.09 12.416 138.87 12.858L138.246 14.704C137.223 14.154 136.079 13.868 134.918 13.872C132.526 13.872 131.616 15.302 131.616 16.498C131.616 18.136 132.681 18.942 135.1 19.878C138.064 21.023 139.572 22.452 139.572 25.026C139.572 27.73 137.57 30.07 133.436 30.07C131.746 30.07 129.9 29.576 128.963 28.952L129.536 27.054ZM157.122 32.384C154.862 31.791 152.624 31.114 150.414 30.356C150.05 30.226 149.686 30.096 149.348 30.096C145.188 29.94 141.626 26.872 141.626 21.23C141.626 15.614 145.058 12 149.79 12C154.548 12 157.643 15.692 157.643 20.866C157.643 25.364 155.563 28.25 152.651 29.264V29.368C154.393 29.81 156.291 30.226 157.773 30.486L157.122 32.384ZM155.25 20.97C155.25 17.46 153.431 13.845 149.712 13.845C145.89 13.845 144.018 17.381 144.044 21.178C144.018 24.896 146.072 28.25 149.608 28.25C153.223 28.25 155.25 24.974 155.25 20.97ZM160.579 12.286H162.842V27.912H170.33V29.81H160.579V12.286Z" fill="#336791"/>
</svg>
