<svg width="2500" height="2500" viewBox="0 0 2500 2500" fill="none" xmlns="http://www.w3.org/2000/svg">
<g clip-path="url(#clip0_7_32)">
<path d="M1845.24 476.19H1964.29C1997.62 476.19 2023.81 502.381 2023.81 535.714C2023.81 569.048 1997.62 595.238 1964.29 595.238H1845.24C1811.9 595.238 1785.71 569.048 1785.71 535.714C1785.71 502.381 1811.9 476.19 1845.24 476.19Z" fill="#56B3B4"/>
<path d="M59.5238 2380.95H654.762C688.095 2380.95 714.286 2407.14 714.286 2440.48C714.286 2473.81 688.095 2500 654.762 2500H59.5238C26.1904 2500 -6.10352e-05 2473.81 -6.10352e-05 2440.48C-6.10352e-05 2407.14 26.1904 2380.95 59.5238 2380.95Z" fill="#EA5E5E"/>
<path d="M1488.1 1428.57H1845.24C1878.57 1428.57 1904.76 1454.76 1904.76 1488.1C1904.76 1521.43 1878.57 1547.62 1845.24 1547.62H1488.1C1454.76 1547.62 1428.57 1521.43 1428.57 1488.1C1428.57 1454.76 1454.76 1428.57 1488.1 1428.57Z" fill="#BF85BF"/>
<path d="M773.81 1428.57H1250C1283.33 1428.57 1309.52 1454.76 1309.52 1488.1C1309.52 1521.43 1283.33 1547.62 1250 1547.62H773.81C740.476 1547.62 714.286 1521.43 714.286 1488.1C714.286 1454.76 740.476 1428.57 773.81 1428.57Z" fill="#EA5E5E"/>
<path d="M59.5238 1428.57H535.714C569.048 1428.57 595.238 1454.76 595.238 1488.1C595.238 1521.43 569.048 1547.62 535.714 1547.62H59.5238C26.1904 1547.62 -6.10352e-05 1521.43 -6.10352e-05 1488.1C-6.10352e-05 1454.76 26.1904 1428.57 59.5238 1428.57Z" fill="#56B3B4"/>
<path d="M59.5238 1904.76H654.762C688.095 1904.76 714.286 1930.95 714.286 1964.29C714.286 1997.62 688.095 2023.81 654.762 2023.81H59.5238C26.1904 2023.81 -6.10352e-05 1997.62 -6.10352e-05 1964.29C-6.10352e-05 1930.95 26.1904 1904.76 59.5238 1904.76Z" fill="#BF85BF"/>
<path d="M59.5238 952.381H654.762C688.095 952.381 714.286 978.571 714.286 1011.9C714.286 1045.24 688.095 1071.43 654.762 1071.43H59.5238C26.1904 1071.43 -6.10352e-05 1045.24 -6.10352e-05 1011.9C-6.10352e-05 978.571 26.1904 952.381 59.5238 952.381Z" fill="#BF85BF"/>
<path d="M654.762 238.095H1845.24C1878.57 238.095 1904.76 264.286 1904.76 297.619C1904.76 330.952 1878.57 357.143 1845.24 357.143H654.762C621.429 357.143 595.238 330.952 595.238 297.619C595.238 264.286 621.429 238.095 654.762 238.095Z" fill="#F7BA3E"/>
<path d="M59.5238 238.095H416.667C450 238.095 476.19 264.286 476.19 297.619C476.19 330.952 450 357.143 416.667 357.143H59.5238C26.1904 357.143 -6.10352e-05 330.952 -6.10352e-05 297.619C-6.10352e-05 264.286 26.1904 238.095 59.5238 238.095Z" fill="#EA5E5E"/>
<path d="M535.714 2142.86H654.762C688.095 2142.86 714.286 2169.05 714.286 2202.38C714.286 2235.71 688.095 2261.9 654.762 2261.9H535.714C502.381 2261.9 476.19 2235.71 476.19 2202.38C476.19 2169.05 502.381 2142.86 535.714 2142.86Z" fill="#F7BA3E"/>
<path d="M535.714 714.286H654.762C688.095 714.286 714.286 740.476 714.286 773.81C714.286 807.143 688.095 833.333 654.762 833.333H535.714C502.381 833.333 476.19 807.143 476.19 773.81C476.19 740.476 502.381 714.286 535.714 714.286Z" fill="#56B3B4"/>
<path d="M59.5238 2142.86H297.619C330.952 2142.86 357.143 2169.05 357.143 2202.38C357.143 2235.71 330.952 2261.9 297.619 2261.9H59.5238C26.1904 2261.9 -6.10352e-05 2235.71 -6.10352e-05 2202.38C-6.10352e-05 2169.05 26.1904 2142.86 59.5238 2142.86Z" fill="#56B3B4"/>
<path d="M59.5238 714.286H297.619C330.952 714.286 357.143 740.476 357.143 773.81C357.143 807.143 330.952 833.333 297.619 833.333H59.5238C26.1904 833.333 -6.10352e-05 807.143 -6.10352e-05 773.81C-6.10352e-05 740.476 26.1904 714.286 59.5238 714.286Z" fill="#F7BA3E"/>
<path opacity="0.5" d="M1607.14 2142.86H1726.19C1759.52 2142.86 1785.71 2169.05 1785.71 2202.38C1785.71 2235.71 1759.52 2261.9 1726.19 2261.9H1607.14C1573.81 2261.9 1547.62 2235.71 1547.62 2202.38C1547.62 2169.05 1573.81 2142.86 1607.14 2142.86Z" fill="#4D616E"/>
<path opacity="0.5" d="M892.857 2142.86H1369.05C1402.38 2142.86 1428.57 2169.05 1428.57 2202.38C1428.57 2235.71 1402.38 2261.9 1369.05 2261.9H892.857C859.524 2261.9 833.333 2235.71 833.333 2202.38C833.333 2169.05 859.524 2142.86 892.857 2142.86Z" fill="#4D616E"/>
<path opacity="0.5" d="M1964.29 2142.86H2440.48C2473.81 2142.86 2500 2169.05 2500 2202.38C2500 2235.71 2473.81 2261.9 2440.48 2261.9H1964.29C1930.95 2261.9 1904.76 2235.71 1904.76 2202.38C1904.76 2169.05 1930.95 2142.86 1964.29 2142.86Z" fill="#4D616E"/>
<path d="M1011.9 1190.48H1964.29C1997.62 1190.48 2023.81 1216.67 2023.81 1250C2023.81 1283.33 1997.62 1309.52 1964.29 1309.52H1011.9C978.571 1309.52 952.381 1283.33 952.381 1250C952.381 1216.67 978.571 1190.48 1011.9 1190.48Z" fill="#56B3B4"/>
<path d="M416.667 1190.48H773.81C807.143 1190.48 833.333 1216.67 833.333 1250C833.333 1283.33 807.143 1309.52 773.81 1309.52H416.667C383.333 1309.52 357.143 1283.33 357.143 1250C357.143 1216.67 383.333 1190.48 416.667 1190.48Z" fill="#F7BA3E"/>
<path d="M59.5238 1190.48H178.571C211.905 1190.48 238.095 1216.67 238.095 1250C238.095 1283.33 211.905 1309.52 178.571 1309.52H59.5238C26.1904 1309.52 -6.10352e-05 1283.33 -6.10352e-05 1250C-6.10352e-05 1216.67 26.1904 1190.48 59.5238 1190.48Z" fill="#EA5E5E"/>
<path d="M1130.95 476.19H1607.14C1640.48 476.19 1666.67 502.381 1666.67 535.714C1666.67 569.048 1640.48 595.238 1607.14 595.238H1130.95C1097.62 595.238 1071.43 569.048 1071.43 535.714C1071.43 502.381 1097.62 476.19 1130.95 476.19Z" fill="#BF85BF"/>
<path d="M59.5238 476.19H892.857C926.19 476.19 952.381 502.381 952.381 535.714C952.381 569.048 926.19 595.238 892.857 595.238H59.5238C26.1904 595.238 -6.10352e-05 569.048 -6.10352e-05 535.714C-6.10352e-05 502.381 26.1904 476.19 59.5238 476.19Z" fill="#56B3B4"/>
<path d="M416.667 1666.67H1488.1C1521.43 1666.67 1547.62 1692.86 1547.62 1726.19C1547.62 1759.52 1521.43 1785.71 1488.1 1785.71H416.667C383.333 1785.71 357.143 1759.52 357.143 1726.19C357.143 1692.86 383.333 1666.67 416.667 1666.67Z" fill="#F7BA3E"/>
<path d="M59.5238 1666.67H178.571C211.905 1666.67 238.095 1692.86 238.095 1726.19C238.095 1759.52 211.905 1785.71 178.571 1785.71H59.5238C26.1904 1785.71 -6.10352e-05 1759.52 -6.10352e-05 1726.19C-6.10352e-05 1692.86 26.1904 1666.67 59.5238 1666.67Z" fill="#BF85BF"/>
<path d="M1488.1 714.286H2083.33C2116.67 714.286 2142.86 740.476 2142.86 773.81C2142.86 807.143 2116.67 833.333 2083.33 833.333H1488.1C1454.76 833.333 1428.57 807.143 1428.57 773.81C1428.57 740.476 1454.76 714.286 1488.1 714.286Z" fill="#EA5E5E"/>
<path d="M1488.1 952.381H2083.33C2116.67 952.381 2142.86 978.571 2142.86 1011.9C2142.86 1045.24 2116.67 1071.43 2083.33 1071.43H1488.1C1454.76 1071.43 1428.57 1045.24 1428.57 1011.9C1428.57 978.571 1454.76 952.381 1488.1 952.381Z" fill="#F7BA3E"/>
<path d="M59.5238 0H1488.1C1521.43 0 1547.62 26.1905 1547.62 59.5238C1547.62 92.8571 1521.43 119.048 1488.1 119.048H59.5238C26.1905 119.048 0 92.8571 0 59.5238C0 26.1905 26.1905 0 59.5238 0Z" fill="#56B3B4"/>
<path opacity="0.5" d="M1726.19 -3.05176e-05H2440.48C2473.81 -3.05176e-05 2500 26.1904 2500 59.5238C2500 92.8571 2473.81 119.048 2440.48 119.048H1726.19C1692.86 119.048 1666.67 92.8571 1666.67 59.5238C1666.67 26.1904 1692.86 -3.05176e-05 1726.19 -3.05176e-05Z" fill="#4D616E"/>
<path opacity="0.5" d="M1726.19 1666.67H1964.29C1997.62 1666.67 2023.81 1692.86 2023.81 1726.19C2023.81 1759.52 1997.62 1785.71 1964.29 1785.71H1726.19C1692.86 1785.71 1666.67 1759.52 1666.67 1726.19C1666.67 1692.86 1692.86 1666.67 1726.19 1666.67Z" fill="#4D616E"/>
<path opacity="0.5" d="M2202.38 1666.67H2440.48C2473.81 1666.67 2500 1692.86 2500 1726.19C2500 1759.52 2473.81 1785.71 2440.48 1785.71H2202.38C2169.05 1785.71 2142.86 1759.52 2142.86 1726.19C2142.86 1692.86 2169.05 1666.67 2202.38 1666.67Z" fill="#4D616E"/>
<path opacity="0.5" d="M2083.33 1428.57H2440.48C2473.81 1428.57 2500 1454.76 2500 1488.1C2500 1521.43 2473.81 1547.62 2440.48 1547.62H2083.33C2050 1547.62 2023.81 1521.43 2023.81 1488.1C2023.81 1454.76 2050 1428.57 2083.33 1428.57Z" fill="#4D616E"/>
<path opacity="0.5" d="M2083.33 238.095H2440.48C2473.81 238.095 2500 264.286 2500 297.619C2500 330.952 2473.81 357.143 2440.48 357.143H2083.33C2050 357.143 2023.81 330.952 2023.81 297.619C2023.81 264.286 2050 238.095 2083.33 238.095Z" fill="#4D616E"/>
<path opacity="0.5" d="M2202.38 1190.48H2440.48C2473.81 1190.48 2500 1216.67 2500 1250C2500 1283.33 2473.81 1309.52 2440.48 1309.52H2202.38C2169.05 1309.52 2142.86 1283.33 2142.86 1250C2142.86 1216.67 2169.05 1190.48 2202.38 1190.48Z" fill="#4D616E"/>
<path opacity="0.5" d="M2202.38 476.19H2440.48C2473.81 476.19 2500 502.381 2500 535.714C2500 569.048 2473.81 595.238 2440.48 595.238H2202.38C2169.05 595.238 2142.86 569.048 2142.86 535.714C2142.86 502.381 2169.05 476.19 2202.38 476.19Z" fill="#4D616E"/>
<path opacity="0.5" d="M2321.43 714.286H2440.48C2473.81 714.286 2500 740.476 2500 773.81C2500 807.143 2473.81 833.333 2440.48 833.333H2321.43C2288.1 833.333 2261.9 807.143 2261.9 773.81C2261.9 740.476 2288.1 714.286 2321.43 714.286Z" fill="#4D616E"/>
<path opacity="0.5" d="M2321.43 952.381H2440.48C2473.81 952.381 2500 978.571 2500 1011.9C2500 1045.24 2473.81 1071.43 2440.48 1071.43H2321.43C2288.1 1071.43 2261.9 1045.24 2261.9 1011.9C2261.9 978.571 2288.1 952.381 2321.43 952.381Z" fill="#4D616E"/>
<path opacity="0.5" d="M1369.05 1904.76H2440.48C2473.81 1904.76 2500 1930.95 2500 1964.29C2500 1997.62 2473.81 2023.81 2440.48 2023.81H1369.05C1335.71 2023.81 1309.52 1997.62 1309.52 1964.29C1309.52 1930.95 1335.71 1904.76 1369.05 1904.76Z" fill="#4D616E"/>
<path opacity="0.5" d="M892.857 1904.76H1130.95C1164.29 1904.76 1190.48 1930.95 1190.48 1964.29C1190.48 1997.62 1164.29 2023.81 1130.95 2023.81H892.857C859.524 2023.81 833.333 1997.62 833.333 1964.29C833.333 1930.95 859.524 1904.76 892.857 1904.76Z" fill="#4D616E"/>
<path opacity="0.5" d="M1845.24 2380.95H2440.48C2473.81 2380.95 2500 2407.14 2500 2440.48C2500 2473.81 2473.81 2500 2440.48 2500H1845.24C1811.9 2500 1785.71 2473.81 1785.71 2440.48C1785.71 2407.14 1811.9 2380.95 1845.24 2380.95Z" fill="#4D616E"/>
<path opacity="0.5" d="M892.857 2380.95H1607.14C1640.48 2380.95 1666.67 2407.14 1666.67 2440.48C1666.67 2473.81 1640.48 2500 1607.14 2500H892.857C859.524 2500 833.333 2473.81 833.333 2440.48C833.333 2407.14 859.524 2380.95 892.857 2380.95Z" fill="#4D616E"/>
<path opacity="0.5" d="M892.857 714.286H1250C1283.33 714.286 1309.52 740.476 1309.52 773.81C1309.52 807.143 1283.33 833.333 1250 833.333H892.857C859.524 833.333 833.333 807.143 833.333 773.81C833.333 740.476 859.524 714.286 892.857 714.286Z" fill="#4D616E"/>
<path opacity="0.5" d="M892.857 952.381H1250C1283.33 952.381 1309.52 978.571 1309.52 1011.9C1309.52 1045.24 1283.33 1071.43 1250 1071.43H892.857C859.524 1071.43 833.333 1045.24 833.333 1011.9C833.333 978.571 859.524 952.381 892.857 952.381Z" fill="#4D616E"/>
</g>
<defs>
<clipPath id="clip0_7_32">
<rect width="2500" height="2500" fill="white"/>
</clipPath>
</defs>
</svg>
