<svg width="302" height="259" viewBox="0 0 302 259" fill="none" xmlns="http://www.w3.org/2000/svg">
<g clip-path="url(#clip0_34_416)">
<path d="M290.109 198.892C273.995 207.275 190.523 241.533 172.752 250.78C154.982 260.029 145.11 259.939 131.071 253.241C117.033 246.542 28.2041 210.727 12.2026 203.092C4.20591 199.278 0 196.057 0 193.015V162.552C0 162.552 115.645 137.423 134.314 130.737C152.983 124.052 159.46 123.81 175.347 129.619C191.237 135.43 286.237 152.538 301.939 158.278L301.931 188.311C301.934 191.322 298.311 194.626 290.109 198.892Z" fill="#912626"/>
<path d="M290.103 168.609C273.99 176.989 190.521 211.247 172.75 220.494C154.981 229.744 145.109 229.653 131.071 222.954C117.032 216.26 28.2065 180.439 12.2061 172.81C-3.7943 165.175 -4.12927 159.921 11.588 153.778C27.3054 147.632 115.644 113.038 134.315 106.352C152.984 99.6691 159.46 99.4254 175.347 105.236C191.236 111.045 274.207 144.01 289.907 149.749C305.612 155.495 306.215 160.227 290.103 168.609Z" fill="#C6302B"/>
<path d="M290.109 149.601C273.995 157.985 190.523 192.242 172.752 201.493C154.982 210.738 145.11 210.648 131.071 203.95C117.032 197.254 28.2041 161.436 12.2026 153.801C4.20591 149.987 0 146.771 0 143.727V113.261C0 113.261 115.645 88.133 134.314 81.4472C152.983 74.7615 159.46 74.519 175.347 80.3288C191.238 86.1387 286.238 103.243 301.939 108.985L301.931 139.021C301.934 142.031 298.311 145.334 290.109 149.601Z" fill="#912626"/>
<path d="M290.103 119.318C273.99 127.7 190.521 161.956 172.75 171.206C154.981 180.452 145.109 180.362 131.071 173.663C117.032 166.969 28.2065 131.149 12.2061 123.518C-3.7943 115.886 -4.12927 110.631 11.588 104.485C27.3054 98.3435 115.645 63.747 134.315 57.0624C152.984 50.3778 159.46 50.1353 175.347 55.9452C191.236 61.7538 274.207 94.7163 289.907 100.458C305.612 106.203 306.215 110.936 290.103 119.318Z" fill="#C6302B"/>
<path d="M290.109 98.4824C273.995 106.865 190.523 141.123 172.752 150.374C154.982 159.621 145.11 159.53 131.071 152.831C117.032 146.136 28.2041 110.316 12.2026 102.685C4.20591 98.8674 0 95.6499 0 92.6102V62.1423C0 62.1423 115.645 37.0158 134.314 30.3313C152.983 23.6443 159.46 23.4042 175.347 29.2128C191.238 35.0227 286.238 52.1273 301.939 57.8688L301.931 87.9034C301.934 90.9114 298.311 94.2148 290.109 98.4824Z" fill="#912626"/>
<path d="M290.103 68.1994C273.99 76.5816 190.521 110.84 172.75 120.087C154.981 129.333 145.109 129.242 131.071 122.547C117.033 115.848 28.2065 80.031 12.2073 72.3987C-3.79428 64.7677 -4.12806 59.5111 11.5881 53.3669C27.3054 47.2239 115.645 12.6321 134.315 5.94522C152.984 -0.740511 159.46 -0.980675 175.347 4.82917C191.236 10.639 274.207 43.6015 289.907 49.343C305.612 55.0834 306.215 59.8172 290.103 68.1994Z" fill="#C6302B"/>
<path d="M187.866 38.5639L161.906 41.254L156.095 55.2117L146.709 39.6364L116.733 36.9475L139.1 28.8961L132.389 16.5371L153.331 24.7121L173.072 18.2607L167.736 31.04L187.866 38.5639ZM154.545 106.278L106.097 86.2211L175.519 75.5844L154.545 106.278ZM87.3758 46.3221C107.869 46.3221 124.481 52.75 124.481 60.6778C124.481 68.6079 107.869 75.0346 87.3758 75.0346C66.8829 75.0346 50.2704 68.6067 50.2704 60.6778C50.2704 52.75 66.8829 46.3221 87.3758 46.3221Z" fill="white"/>
<path d="M218.546 42.3795L259.633 58.5858L218.581 74.7768L218.546 42.3795Z" fill="#621B1C"/>
<path d="M173.09 60.327L218.546 42.3795L218.581 74.7768L214.124 76.5168L173.09 60.327Z" fill="#9A2928"/>
</g>
<defs>
<clipPath id="clip0_34_416">
<rect width="302" height="259" fill="white"/>
</clipPath>
</defs>
</svg>
