<svg width="122" height="122" viewBox="0 0 122 122" fill="none" xmlns="http://www.w3.org/2000/svg">
<path d="M94.078 80.214L25.34 121.031L114.343 114.991L121.198 25.246L94.078 80.214Z" fill="url(#paint0_linear_30_368)"/>
<path d="M114.488 114.93L106.839 62.131L86.002 89.645L114.488 114.93Z" fill="url(#paint1_linear_30_368)"/>
<path d="M114.592 114.93L58.548 110.531L25.638 120.916L114.592 114.93Z" fill="url(#paint2_linear_30_368)"/>
<path d="M25.717 120.928L39.718 75.061L8.90799 81.649L25.717 120.928Z" fill="url(#paint3_linear_30_368)"/>
<path d="M85.996 89.797L73.114 39.337L36.248 73.895L85.996 89.797Z" fill="url(#paint4_linear_30_368)"/>
<path d="M118.275 40.047L83.426 11.585L73.722 42.958L118.275 40.047Z" fill="url(#paint5_linear_30_368)"/>
<path d="M101.978 1.437L81.481 12.764L68.551 1.285L101.978 1.437Z" fill="url(#paint6_linear_30_368)"/>
<path d="M0.802002 97.034L9.388 81.375L2.442 62.72L0.802002 97.034Z" fill="url(#paint7_linear_30_368)"/>
<path d="M1.98099 62.131L8.96799 81.952L39.333 75.14L74 42.922L83.783 11.847L68.38 0.969002L42.19 10.771C33.938 18.446 17.927 33.631 17.35 33.917C16.777 34.208 6.77499 53.112 1.98099 62.131Z" fill="white"/>
<path d="M26.519 26.521C44.401 8.791 67.456 -1.686 76.304 7.241C85.147 16.167 75.77 37.861 57.886 55.586C40.002 73.311 17.233 84.365 8.393 75.438C-0.456003 66.518 8.635 44.247 26.519 26.521Z" fill="url(#paint8_linear_30_368)"/>
<path d="M25.717 120.909L39.607 74.897L85.742 89.717C69.062 105.359 50.509 118.582 25.717 120.909Z" fill="url(#paint9_linear_30_368)"/>
<path d="M74.062 42.831L85.906 89.742C99.84 75.092 112.345 59.341 118.469 39.859L74.062 42.831Z" fill="url(#paint10_linear_30_368)"/>
<path d="M118.348 40.097C123.088 25.792 124.181 5.272 101.831 1.462L83.492 11.592L118.348 40.097Z" fill="url(#paint11_linear_30_368)"/>
<path d="M0.802002 96.828C1.458 120.436 18.491 120.787 25.747 120.995L8.988 81.855L0.802002 96.828Z" fill="#9E1209"/>
<path d="M74.128 42.904C84.836 49.485 106.414 62.702 106.851 62.945C107.531 63.328 116.155 48.403 118.112 39.969L74.128 42.904Z" fill="url(#paint12_radial_30_368)"/>
<path d="M39.589 74.897L58.159 110.725C69.139 104.77 77.738 97.514 85.613 89.742L39.589 74.897Z" fill="url(#paint13_radial_30_368)"/>
<path d="M8.91399 81.904L6.28299 113.235C11.247 120.016 18.077 120.606 25.243 120.077C20.059 107.177 9.70499 81.381 8.91399 81.904Z" fill="url(#paint14_linear_30_368)"/>
<path d="M83.384 11.67L120.275 16.847C118.306 8.504 112.26 3.12 101.955 1.437L83.384 11.67Z" fill="url(#paint15_linear_30_368)"/>
<defs>
<linearGradient id="paint0_linear_30_368" x1="106.58" y1="131.95" x2="81.182" y2="87.108" gradientUnits="userSpaceOnUse">
<stop stop-color="#FB7655"/>
<stop offset="0.41" stop-color="#E42B1E"/>
<stop offset="0.99" stop-color="#990000"/>
<stop offset="1" stop-color="#990000"/>
</linearGradient>
<linearGradient id="paint1_linear_30_368" x1="119.231" y1="94.28" x2="86.498" y2="72.315" gradientUnits="userSpaceOnUse">
<stop stop-color="#871101"/>
<stop offset="0.99" stop-color="#911209"/>
<stop offset="1" stop-color="#911209"/>
</linearGradient>
<linearGradient id="paint2_linear_30_368" x1="93.042" y1="133.31" x2="60.31" y2="111.345" gradientUnits="userSpaceOnUse">
<stop stop-color="#871101"/>
<stop offset="0.99" stop-color="#911209"/>
<stop offset="1" stop-color="#911209"/>
</linearGradient>
<linearGradient id="paint3_linear_30_368" x1="24.317" y1="78.378" x2="29.391" y2="111.356" gradientUnits="userSpaceOnUse">
<stop stop-color="white"/>
<stop offset="0.23" stop-color="#E57252"/>
<stop offset="0.46" stop-color="#DE3B20"/>
<stop offset="0.99" stop-color="#A60003"/>
<stop offset="1" stop-color="#A60003"/>
</linearGradient>
<linearGradient id="paint4_linear_30_368" x1="59.219" y1="47.587" x2="61.089" y2="81.243" gradientUnits="userSpaceOnUse">
<stop stop-color="white"/>
<stop offset="0.23" stop-color="#E4714E"/>
<stop offset="0.56" stop-color="#BE1A0D"/>
<stop offset="0.99" stop-color="#A80D00"/>
<stop offset="1" stop-color="#A80D00"/>
</linearGradient>
<linearGradient id="paint5_linear_30_368" x1="90.191" y1="16.477" x2="95.789" y2="40.599" gradientUnits="userSpaceOnUse">
<stop stop-color="white"/>
<stop offset="0.18" stop-color="#E46342"/>
<stop offset="0.4" stop-color="#C82410"/>
<stop offset="0.99" stop-color="#A80D00"/>
<stop offset="1" stop-color="#A80D00"/>
</linearGradient>
<linearGradient id="paint6_linear_30_368" x1="73.1" y1="7.982" x2="97.219" y2="-4.077" gradientUnits="userSpaceOnUse">
<stop stop-color="white"/>
<stop offset="0.54" stop-color="#C81F11"/>
<stop offset="0.99" stop-color="#BF0905"/>
<stop offset="1" stop-color="#BF0905"/>
</linearGradient>
<linearGradient id="paint7_linear_30_368" x1="3.174" y1="69.972" x2="5.16" y2="89.847" gradientUnits="userSpaceOnUse">
<stop stop-color="white"/>
<stop offset="0.31" stop-color="#DE4024"/>
<stop offset="0.99" stop-color="#BF190B"/>
<stop offset="1" stop-color="#BF190B"/>
</linearGradient>
<linearGradient id="paint8_linear_30_368" x1="-10.474" y1="95.219" x2="82.845" y2="-0.739003" gradientUnits="userSpaceOnUse">
<stop stop-color="#BD0012"/>
<stop offset="0.07" stop-color="white"/>
<stop offset="0.17" stop-color="white"/>
<stop offset="0.27" stop-color="#C82F1C"/>
<stop offset="0.33" stop-color="#820C01"/>
<stop offset="0.46" stop-color="#A31601"/>
<stop offset="0.72" stop-color="#B31301"/>
<stop offset="0.99" stop-color="#E82609"/>
<stop offset="1" stop-color="#E82609"/>
</linearGradient>
<linearGradient id="paint9_linear_30_368" x1="61.007" y1="104.898" x2="32.898" y2="97.961" gradientUnits="userSpaceOnUse">
<stop stop-color="#8C0C01"/>
<stop offset="0.54" stop-color="#990C00"/>
<stop offset="0.99" stop-color="#A80D0E"/>
<stop offset="1" stop-color="#A80D0E"/>
</linearGradient>
<linearGradient id="paint10_linear_30_368" x1="109.285" y1="71.163" x2="84.314" y2="48.783" gradientUnits="userSpaceOnUse">
<stop stop-color="#7E110B"/>
<stop offset="0.99" stop-color="#9E0C00"/>
<stop offset="1" stop-color="#9E0C00"/>
</linearGradient>
<linearGradient id="paint11_linear_30_368" x1="118.459" y1="30.099" x2="106.021" y2="16.801" gradientUnits="userSpaceOnUse">
<stop stop-color="#79130D"/>
<stop offset="0.99" stop-color="#9E120B"/>
<stop offset="1" stop-color="#9E120B"/>
</linearGradient>
<radialGradient id="paint12_radial_30_368" cx="0" cy="0" r="1" gradientUnits="userSpaceOnUse" gradientTransform="translate(88.203 49.211) scale(30.601 30.601)">
<stop stop-color="#A80D00"/>
<stop offset="0.99" stop-color="#7E0E08"/>
<stop offset="1" stop-color="#7E0E08"/>
</radialGradient>
<radialGradient id="paint13_radial_30_368" cx="0" cy="0" r="1" gradientUnits="userSpaceOnUse" gradientTransform="translate(45.825 89.535) scale(40.679 40.679)">
<stop stop-color="#A30C00"/>
<stop offset="0.99" stop-color="#800E08"/>
<stop offset="1" stop-color="#800E08"/>
</radialGradient>
<linearGradient id="paint14_linear_30_368" x1="17.009" y1="120.885" x2="6.87299" y2="86.494" gradientUnits="userSpaceOnUse">
<stop stop-color="#8B2114"/>
<stop offset="0.43" stop-color="#9E100A"/>
<stop offset="0.99" stop-color="#B3100C"/>
<stop offset="1" stop-color="#B3100C"/>
</linearGradient>
<linearGradient id="paint15_linear_30_368" x1="94.772" y1="6.924" x2="117.496" y2="16.955" gradientUnits="userSpaceOnUse">
<stop stop-color="#B31000"/>
<stop offset="0.44" stop-color="#910F08"/>
<stop offset="0.99" stop-color="#791C12"/>
<stop offset="1" stop-color="#791C12"/>
</linearGradient>
</defs>
</svg>
