<svg width="128" height="128" viewBox="0 0 128 128" fill="none" xmlns="http://www.w3.org/2000/svg">
<path d="M17.444 125.054C17.444 125.054 17.632 95.516 17.632 65.49C17.632 7.33099 12.731 2.99899 38.826 2.99899H111.461V86.888C111.461 114.503 116.623 125.321 87.602 125.321C58.581 125.322 17.444 125.054 17.444 125.054Z" fill="#A62C39"/>
<path d="M77.33 13.971C77.33 13.971 81.985 14.903 86.018 21.728C90.052 28.554 111.462 81.614 111.462 81.614V38.483L91.604 6.21301L97.189 13.04L107.739 4.35101L94.086 3.42102L77.33 13.971Z" fill="url(#paint0_linear_17_209)"/>
<path opacity="0.668" d="M36.062 3.73102C36.062 3.73102 66.781 24.21 81.675 28.244C91.8211 30.9998 101.957 33.7925 112.083 36.622L76.71 123.502L91.914 124.123L111.774 75.097L111.152 3.42102L36.062 3.73102Z" fill="url(#paint1_radial_17_209)"/>
<path d="M64.608 95.266L96.564 125.999L36.993 124.743C36.993 124.743 35.132 105.816 35.752 95.887L39.475 85.958L64.608 95.266Z" fill="white" fill-opacity="0.44"/>
<path d="M94.085 125.365L65.229 95.577L38.854 85.648L18.375 40.036L40.096 3.73199L25.512 3.11099L19.616 8.69699L17.444 13.041L15.892 125.986L94.085 125.365Z" fill="black" fill-opacity="0.362"/>
<path opacity="0.5" d="M111.773 77.89C111.773 77.89 82.606 87.199 65.23 95.887C47.854 104.575 38.545 125.674 38.545 125.674C38.545 125.674 75.779 123.813 89.742 124.433C103.705 125.054 110.221 125.054 111.462 105.506C112.703 85.958 111.773 77.89 111.773 77.89Z" fill="#83222D"/>
<path d="M26.435 96.422V114.748H31.109V109.975L35.363 114.229H42.535L36.847 108.541C36.847 108.541 40.94 108.474 41.249 102.557C41.249 97.127 37.152 96.423 32.419 96.423L26.435 96.422ZM31.332 101.393H35.363V104.658H31.332V101.393ZM51.562 96.496C49.003 96.481 45.454 96.719 45.454 101.541V114.278H50.251V111.162H54.901V114.204H59.723V100.85C59.723 96.661 55.069 96.497 52.576 96.497L51.562 96.496ZM50.325 101.096H54.826V106.117H50.325V101.096ZM64.531 96.507H69.495V114.038H64.531V96.507ZM74.692 96.741V114.272H86.639V109.618H79.58V96.663L74.692 96.741ZM102.463 96.585V101.317H94.473V103.024H97.886C99.671 103.024 103.394 102.947 103.394 108.532C103.394 114.117 100.833 114.428 95.636 114.428H89.353V110.161H96.567C98.739 110.161 98.859 109.453 98.859 108.837C98.859 108.222 97.749 107.935 95.49 107.935C93.231 107.935 89.043 106.825 89.043 102.481C89.043 98.137 91.215 96.508 95.559 96.508C99.904 96.507 102.463 96.585 102.463 96.585Z" fill="white"/>
<path d="M30.787 91.233H72.056C72.056 91.233 62.902 70.444 65.23 51.36C67.556 32.278 82.606 23.589 91.139 22.658C99.672 21.727 104.326 27.002 104.326 27.002L106.187 24.21C106.187 24.21 93.931 11.798 78.416 13.195C62.902 14.59 52.197 24.83 45.526 37.241C38.855 49.653 34.976 58.342 32.338 71.373C29.701 84.406 30.787 91.233 30.787 91.233ZM22.565 70.444L30.631 71.064L29.235 79.132L21.633 78.201L22.565 70.444ZM35.286 53.377L37.458 47.327L30.321 44.534L27.994 51.05L35.286 53.377ZM45.37 32.588L49.559 27.623L44.129 24.055L39.786 28.865L45.37 32.588ZM56.385 13.351L60.109 17.85L65.229 14.903L61.505 10.714L56.385 13.351ZM74.538 8.231L75.468 12.73L81.829 12.575L81.209 8.541L74.538 8.231Z" fill="white"/>
<path d="M96.102 13.04L95.947 15.832L100.29 18.16L101.221 16.764L96.102 13.04ZM95.172 24.986V27.313L99.361 27.778V25.917L95.172 24.986ZM81.829 27.002L83.846 30.726L86.794 28.399L86.173 25.917L81.829 27.002ZM75.468 31.812L78.571 36.467L76.709 39.724L72.21 34.759L75.468 31.812ZM69.262 44.69L67.245 48.723L72.52 53.223L73.761 48.102L69.262 44.69ZM67.09 58.807L66.78 64.237L73.296 67.029L72.985 61.91L67.09 58.807ZM68.952 78.045L70.504 83.631L78.727 84.096L75.778 78.045H68.952Z" fill="white"/>
<path d="M17.444 125.054C17.444 125.054 17.632 95.516 17.632 65.49C17.632 7.33099 12.731 2.99899 38.826 2.99899H111.461V86.888C111.461 114.503 115.382 125.321 87.602 125.321C59.822 125.322 17.444 125.054 17.444 125.054Z" stroke="#5E000E" stroke-width="3"/>
<defs>
<linearGradient id="paint0_linear_17_209" x1="87.391" y1="50.575" x2="109.903" y2="38.783" gradientUnits="userSpaceOnUse">
<stop stop-color="white"/>
<stop offset="1" stop-color="#C0815E"/>
</linearGradient>
<radialGradient id="paint1_radial_17_209" cx="0" cy="0" r="1" gradientUnits="userSpaceOnUse" gradientTransform="translate(74.072 63.2694) scale(38.406 60.7583)">
<stop stop-color="white"/>
<stop offset="1" stop-color="#A94436"/>
</radialGradient>
</defs>
</svg>
