<svg width="145" height="146" viewBox="0 0 145 146" fill="none" xmlns="http://www.w3.org/2000/svg">
<path fill-rule="evenodd" clip-rule="evenodd" d="M71.3198 0.276368C71.0574 0.430002 69.9564 2.01942 68.872 3.80855C66.1506 8.30164 66.1201 8.30443 62.4643 4.43426C60.0859 1.91746 59.5111 1.45656 58.7447 1.46214C58.2462 1.46494 57.6172 1.63533 57.3451 1.84064C57.0744 2.04595 56.3066 3.68006 55.6401 5.47198C54.1142 9.5768 54.0406 9.70948 53.195 9.87289C52.6744 9.97206 51.6719 9.41059 49.2685 7.67453C47.4941 6.39099 45.753 5.34209 45.4003 5.34209C43.9369 5.34209 43.5245 6.14658 42.8275 10.3603C41.9417 15.718 41.9722 15.6998 37.171 13.5056C35.2327 12.6215 33.3944 11.8967 33.0848 11.8967C32.7752 11.8967 32.1879 12.2319 31.7811 12.6411C31.0424 13.3855 31.041 13.3883 31.2423 17.4847L31.4451 21.5854L30.6745 22.0002C29.9913 22.3675 29.5207 22.3228 26.4966 21.6035C22.5493 20.6664 21.7162 20.6915 20.9165 21.7739L20.3319 22.5644L21.1164 25.9458C21.5468 27.8047 21.962 29.5953 22.0397 29.9235C22.1161 30.2503 21.9842 30.7741 21.7454 31.0855C21.3511 31.5981 20.9317 31.6442 17.2787 31.5883C11.096 31.4906 10.7447 32.0241 13.2995 37.6331C14.1117 39.4139 14.7768 41.0312 14.7768 41.2253C14.7768 42.2505 13.9645 42.6234 10.4753 43.196C8.5232 43.5159 6.82652 43.7785 6.70433 43.7785C6.58215 43.7785 6.2156 44.0466 5.8907 44.3734C4.82854 45.4419 5.12984 46.4447 7.53879 49.8651C10.5392 54.125 10.5337 54.1404 5.57692 56.0482C-0.0601702 58.2172 -0.174021 58.7522 4.11766 62.8472C8.11499 66.6601 8.11916 66.6042 3.59422 69.466C0.166145 71.6323 0.113387 71.6839 0.0259149 72.8585C-0.0796069 74.2873 -0.0546148 74.3125 4.03852 76.8279C8.08584 79.3139 8.08584 79.3894 4.11349 83.1701C-0.158748 87.2345 -0.026846 87.828 5.6144 89.9691C10.5434 91.8393 10.5503 91.8616 7.54434 96.1215C5.84072 98.5363 5.29784 99.5419 5.29784 100.288C5.29784 101.683 6.01983 102.039 10.3337 102.768C13.9673 103.384 14.7768 103.746 14.7768 104.754C14.7768 104.961 14.1103 106.592 13.2953 108.377C10.76 113.932 11.0488 114.394 17.0497 114.394C22.6381 114.394 22.4896 114.222 21.2858 119.292C20.3778 123.114 20.3639 123.845 21.1858 124.671C21.8148 125.305 23.0005 125.234 26.7091 124.341C29.5415 123.661 30.0386 123.614 30.6953 123.967L31.4451 124.371L31.2423 128.47C31.041 132.568 31.0424 132.57 31.7811 133.315C32.1879 133.724 32.7835 134.059 33.1029 134.059C33.4222 134.059 35.2605 133.339 37.189 132.457C41.975 130.271 41.9445 130.253 42.8275 135.594C43.5273 139.827 43.9355 140.614 45.4295 140.614C45.8002 140.614 47.5038 139.608 49.2172 138.379C52.2259 136.22 53.0062 135.882 53.8073 136.394C54.0142 136.526 54.8167 138.3 55.5901 140.336C56.7273 143.33 57.1438 144.11 57.7769 144.414C58.9821 144.995 59.7277 144.529 62.5601 141.425C65.9798 137.678 66.1201 137.696 68.9122 142.248C71.996 147.273 72.7943 147.262 75.9558 142.146C78.68 137.738 78.648 137.741 82.3302 141.61C84.7752 144.177 85.2959 144.586 86.1206 144.586C86.6469 144.586 87.2758 144.388 87.516 144.145C87.7576 143.902 88.5574 142.107 89.2932 140.157C90.0291 138.206 90.7914 136.508 90.9885 136.382C91.7674 135.883 92.5741 136.234 95.5787 138.379C97.3476 139.643 99.0123 140.614 99.4081 140.614C100.877 140.614 101.407 139.565 102.018 135.442C102.54 131.927 102.646 131.59 103.333 131.239C104.009 130.894 104.415 131.01 107.586 132.459C109.515 133.339 111.353 134.059 111.672 134.059C111.992 134.059 112.597 133.714 113.015 133.292L113.777 132.527L113.567 128.595C113.367 124.841 113.386 124.64 113.981 124.098C114.593 123.541 114.656 123.544 118.08 124.33C122.226 125.283 122.999 125.308 123.778 124.524C124.539 123.759 124.531 123.591 123.489 119.174C122.322 114.218 122.165 114.394 127.777 114.394C131.602 114.394 132.028 114.34 132.516 113.799C133.329 112.894 133.136 111.858 131.499 108.348C130.673 106.58 130.002 104.971 130.008 104.772C130.036 103.729 130.851 103.373 134.618 102.757C136.922 102.381 138.647 101.946 138.959 101.662C140.006 100.711 139.622 99.4735 137.232 96.1033C134.237 91.8798 134.25 91.8393 139.045 90.0613C144.788 87.9328 144.952 87.2233 140.655 83.1157C136.674 79.3111 136.673 79.3321 141.032 76.6393C146.303 73.3851 146.311 72.6518 141.125 69.4143C136.666 66.6308 136.668 66.6699 140.666 62.8514C144.953 58.7536 144.837 58.2172 139.198 56.0482C134.222 54.1334 134.207 54.0859 137.231 49.9112C139.031 47.4252 139.477 46.5997 139.477 45.7478C139.477 44.2589 138.814 43.9251 134.448 43.2156C130.801 42.6234 129.998 42.2631 129.998 41.2198C129.998 41.0214 130.665 39.425 131.48 37.6694C133.075 34.2322 133.299 32.8565 132.396 32.0339C131.912 31.5925 131.262 31.5297 127.785 31.5869C124.147 31.6484 123.682 31.5967 123.178 31.0869C122.627 30.5296 122.633 30.4514 123.493 26.8382C124.549 22.4108 124.553 22.3033 123.685 21.4834C122.805 20.651 122.255 20.665 118.213 21.6217C115.268 22.32 114.781 22.3661 114.112 22.0058L113.352 21.5965L113.562 17.5099L113.773 13.4246L113.013 12.6606C112.596 12.2402 112.003 11.8967 111.694 11.8967C111.388 11.8967 109.559 12.6271 107.632 13.5182C104.413 15.0084 104.068 15.1076 103.372 14.7417C102.678 14.3758 102.563 14.0154 101.97 10.3743C101.285 6.16194 100.862 5.34209 99.3747 5.34209C99.0221 5.34209 97.274 6.39658 95.4899 7.68571C92.5602 9.80306 92.1673 10.0028 91.437 9.74719C90.833 9.5349 90.4817 9.0726 90.0527 7.92314C89.7348 7.07676 89.1266 5.44545 88.699 4.29878C87.8354 1.9859 87.3536 1.46773 86.0595 1.46773C85.3376 1.46773 84.6836 1.99009 82.3399 4.43845C78.6564 8.28767 78.6425 8.28627 75.9336 3.81693C74.8506 2.03059 73.719 0.435589 73.4177 0.273575C72.7402 -0.0923526 71.9432 -0.0909559 71.3198 0.276368ZM74.6771 13.7333C77.8858 16.0308 76.1794 21.4317 72.2445 21.4317C68.4263 21.4317 66.5033 16.8046 69.2302 14.1774C70.7686 12.6942 72.9748 12.514 74.6771 13.7333ZM70.6422 27.9989C72.7457 28.8034 73.6094 28.3201 78.412 23.6636L82.0206 20.1636L83.5478 20.3675C88.338 21.0071 97.8655 25.2167 103.34 29.112C108.37 32.6931 115.056 39.9865 117.905 45.0019L118.514 46.076L115.815 52.1934C114.33 55.558 113.115 58.6642 113.115 59.0985C113.115 60.0999 113.767 61.6838 114.396 62.2075C114.662 62.4296 117.182 63.6503 119.996 64.9199L125.111 67.2299L125.312 68.5386C125.572 70.244 125.607 74.4326 125.371 75.6225L125.186 76.5527H122.266C118.88 76.5527 119.141 76.2482 118.957 80.4271C118.824 83.4565 118.097 85.1311 116.441 86.2149C113.745 87.9845 109.292 87.6632 107.404 85.564C107.114 85.2414 106.55 83.6199 106.15 81.9592C104.983 77.1086 103.414 74.3851 100.262 71.7356C99.2664 70.899 98.4528 70.1183 98.4528 69.9995C98.4528 69.8822 99.5469 68.9548 100.885 67.9422C105.759 64.2467 108.561 59.9449 108.869 55.6837C109.456 47.5565 103.019 39.9809 93.4447 37.5256C91.1746 36.9432 90.2054 36.925 62.1214 36.925C46.182 36.925 33.1403 36.8202 33.1403 36.6932C33.1403 36.3929 36.6823 32.9347 38.7691 31.2C44.4992 26.4346 51.9427 22.6845 59.6513 20.6817L62.3171 19.9876L66.1048 23.8508C68.1889 25.9751 70.2313 27.8411 70.6422 27.9989ZM22.9478 52.8554C24.693 54.0049 25.4081 56.8932 24.3779 58.6293C22.7839 61.3164 18.7463 61.4296 17.151 58.8318C14.8309 55.058 19.2989 50.4504 22.9478 52.8554ZM125.762 53.0021C130.327 55.8024 126.79 62.6908 121.902 60.5162C118.639 59.0636 118.535 54.5775 121.726 52.9406C123.057 52.2576 124.588 52.2814 125.762 53.0021ZM36.399 70.1476V87.2791H21.3427L20.7457 84.673C19.5711 79.5402 19.0768 74.2301 19.3725 69.8808L19.5794 66.8249L24.7555 64.4897C28.0031 63.026 30.0913 61.91 30.3607 61.4952C31.5381 59.6893 31.4256 58.3988 29.7734 54.7284L29.0014 53.0146H36.399V70.1476ZM79.7463 53.7605C82.9703 54.604 84.6739 56.3206 84.678 58.727C84.6808 60.4938 83.8103 61.6028 81.6512 62.5832C80.1226 63.2788 79.8796 63.2955 70.2396 63.3905L60.3914 63.4855V53.3121H69.2149C76.1072 53.3121 78.4134 53.4099 79.7463 53.7605ZM76.4196 78.3447C78.0177 78.7916 79.9073 80.1883 80.8765 81.6394C81.8942 83.1646 82.4898 85.1478 83.9005 91.7178C85.0918 97.2709 85.8582 99.0866 88.0048 101.45C90.6636 104.376 90.0472 104.263 103.329 104.263C109.689 104.263 114.892 104.365 114.892 104.49C114.892 104.715 110.511 109.925 110.323 109.925C110.268 109.925 107.98 109.443 105.238 108.854C97.4948 107.19 97.2157 107.386 95.4385 115.734L94.2958 121.097L93.2642 121.608C91.5425 122.463 85.9471 124.222 83.0466 124.823C78.2537 125.815 73.0373 126.15 68.4527 125.76C60.6371 125.094 50.2876 122.044 49.8836 120.285C49.7975 119.912 49.2769 117.499 48.7284 114.921C48.1786 112.342 47.5107 109.897 47.2442 109.486C45.9626 107.52 44.6145 107.398 38.6858 108.718C36.4407 109.218 34.4816 109.626 34.3316 109.626C34.0498 109.626 29.8831 104.779 29.8831 104.453C29.8831 104.351 39.7799 104.232 51.876 104.19L73.869 104.115L73.9481 96.2555C74.0037 90.7066 73.9273 88.275 73.6885 87.9873C73.4219 87.6632 72.0029 87.578 66.8712 87.578H60.3914V78.043L67.8709 78.0444C71.9835 78.0458 75.8309 78.1812 76.4196 78.3447ZM42.5304 114.084C46.0279 116.228 44.3506 121.845 40.2145 121.841C35.9728 121.838 34.4011 116.273 38.0152 114.055C39.2106 113.321 41.3113 113.335 42.5304 114.084ZM106.574 114.319C108.289 115.583 108.859 118.213 107.797 119.964C105.008 124.566 98.0321 120.908 100.362 116.066C101.507 113.687 104.552 112.83 106.574 114.319Z" fill="black"/>
</svg>
