<svg width="115" height="128" viewBox="0 0 115 128" fill="none" xmlns="http://www.w3.org/2000/svg">
<path d="M62.5 99.176C62.441 98.446 62.406 97.976 62.406 97.976C62.406 97.976 60.2 83.087 57.57 78.642C57.156 77.935 57.613 75.048 58.777 70.762C59.457 71.931 62.317 76.954 62.895 78.572C63.543 80.396 63.675 80.919 63.675 80.919C63.675 80.919 62.105 72.837 59.531 68.122C60.1566 66.0203 60.8247 63.9316 61.535 61.857C62.508 63.567 64.848 67.716 65.363 69.157C65.465 69.45 65.555 69.7 65.633 69.931C65.656 69.794 65.683 69.657 65.707 69.517C65.117 67.013 63.957 62.657 62.371 59.435C65.891 41.107 77.902 16.611 90.211 5.681H9.89999C4.51299 5.681 0.110992 10.087 0.110992 15.47V104.04C0.110992 109.423 4.51699 113.829 9.90099 113.829H62.798C62.3972 108.956 62.298 104.062 62.501 99.177" fill="#0B7FCC"/>
<path d="M58.777 70.762C59.457 71.93 62.317 76.95 62.894 78.571C63.543 80.395 63.675 80.918 63.675 80.918C63.675 80.918 62.105 72.836 59.531 68.121C60.1571 66.0178 60.8253 63.9274 61.535 61.851C62.422 63.418 64.457 67.02 65.187 68.723L65.269 67.762C64.621 65.266 63.636 61.996 62.371 59.434C65.613 42.563 76.051 20.464 87.297 8.536H9.899C8.06065 8.53758 6.29803 9.2685 4.99803 10.5683C3.69802 11.8681 2.96685 13.6306 2.965 15.469V97.579C20.492 90.848 41.629 84.699 59.82 84.965C59.148 82.36 58.379 80.005 57.57 78.641C57.156 77.934 57.613 75.044 58.777 70.762Z" fill="url(#paint0_linear_34_448)"/>
<path d="M108.95 2.78099C103.45 -2.12501 96.786 -0.152007 90.216 5.67999C89.2013 6.58776 88.2289 7.54177 87.302 8.53899C76.052 20.465 65.618 42.562 62.376 59.434C63.638 61.997 64.626 65.266 65.27 67.762C65.438 68.402 65.59 69.004 65.712 69.516C65.997 70.723 66.149 71.512 66.149 71.512C66.149 71.512 66.048 71.129 65.634 69.93C65.556 69.7 65.466 69.446 65.364 69.157C65.321 69.032 65.259 68.883 65.192 68.723C64.458 67.02 62.427 63.418 61.536 61.856C60.774 64.106 60.099 66.216 59.532 68.121C62.11 72.836 63.681 80.918 63.681 80.918C63.681 80.918 63.544 80.395 62.899 78.571C62.321 76.95 59.458 71.931 58.782 70.762C57.618 75.043 57.157 77.934 57.575 78.642C58.384 80.004 59.149 82.364 59.825 84.965C61.349 90.832 62.411 97.977 62.411 97.977C62.411 97.977 62.442 98.446 62.505 99.177C62.302 104.062 62.4012 108.955 62.802 113.828C63.306 119.938 64.255 125.191 65.466 128L66.294 127.551C64.513 122.016 63.79 114.758 64.106 106.395C64.586 93.602 67.528 78.18 72.962 62.106C82.153 37.836 94.9 18.368 106.564 9.07099C95.931 18.673 81.541 49.755 77.232 61.266C72.412 74.157 68.994 86.25 66.931 97.84C70.481 86.977 81.978 82.31 81.978 82.31C81.978 82.31 87.615 75.352 94.205 65.422C90.255 66.325 83.775 67.864 81.607 68.774C78.407 70.118 77.54 70.574 77.54 70.574C77.54 70.574 87.911 64.262 96.81 61.403C109.044 42.133 122.372 14.755 108.951 2.78199" fill="#003956"/>
<defs>
<linearGradient id="paint0_linear_34_448" x1="51.5901" y1="10.3502" x2="51.5901" y2="92.6228" gradientUnits="userSpaceOnUse">
<stop stop-color="#95D7F4"/>
<stop offset="0.92" stop-color="#0F7FCC"/>
<stop offset="1" stop-color="#0F7FCC"/>
</linearGradient>
</defs>
</svg>
