<svg width="995" height="1088" viewBox="0 0 995 1088" fill="none" xmlns="http://www.w3.org/2000/svg">
<path d="M627.462 507.574L409.853 578.851L220.322 662.547L167.405 676.586C153.906 689.545 139.866 702.505 124.207 715.464C107.468 730.043 91.8089 743.003 79.9295 752.722C66.4302 763.522 46.9911 782.961 36.7317 795.38C21.6124 814.279 9.73296 834.258 4.8732 849.377C-4.30634 876.916 0.0134954 904.994 17.8326 930.913C39.9715 963.852 84.7892 997.33 136.627 1020.01C163.085 1031.89 207.903 1046.47 241.381 1055.11C296.999 1069.15 404.993 1084.81 464.39 1086.97C476.269 1087.51 492.469 1087.51 493.009 1086.97C494.089 1085.89 503.808 1068.61 514.068 1046.47C550.786 971.951 576.704 901.755 591.284 842.358C599.923 806.179 606.403 758.122 611.263 700.885C612.343 684.686 612.883 631.228 611.803 613.409C610.183 583.711 607.483 559.952 603.703 536.193C603.163 532.953 602.623 529.713 603.163 529.713C603.703 529.173 605.863 528.633 632.862 521.074L627.462 507.574ZM577.784 536.733C579.944 536.733 584.804 587.491 586.424 619.349C586.964 625.829 586.424 630.688 586.424 630.688C585.344 630.688 558.885 615.029 539.446 603.15C523.247 592.89 491.929 571.831 487.069 568.052C485.449 566.972 485.449 566.972 498.948 562.112C521.627 554.012 575.624 536.733 577.784 536.733ZM466.55 573.451C468.17 573.451 471.95 575.611 481.129 581.011C515.148 602.07 561.045 627.988 581.024 636.628C586.964 639.328 587.504 638.248 574.005 647.967C544.306 668.486 506.508 688.465 461.15 708.444C453.051 712.224 446.571 714.924 446.031 714.924C445.491 714.924 446.571 710.604 448.191 705.745C458.99 664.707 465.47 623.129 466.01 590.19C464.93 573.451 464.93 573.451 466.55 573.451ZM443.871 582.091C444.951 583.171 444.411 619.889 442.791 630.148C440.091 653.907 435.232 676.586 427.672 701.965C426.052 707.904 424.432 713.304 423.892 713.304C423.352 714.384 400.673 692.245 393.114 683.606C380.154 669.026 370.435 653.907 362.875 639.328C359.095 631.768 353.156 617.189 353.696 617.189C356.395 615.029 443.331 581.551 443.871 582.091ZM336.417 624.209C337.497 624.749 338.576 627.449 339.116 630.148C344.516 644.728 356.396 665.787 366.655 678.746C377.995 693.325 392.574 709.524 404.453 719.784C408.233 723.024 412.013 726.264 412.553 726.804C413.633 727.883 413.633 727.883 387.174 737.603C355.856 749.482 322.377 761.362 283.499 773.781C274.32 777.021 265.14 779.721 255.961 782.961C254.341 783.501 254.881 782.421 259.2 775.941C278.639 745.703 307.798 686.846 323.997 644.728C326.697 637.708 329.397 630.148 329.937 628.528C330.477 626.369 331.557 625.289 333.717 624.209C334.797 624.749 335.877 624.209 336.417 624.209ZM303.478 637.708C304.018 638.248 295.379 655.527 287.279 671.726C271.08 703.045 253.801 733.283 230.582 770.541C226.802 777.021 223.022 782.961 222.482 783.501C221.402 784.581 221.402 784.581 218.702 779.181C213.303 768.381 208.443 753.802 206.283 740.843C203.583 727.883 204.123 705.745 207.363 691.705C209.523 681.446 209.523 681.446 214.383 679.286C234.362 669.026 302.398 637.168 303.478 637.708ZM586.964 649.587V656.607C586.964 693.325 583.184 743.543 577.245 780.261C576.165 786.74 575.624 792.14 575.085 792.14C575.085 792.14 570.225 791.06 564.825 789.44C539.986 781.881 513.528 770.541 489.229 757.042C473.03 748.402 449.811 733.823 450.891 733.283C450.891 733.283 457.91 729.503 466.01 725.184C498.408 708.444 529.187 690.085 556.185 672.266C566.445 665.787 581.564 654.447 584.804 651.747L586.964 649.587ZM179.284 698.185C179.824 698.185 179.824 699.265 178.744 705.205C178.204 709.524 177.125 717.624 177.125 723.024C176.045 746.783 179.824 764.602 191.704 788.9C194.944 795.38 197.643 801.32 197.643 801.32C196.564 802.4 87.4891 834.258 53.4708 843.438C43.2113 846.138 34.5717 848.837 33.4918 848.837C32.4118 849.377 32.4119 848.837 32.4119 846.138C36.1917 821.839 54.5507 790.52 80.4694 763.522C97.7485 745.703 111.248 735.443 134.467 721.944C151.206 713.304 176.585 698.725 179.284 698.185C178.744 698.185 178.744 698.185 179.284 698.185ZM435.772 744.083C435.772 744.083 440.091 746.243 444.411 748.942C479.509 769.461 528.647 788.36 570.225 798.08L574.005 799.16L568.605 801.86C546.466 814.279 474.65 843.978 401.213 871.516C390.414 875.296 380.154 879.616 377.994 880.156C375.835 881.236 374.215 881.236 374.215 881.236C374.215 881.236 376.914 875.296 380.694 868.276C401.213 829.938 421.732 782.961 432.532 750.562C434.692 746.782 435.772 744.083 435.772 744.083ZM409.853 752.722C409.853 752.722 408.773 756.502 407.153 760.282C392.574 794.84 374.215 832.638 349.916 875.296C343.976 886.096 338.576 894.735 338.576 894.735C338.576 894.735 333.717 892.035 327.777 888.255C292.679 866.656 261.9 840.738 241.921 814.819L239.221 811.039L254.341 806.72C307.798 792.14 353.696 776.481 399.053 757.042C403.913 754.882 409.313 752.722 409.853 752.722ZM572.385 809.419C572.385 813.199 564.285 847.217 557.265 871.516C551.326 892.035 546.466 908.234 537.286 936.853C533.507 949.272 529.727 959.532 529.727 959.532C529.727 959.532 528.647 959.532 527.567 958.992C478.969 950.352 434.692 937.933 393.654 921.194C382.314 916.334 365.575 909.314 364.495 908.234C363.955 907.694 374.215 903.375 386.634 897.975C461.69 865.037 538.906 828.318 565.905 812.119C569.145 810.499 571.845 809.419 572.385 809.419ZM197.104 822.379C197.644 822.919 176.585 852.617 147.426 893.655C137.167 908.234 125.287 924.973 120.967 930.913C116.648 937.393 109.628 947.112 105.848 953.052L98.8285 963.852L91.2689 957.372C82.6293 950.352 67.5101 934.693 60.4904 926.053C46.4511 908.234 36.7316 889.875 32.9518 873.136C31.3319 865.037 31.3319 861.257 32.9518 860.717C35.6516 860.177 79.3895 849.917 120.427 840.198C143.106 834.798 169.565 828.858 179.284 826.158C189.004 823.999 196.564 822.379 197.104 822.379ZM218.162 830.478L223.562 836.418C247.321 862.877 271.62 882.316 300.778 899.595C306.178 902.295 309.958 904.995 309.418 905.535C308.338 906.615 207.903 942.253 160.925 957.912C135.007 967.091 113.408 974.651 112.868 974.651L109.628 972.491L106.928 970.331L111.788 963.312C127.447 941.173 146.886 916.334 189.004 865.577L218.162 830.478ZM349.376 924.434C349.376 924.434 356.936 927.134 365.575 930.373C387.174 938.473 403.913 943.333 426.592 949.272C454.671 956.292 495.169 963.312 518.927 965.472C522.707 966.012 524.327 966.011 523.787 966.551C522.707 967.091 498.408 975.191 480.589 981.131C452.511 989.77 366.115 1015.69 295.379 1035.67C282.419 1039.45 271.08 1042.69 270.54 1042.69C268.92 1043.23 263.52 1041.61 263.52 1041.07C263.52 1040.53 267.3 1035.67 272.16 1030.27C295.919 1002.19 319.137 970.331 339.116 940.633C344.516 930.913 349.376 924.434 349.376 924.434ZM320.217 924.974C320.217 924.974 308.878 943.873 288.359 976.271C279.719 989.77 270 1005.43 266.22 1010.83C262.98 1016.23 258.121 1024.33 255.421 1029.19L250.561 1037.83L247.861 1037.29C241.921 1035.67 200.343 1021.09 189.544 1016.77C176.045 1011.37 162.005 1004.89 151.206 998.95C138.247 991.93 121.507 981.131 123.127 981.131C123.667 981.131 145.806 974.651 173.345 967.631C245.161 948.192 285.119 936.853 311.578 928.213C315.898 926.053 320.217 924.974 320.217 924.974ZM524.867 973.031C525.947 974.651 498.948 1048.63 489.229 1071.85C487.069 1077.25 486.529 1078.33 484.909 1078.33C482.209 1078.33 443.331 1072.93 420.112 1069.15C379.074 1062.67 310.498 1050.79 293.219 1047.01L289.439 1045.93L313.738 1040.53C366.655 1028.65 391.494 1022.17 417.413 1014.61C449.811 1004.89 481.669 992.47 514.068 977.351C519.467 975.191 523.787 973.031 524.867 973.031Z" fill="url(#paint0_linear_34_404)"/>
<path d="M402.833 0.540025C399.053 5.22411e-05 340.736 21.059 302.938 36.1782C252.181 56.6972 212.763 76.6762 188.464 93.9553C179.285 100.435 167.945 111.774 166.325 116.094C165.785 117.714 165.245 119.874 165.245 121.494L187.384 142.553L239.762 159.292L364.495 181.431L507.048 205.73L508.668 193.31H507.588L488.689 190.61L484.909 184.131C465.47 150.113 443.871 107.455 431.452 78.8361C421.732 56.6972 412.553 30.7785 407.693 12.4194C404.993 1.07998 404.453 0.540025 402.833 0.540025ZM400.133 8.63962C400.673 8.63962 401.213 13.4994 401.753 18.8991C404.453 42.1179 409.853 64.2568 417.953 88.0156C423.892 106.375 423.892 105.295 416.873 103.135C400.133 98.2751 325.077 85.3158 270.54 77.7562C261.9 76.6762 254.341 75.5963 254.341 75.0563C253.801 74.5163 293.759 53.4574 311.038 45.3578C333.717 35.0983 395.814 9.71956 400.133 8.63962ZM241.381 82.6159L247.861 84.7758C282.959 96.6552 370.435 113.394 419.032 117.174C424.432 117.714 429.292 118.254 429.292 118.254C429.292 118.254 424.972 120.954 419.032 123.654C395.814 135.533 369.895 149.573 352.076 160.912C346.676 164.152 341.816 166.852 341.276 166.852C340.736 166.852 336.957 166.312 333.717 165.772L327.237 164.692L311.038 148.493C281.879 120.414 259.201 98.8151 250.561 90.1755L241.381 82.6159ZM234.902 87.4756L258.121 116.634C270.54 132.833 283.499 147.953 286.199 151.732C288.899 154.972 291.059 158.212 291.059 158.212C290.519 158.752 257.581 152.272 240.302 148.493C222.482 144.173 214.923 142.553 204.123 138.773L194.944 136.073V133.913C194.944 123.114 208.983 106.375 232.742 89.6355L234.902 87.4756ZM431.992 126.894C432.532 126.894 433.612 128.514 435.232 132.833C440.631 145.253 458.451 178.191 462.77 184.671C463.85 186.831 466.55 186.831 443.331 183.051C387.714 173.871 369.895 171.171 369.895 170.631C369.895 170.631 371.515 169.552 373.675 167.932C390.954 158.212 408.233 146.333 423.892 133.373C427.672 130.134 430.912 127.434 431.992 126.894Z" fill="url(#paint1_linear_34_404)"/>
<path d="M167.405 113.394C167.405 113.394 163.625 119.334 167.405 127.974C169.565 133.373 176.045 139.853 183.064 146.333C183.064 146.333 256.501 217.609 265.14 227.869C305.638 274.846 323.457 320.744 325.077 383.921C326.157 424.959 318.598 460.597 299.159 502.175C265.14 576.691 192.784 659.307 81.5494 750.562L97.7486 745.163C108.008 737.063 122.587 728.963 156.066 710.604C233.822 667.946 320.757 629.068 427.672 589.11C581.564 531.333 834.812 463.297 978.984 441.158L994.104 438.998L991.944 435.218C978.984 414.699 969.805 402.28 959.005 388.78C927.687 349.362 889.349 318.044 842.371 291.585C778.114 255.407 694.419 227.329 588.584 206.27C568.605 202.49 524.867 194.93 489.229 189.531C413.633 177.651 365.035 169.552 311.578 160.372C292.139 157.132 263.52 152.272 244.621 147.953C234.902 145.793 216.003 141.473 200.883 136.073C187.924 132.293 171.185 127.434 167.405 113.394ZM210.063 154.972C210.063 154.972 212.763 156.052 216.543 157.132C223.022 159.292 231.122 161.992 240.302 164.152C247.321 166.312 254.881 167.932 261.9 170.091C271.62 172.791 280.259 174.951 280.259 174.951C281.339 176.031 298.079 229.489 303.478 249.468C305.638 257.027 307.258 264.047 307.258 264.047C307.258 264.047 305.098 261.347 302.938 257.567C283.499 223.549 253.261 189.531 218.163 161.452C213.303 157.672 210.063 154.972 210.063 154.972ZM291.059 177.111C292.139 177.111 295.379 177.651 299.699 178.731C327.777 185.211 377.995 194.39 409.853 199.79C415.253 200.87 419.572 201.41 419.572 201.95C419.572 202.49 417.413 203.57 415.253 204.65C409.853 207.35 387.714 220.309 380.694 225.169C362.335 237.588 346.136 250.547 334.257 262.427L325.617 271.066C325.617 271.066 324.537 268.367 323.997 264.587C318.058 241.908 305.638 207.89 294.299 184.131C292.139 180.891 290.519 177.111 291.059 177.111C290.519 177.111 290.519 177.111 291.059 177.111ZM433.072 204.11C434.152 204.65 435.772 210.05 439.012 222.469C444.951 246.228 447.651 273.226 447.111 298.065C446.571 305.085 446.571 311.564 446.031 312.104L445.491 313.724L436.852 311.024C419.033 305.625 390.414 296.985 366.115 289.966C352.076 286.186 340.736 282.946 340.736 282.406C340.736 281.326 361.255 260.807 369.895 253.247C386.634 238.668 431.992 203.57 433.072 204.11ZM444.411 205.73C444.951 205.19 512.448 217.069 543.226 223.009C565.905 227.329 599.384 234.348 601.543 235.428C602.623 235.968 598.844 237.588 588.044 242.448C544.846 261.887 512.448 279.706 480.05 300.765C471.41 306.165 464.39 311.024 464.39 311.024C464.39 311.024 463.85 306.165 463.85 300.765C463.85 269.447 457.371 238.128 446.031 211.129C445.491 208.43 444.411 206.27 444.411 205.73ZM619.362 240.288C619.902 240.828 617.742 254.327 615.583 261.887C609.643 286.186 593.444 322.904 574.005 356.922C570.765 362.862 567.525 367.722 566.985 368.262C566.445 368.262 562.125 366.102 557.266 362.862C538.367 351.522 516.228 341.263 493.009 331.543C486.529 328.844 480.589 326.684 480.589 326.144C479.509 325.064 532.427 289.965 560.505 273.226C582.644 259.727 618.822 239.748 619.362 240.288ZM631.782 242.448C633.402 242.448 663.1 250.547 678.759 255.407C717.638 266.747 761.915 282.946 790.534 296.445L802.413 301.845L793.774 304.005C723.037 320.204 662.56 339.103 604.243 362.862C599.384 365.022 595.064 366.642 595.064 366.642C594.524 366.642 596.144 362.862 598.304 358.002C616.123 320.744 627.462 281.866 630.162 248.388C631.242 245.148 631.782 242.448 631.782 242.448ZM333.717 311.024C334.257 310.484 356.936 315.884 369.355 319.664C388.254 325.064 427.672 338.023 427.672 339.103C427.672 339.103 423.352 342.883 417.953 347.743C396.354 365.562 375.835 384.461 350.996 408.76C343.436 415.779 337.497 421.719 336.957 421.719C336.417 421.719 336.417 420.639 336.417 419.559C340.197 392.02 339.117 356.382 334.257 320.204C334.257 314.804 333.717 311.024 333.717 311.024ZM814.293 311.564C814.833 312.104 803.493 328.844 797.014 338.563C787.294 352.602 772.715 371.501 739.776 412.539C722.497 434.138 703.058 458.977 696.579 467.077C690.099 475.176 684.699 482.196 684.159 482.196C684.159 482.196 681.999 479.496 679.299 475.716C660.94 448.178 638.801 423.879 612.883 402.28C608.023 397.96 602.623 393.64 600.463 392.56C598.843 391.48 597.224 389.86 597.224 389.86C597.224 389.321 625.302 377.441 646.361 368.801C683.619 353.682 734.377 335.323 772.175 323.984C792.694 316.964 814.293 311.024 814.293 311.564ZM827.252 314.804C827.792 314.804 832.112 316.424 836.432 319.664C876.39 342.343 915.808 372.041 946.586 402.28C955.226 410.919 976.825 433.058 976.285 433.598C976.285 433.598 968.725 434.138 960.085 434.678C890.969 440.078 802.413 454.657 717.098 475.176C711.158 476.256 706.298 477.876 705.758 477.876C705.218 477.876 711.698 471.396 719.797 463.837C770.015 415.779 792.694 385.001 819.692 331.003C823.472 321.824 826.712 315.344 827.252 314.804C826.712 314.804 826.712 314.804 827.252 314.804ZM460.61 352.062C462.77 352.602 484.369 362.862 500.568 370.421C515.148 377.981 537.827 389.86 538.907 390.4C538.907 390.4 531.347 394.72 521.627 399.58C490.849 415.239 464.39 429.818 436.312 446.558C428.212 451.417 421.732 455.197 421.732 455.197C421.192 455.197 421.192 454.657 425.512 446.558C440.091 419.559 451.971 387.161 458.99 355.842C459.53 353.682 460.07 352.062 460.61 352.062ZM439.552 356.382C440.092 356.922 434.692 376.901 430.912 388.241C424.432 409.299 412.553 435.218 401.753 455.197C399.054 460.057 395.274 466.537 393.114 470.316L388.794 476.796L379.615 468.157C368.815 457.897 360.175 451.417 348.836 445.478C344.516 443.318 340.736 441.158 340.736 440.618C340.736 439.538 368.815 413.619 390.414 395.26C406.073 381.761 439.012 355.842 439.552 356.382ZM570.225 409.839L578.324 415.239C596.684 427.119 618.282 443.318 635.022 457.357C644.201 464.917 662.56 481.116 666.34 485.436L668.5 487.596L655.001 491.375C579.404 512.434 521.627 530.793 453.591 555.632C446.031 558.332 439.552 560.492 439.012 560.492C437.932 560.492 437.392 561.572 454.131 545.913C497.329 505.955 536.207 461.677 564.825 419.019L570.225 409.839ZM535.667 418.479C536.207 419.019 513.528 450.337 500.028 468.696C483.829 490.295 455.211 525.934 435.772 549.152C427.672 558.872 420.652 566.972 420.112 566.972C419.573 566.972 419.572 564.812 419.572 561.032C419.572 541.053 414.713 519.994 405.533 501.635C401.753 494.075 401.213 492.455 401.753 491.375C404.993 488.675 452.511 461.137 483.289 444.938C503.268 434.138 535.127 417.939 535.667 418.479ZM327.777 469.236C328.317 469.236 332.097 471.396 336.417 473.556C346.676 479.496 356.396 485.976 364.495 492.455C365.035 492.995 360.715 496.235 354.776 500.555C339.117 511.894 315.358 529.713 301.858 540.513C287.279 551.852 286.739 552.392 288.359 549.692C299.159 532.953 304.558 523.774 310.498 511.894C315.358 501.095 320.757 488.676 324.537 477.336C325.617 473.016 327.237 469.236 327.777 469.236ZM383.394 512.974C384.474 512.974 385.014 514.054 389.874 521.074C399.054 535.113 406.613 554.012 408.233 569.131L408.773 572.371L386.094 581.011C345.596 596.67 308.338 612.329 283.499 623.669C276.48 626.909 264.06 632.848 255.961 636.628C247.861 640.948 241.381 643.648 241.381 643.648C241.381 643.648 246.241 639.868 252.721 635.008C301.858 599.37 344.516 559.952 376.375 521.074C379.614 516.754 382.854 512.974 383.394 512.974ZM358.016 518.914C358.556 519.454 339.656 541.053 327.237 554.012C295.379 586.411 264.06 611.789 225.182 636.628C220.323 639.868 216.003 642.568 215.463 643.108C214.383 643.648 216.003 642.028 232.742 623.669C243.541 611.789 251.641 602.07 261.36 590.19C267.84 582.091 268.92 581.011 277.56 574.531C301.318 556.172 356.936 518.374 358.016 518.914Z" fill="url(#paint2_radial_34_404)"/>
<defs>
<linearGradient id="paint0_linear_34_404" x1="164.124" y1="979.478" x2="242.82" y2="932.978" gradientUnits="userSpaceOnUse">
<stop stop-color="#909CA9"/>
<stop offset="1" stop-color="#EDEDEE"/>
</linearGradient>
<linearGradient id="paint1_linear_34_404" x1="165.885" y1="103.335" x2="229.206" y2="103.335" gradientUnits="userSpaceOnUse">
<stop stop-color="#939FAB"/>
<stop offset="1" stop-color="#DCDEE1"/>
</linearGradient>
<radialGradient id="paint2_radial_34_404" cx="0" cy="0" r="1" gradientUnits="userSpaceOnUse" gradientTransform="translate(485.114 393.351) rotate(-171.457) scale(81.6382 163.317)">
<stop stop-color="#EE352C"/>
<stop offset="1" stop-color="#A91D22"/>
</radialGradient>
</defs>
</svg>
