<svg width="2500" height="2500" viewBox="0 0 2500 2500" fill="none" xmlns="http://www.w3.org/2000/svg">
<g clip-path="url(#clip0_24_297)">
<path d="M555.664 0H1940.43C2007.81 0 2073.24 10.7422 2136.72 33.2031C2228.52 66.4063 2311.52 125 2374.02 201.172C2437.5 277.344 2479.49 371.094 2494.14 468.75C2500 504.883 2500.98 541.016 2500.98 577.148V1927.73C2500.98 1970.7 2499.02 2014.65 2490.23 2056.64C2470.7 2153.32 2424.8 2244.14 2358.4 2317.38C2292.97 2390.63 2207.03 2445.31 2114.26 2474.61C2057.62 2492.19 1999.02 2500 1939.45 2500C1913.09 2500 551.758 2500 531.25 2499.02C431.641 2494.14 333.008 2461.91 250 2406.25C168.945 2351.56 102.539 2275.39 59.5703 2187.5C22.4609 2112.3 3.90625 2028.32 3.90625 1944.34V555.664C1.95313 472.656 19.5312 390.625 55.6641 316.406C97.6563 228.516 163.086 151.367 244.141 96.6797C327.148 40.0391 424.805 6.83594 524.414 1.95313C534.18 0 544.922 0 555.664 0Z" fill="url(#paint0_linear_24_297)"/>
<path d="M2109.38 2044.92C2100.59 2031.25 2090.82 2017.58 2080.08 2004.88C2055.66 1975.59 2027.34 1950.2 1996.09 1928.71C1957.03 1902.34 1911.13 1885.74 1864.26 1883.79C1831.05 1881.84 1797.85 1887.7 1766.6 1899.41C1735.35 1910.16 1705.08 1925.78 1675.78 1941.41C1641.6 1958.98 1607.42 1976.56 1571.29 1991.21C1528.32 2008.79 1483.4 2022.46 1437.5 2032.23C1379.88 2042.97 1321.29 2046.88 1263.67 2045.9C1159.18 2043.95 1054.69 2028.32 955.078 1999.02C867.188 1972.66 783.203 1936.52 704.102 1890.63C634.766 1850.59 570.313 1804.69 509.766 1752.93C459.961 1709.96 414.063 1664.06 371.094 1615.23C341.797 1581.05 313.477 1544.92 287.109 1507.81C276.367 1493.16 266.602 1477.54 257.813 1461.91L0 1183.59V553.711C0 248.047 247.07 0 552.734 0H1045.9L1411.13 371.094C2235.35 931.641 1968.75 1549.8 1968.75 1549.8C1968.75 1549.8 2203.13 1813.48 2109.38 2044.92Z" fill="url(#paint1_linear_24_297)"/>
<path d="M1413.09 371.094C2237.3 931.641 1970.7 1549.8 1970.7 1549.8C1970.7 1549.8 2205.08 1814.45 2110.35 2045.9C2110.35 2045.9 2013.67 1883.79 1851.56 1883.79C1695.31 1883.79 1603.52 2045.9 1289.06 2045.9C588.867 2045.9 257.812 1460.94 257.812 1460.94C888.672 1875.98 1319.34 1582.03 1319.34 1582.03C1035.16 1416.99 430.664 627.93 430.664 627.93C957.031 1076.17 1184.57 1194.34 1184.57 1194.34C1048.83 1082.03 667.969 533.203 667.969 533.203C972.656 841.797 1578.13 1272.46 1578.13 1272.46C1750 795.898 1413.09 371.094 1413.09 371.094Z" fill="white"/>
</g>
<defs>
<linearGradient id="paint0_linear_24_297" x1="1487.22" y1="-89.209" x2="1014.88" y2="2589.51" gradientUnits="userSpaceOnUse">
<stop stop-color="#FAAE42"/>
<stop offset="1" stop-color="#EF3E31"/>
</linearGradient>
<linearGradient id="paint1_linear_24_297" x1="1275.51" y1="40.3906" x2="929.815" y2="2000.91" gradientUnits="userSpaceOnUse">
<stop stop-color="#E39F3A"/>
<stop offset="1" stop-color="#D33929"/>
</linearGradient>
<clipPath id="clip0_24_297">
<rect width="2500" height="2500" fill="white"/>
</clipPath>
</defs>
</svg>
