<svg width="2490" height="2500" viewBox="0 0 2490 2500" fill="none" xmlns="http://www.w3.org/2000/svg">
<path d="M2464.14 381.595L1311.22 2443.21C1287.42 2485.78 1226.26 2486.03 1202.1 2443.67L26.3265 381.787C3.04803e-05 335.634 39.4706 279.722 91.7784 289.079L1245.93 495.367C1253.3 496.682 1260.84 496.669 1268.2 495.328L2398.21 289.366C2450.35 279.865 2490 335.347 2464.14 381.595Z" fill="url(#paint0_linear_7_80)"/>
<path d="M1795.71 18.4796L942.528 185.661C935.711 186.997 929.532 190.56 924.96 195.791C920.389 201.021 917.686 207.623 917.276 214.557L864.795 1100.95C864.507 1105.81 865.355 1110.68 867.274 1115.15C869.192 1119.63 872.128 1123.6 875.847 1126.74C879.567 1129.88 883.968 1132.12 888.702 1133.26C893.435 1134.41 898.37 1134.43 903.115 1133.34L1140.66 1078.52C1162.88 1073.39 1182.97 1092.97 1178.39 1115.31L1107.82 1460.9C1103.08 1484.16 1124.91 1504.05 1147.62 1497.14L1294.34 1452.57C1317.08 1445.67 1338.94 1465.61 1334.13 1488.89L1221.98 2031.73C1214.96 2065.68 1260.12 2084.2 1278.95 2055.09L1291.54 2035.65L1986.77 648.187C1998.42 624.957 1978.33 598.468 1952.83 603.395L1708.31 650.584C1685.34 655.013 1665.79 633.614 1672.27 611.142L1831.86 57.9118C1838.35 35.3819 1818.71 13.9736 1795.71 18.4796Z" fill="url(#paint1_linear_7_80)"/>
<defs>
<linearGradient id="paint0_linear_7_80" x1="-5260.06" y1="43443.7" x2="317934" y2="479206" gradientUnits="userSpaceOnUse">
<stop stop-color="#41D1FF"/>
<stop offset="1" stop-color="#BD34FE"/>
</linearGradient>
<linearGradient id="paint1_linear_7_80" x1="127651" y1="11878.5" x2="194072" y2="464228" gradientUnits="userSpaceOnUse">
<stop stop-color="#FFEA83"/>
<stop offset="0.083" stop-color="#FFDD35"/>
<stop offset="1" stop-color="#FFA800"/>
</linearGradient>
</defs>
</svg>
