<svg width="255" height="104" viewBox="0 0 255 104" fill="none" xmlns="http://www.w3.org/2000/svg">
<path d="M26.6896 8.20462C23.4896 1.20462 15.5896 -1.99538 8.18957 1.30462C0.789571 4.60462 -1.91043 12.8046 1.38957 19.8046L32.3896 87.2046C37.2896 97.8046 42.3896 103.305 52.0896 103.305C62.3896 103.305 66.8896 97.3046 71.7896 87.2046C71.7896 87.2046 98.7896 28.3046 99.0896 27.7046C99.3896 27.1046 100.19 25.2046 102.99 25.2046C105.29 25.2046 107.29 27.1046 107.29 29.6046V87.2046C107.29 96.1046 112.19 103.405 121.69 103.405C131.19 103.405 136.29 96.1046 136.29 87.2046V40.1046C136.29 31.0046 142.79 25.1046 151.69 25.1046C160.59 25.1046 166.49 31.2046 166.49 40.1046V87.2046C166.49 96.1046 171.39 103.405 180.89 103.405C190.39 103.405 195.49 96.1046 195.49 87.2046V40.1046C195.49 31.0046 201.99 25.1046 210.89 25.1046C219.79 25.1046 225.69 31.2046 225.69 40.1046V87.2046C225.69 96.1046 230.59 103.405 240.09 103.405C249.59 103.405 254.69 96.1046 254.69 87.2046V33.6046C254.69 13.9046 238.89 0.104617 219.79 0.104617C200.79 0.104617 188.79 13.3046 188.79 13.3046C182.49 5.00462 173.69 0.00461655 158.89 0.00461655C143.29 0.00461655 129.59 13.2046 129.59 13.2046C123.29 5.00462 112.49 0.00461655 103.49 0.00461655C89.6896 0.104617 78.6896 6.20462 71.9896 21.5046L52.1896 68.2046L26.6896 8.20462Z" fill="#717073"/>
</svg>
